SplineFontDB: 2.0
FontName: Mekorot-Vilna-Bold
FullName: Mekorot Vilna Font Bold
FamilyName: Mekorot-Vilna
Weight: Bold
Copyright: Copyright .51 2002-2004 by Maxim Iorsh (iorsh@math.technion.ac.il). Distributed under the terms of GNU General Public License version 2(http://www.gnu.org/licenses/gpl.html). \nLatin glyphs, digits and punctuation Copyright (URW)++,Copyright 1999 by (URW)++ Design & Development.\nBolded (even more...) by Moshe Wagner (moshe.wagner@gmail.com) For use in the mekorot project (mekorot.sf.net)\nAll rights reserved.
Version: 0.100
ItalicAngle: 0
UnderlinePosition: -100
UnderlineWidth: 50
Ascent: 960
Descent: 240
NeedsXUIDChange: 1
UniqueID: 4026055
FSType: 0
OS2Version: 0
OS2_WeightWidthSlopeOnly: 0
OS2_UseTypoMetrics: 0
CreationTime: 1195722669
ModificationTime: 1227555776
PfmFamily: 17
TTFWeight: 700
TTFWidth: 5
LineGap: 108
VLineGap: 0
OS2TypoAscent: 0
OS2TypoAOffset: 1
OS2TypoDescent: 0
OS2TypoDOffset: 1
OS2TypoLinegap: 108
OS2WinAscent: 0
OS2WinAOffset: 1
OS2WinDescent: 0
OS2WinDOffset: 1
HheadAscent: 0
HheadAOffset: 1
HheadDescent: 0
HheadDOffset: 1
OS2Vendor: 'PfEd'
MacStyle: 1
Lookup: 258 0 0 "'kern' Horizontal Kerning lookup 0"  {"'kern' Horizontal Kerning lookup 0 subtable"  } ['kern' ('DFLT' <'dflt' > ) ]
Lookup: 258 0 0 "'kern' Horizontal Kerning in Latin lookup 0"  {"'kern' Horizontal Kerning in Latin lookup 0 subtable"  } ['kern' ('latn' <'dflt' > ) ]
DEI: 0
LangName: 1033 
Encoding: Custom
UnicodeInterp: none
NameList: Adobe Glyph List
DisplaySize: -24
AntiAlias: 1
FitToEm: 1
WinInfo: 0 42 18
BeginPrivate: 7
BlueValues 31 [-20 0 461 481 600 650 676 696]
BlueScale 8 0.039625
StdHW 4 [33]
StdVW 5 [140]
StemSnapH 200 [33 44 48 55 66 73] 
systemdict /internaldict known
{1183615869 systemdict /internaldict get exec
/StemSnapLength 2 copy known { get 6 lt } { pop pop true } ifelse }
{ true } ifelse { pop [33 66] } if
StemSnapV 208 [118 140 148 163 174 178] 
systemdict /internaldict known
{1183615869 systemdict /internaldict get exec

StartChar: exclam
Encoding: 33 33 1
Width: 333
Flags: HMW
Validated: 1
HStem: -13 169<143 189> 671 20<139 192.5>
VStem: 82 169<48 93.5 47 94.5>
Fore
268.5 70 m 0
 268.5 14.0225 222.099 -30.5 165 -30.5 c 0
 104.7 -30.5 64.5 18.0371 64.5 72 c 0
 64.5 126.888 109.938 173.5 166 173.5 c 0
 222.934 173.5 268.5 126.527 268.5 70 c 0
195.748 216.5 m 1
 135.252 216.5 l 1
 133.597 232.16 l 2
 120.623 354.912 111.271 402.444 82.2764 496.846 c 0
 68.4189 541.962 63.5 563.783 63.5 591 c 0
 63.5 664.511 102.604 708.5 166 708.5 c 0
 228.715 708.5 267.5 664.167 267.5 589 c 0
 267.5 563.611 262.616 541.047 248.689 496.737 c 0
 218.744 401.459 210.39 355.03 197.403 232.16 c 2
 195.748 216.5 l 1
EndSplineSet
EndChar
StartChar: quotedbl
Encoding: 34 34 2
Width: 555
Flags: HMW
Validated: 1
HStem: 671 20<128 165.5 388 425.5>
Fore
181.914 386.5 m 1
 113.031 386.5 l 1
 109.936 400.122 l 2
 106.018 417.361 100.518 441.96 99.1035 447.45 c 0
 90.2168 481.968 65.5 585.541 65.5 620 c 0
 65.5 671.062 98.0996 708.5 147 708.5 c 0
 193.594 708.5 229.5 671.789 229.5 624 c 0
 229.5 597.371 214.116 525.727 185.05 400.057 c 2
 181.914 386.5 l 1
441.89 386.5 m 1
 373.178 386.5 l 1
 369.976 399.946 l 2
 366.223 415.708 361.093 438.669 358.824 448.55 c 0
 350.671 484.048 325.5 585.811 325.5 620 c 0
 325.5 671.062 358.1 708.5 407 708.5 c 0
 453.594 708.5 489.5 671.789 489.5 624 c 0
 489.5 596.958 471.131 511.952 445.043 400.027 c 2
 441.89 386.5 l 1
EndSplineSet
EndChar
StartChar: numbersign
Encoding: 35 35 3
Width: 500
Flags: HMW
Validated: 1
HStem: 0 20 210 73<4 100 4 111 189 291 4 178 380 467> 417 73<33 129 33 139 33 207 217 320 408 496>
Fore
484.5 300.5 m 1
 484.5 192.5 l 1
 384.249 192.5 l 1
 355.249 -17.5 l 1
 241.917 -17.5 l 1
 270.917 192.5 l 1
 193.249 192.5 l 1
 164.249 -17.5 l 1
 50.917 -17.5 l 1
 79.917 192.5 l 1
 -13.5 192.5 l 1
 -13.5 300.5 l 1
 95.6934 300.5 l 1
 108.992 399.5 l 1
 15.5 399.5 l 1
 15.5 507.5 l 1
 123.822 507.5 l 1
 153.822 717.5 l 1
 266.083 717.5 l 1
 237.083 507.5 l 1
 314.822 507.5 l 1
 344.822 717.5 l 1
 457.083 717.5 l 1
 428.083 507.5 l 1
 513.5 507.5 l 1
 513.5 399.5 l 1
 413.307 399.5 l 1
 400.008 300.5 l 1
 484.5 300.5 l 1
299.992 399.5 m 1
 222.307 399.5 l 1
 209.008 300.5 l 1
 286.693 300.5 l 1
 299.992 399.5 l 1
EndSplineSet
EndChar
StartChar: dollar
Encoding: 36 36 4
Width: 570
Flags: W
Validated: 1
HStem: 0.00878906 52.3457<304 385.691> 463.5 21G<442.692 498> 617.83 53.42<309.757 390.765>
VStem: 29 130<446.679 578.344> 214 90<-99 -3.56641 62.166 219.656 480.101 617.83 671.25 750> 397 145<99.4012 221.38>
Fore
498 463.5 m 1
 446.354 463.5 l 1
 442.692 476.126 l 2
 417.288 563.728 380.49 600.84 304 617.83 c 1
 304 437.817 l 1
 428.589 392.686 460.85 371.207 496.6 331.988 c 0
 525.914 299.831 542 254.35 542 204.272 c 0
 542 146.606 523.538 97.6738 486.68 63.0039 c 0
 453.563 31.8545 412.705 14.2354 304 0.00878906 c 1
 304 -99 l 1
 214 -99 l 1
 214 -3.56641 l 1
 167.344 -0.670898 137.891 5.75977 56.7969 37.8682 c 2
 46 42.1426 l 1
 46 220.643 l 1
 97.9219 215.921 l 1
 101.279 205.103 l 2
 129.812 113.146 162.613 77.0879 213 62.166 c 1
 213 270.297 l 1
 81.2393 334.827 29 395.275 29 485.865 c 0
 29 551.593 62.8828 608.522 123.893 641.735 c 0
 156.335 660.23 180.035 665.744 214 670.074 c 1
 214 750 l 1
 304 750 l 1
 304 671.25 l 1
 407.692 660.009 443.962 648.55 489.457 623.552 c 2
 498 618.857 l 1
 498 463.5 l 1
397 134 m 0
 397 174.435 386.759 188.574 304 219.656 c 1
 304 52.3545 l 1
 366.545 64.7676 397 89.2432 397 134 c 0
159 554 m 0
 159 525.483 172.407 499.824 213 480.101 c 1
 213 620.56 l 1
 175.062 607.238 159 588.184 159 554 c 0
EndSplineSet
EndChar
StartChar: percent
Encoding: 37 37 5
Width: 1070
Flags: W
Validated: 1
HStem: -14 81<641.529 770.239> 276.5 81<228.108 360.267> 303.5 86<809.978 873.84> 567.5 55.5<512.645 608.487> 672 20<306.557 380.021 729.674 806.23>
VStem: 124 148.862<358.327 438.408 393.259 483.556> 441.752 71.626<533.292 569.479> 535 152<68.1093 177.795> 879 68<170.642 300.245>
Fore
401.715 608.812 m 0xdf80
 398.018 611.38 395.843 612.298 394.136 613.06 c 0
 393.753 613.23 393.514 613.553 393.29 613.632 c 1
 393.079 613.632 391.734 613.517 389.579 612.7 c 0
 378.124 608.361 363.098 595.938 345.179 571.207 c 0
 307.35 518.999 275.757 434.983 272.971 394.885 c 0
 272.926 394.231 272.862 392.288 272.862 391.633 c 0
 272.862 371.153 285.868 357.5 305.378 357.5 c 0
 336.621 357.5 360.703 379.509 383.447 410.888 c 0
 429.268 474.105 441.752 537.366 441.752 569 c 0
 441.752 584.028 438.13 590.815 422.953 596.656 c 0
 418.981 598.185 415.745 599.059 410.669 602.376 c 0
 408.709 603.657 408.443 604.14 401.715 608.812 c 0xdf80
734.135 692 m 2
 806.23 692 l 1
 361.731 -8 l 1
 266.609 -8 l 1
 626.629 579.52 l 1
 590.878 569.616 563.603 567.5 545.227 567.5 c 0
 533.285 567.5 522.938 568.299 513.378 569.479 c 1
 509.915 487.539 491.208 432.588 448.064 373.125 c 0
 402.75 310.672 340.71 276.5 270.5 276.5 c 0
 182.6 276.5 124 339.723 124 423.589 c 0
 124 553.266 239.815 678 373.299 678 c 0
 386.743 678 418.388 677.882 463.614 647.791 c 0
 494.677 627.123 513.876 623 551.595 623 c 0
 620.661 623 686.804 652.572 703.086 673.65 c 0
 706.582 678.176 708.528 680.517 713.018 684.109 c 0
 718.07 688.15 725.213 692 734.135 692 c 2
879 252.755 m 0
 879 279.989 864.355 303.5 842.386 303.5 c 0xbf80
 829.942 303.5 810.245 300.712 780.242 262.179 c 0
 725.004 217.379 687 134.733 687 102.848 c 0
 687 75.6719 701.717 67 725.522 67 c 0
 746.712 67 787.133 75.5205 831.53 136.8 c 0
 864.263 181.979 879 219.132 879 252.755 c 0
809.486 389.5 m 0
 894.719 389.5 947 337.452 947 262.508 c 0
 947 193.575 917.794 105.787 848.642 42.0068 c 0
 810.333 10.6016 750.595 -14 685.5 -14 c 0
 595.2 -14 535 46.8994 535 135.995 c 0
 551.064 264.669 680.788 389.5 809.486 389.5 c 0
EndSplineSet
EndChar
StartChar: ampersand
Encoding: 38 38 6
Width: 833
Flags: W
Validated: 33
HStem: -33.5 136<611.76 715.338> -32.5 111<214.092 376.124> 379.453 57.047<559.5 574.938 784.621 800.5> 640.5 68<342.873 421.825>
VStem: 44.5 174<111.151 277.186> 188.5 152<524.779 625.288> 449.5 136<492.318 612.775>
Fore
559.5 436.5 m 1x76
 800.5 436.5 l 1
 800.5 379.053 l 1
 784.621 377.575 l 2
 749.553 374.313 740.531 371.006 724.893 345.81 c 2
 697.868 301.771 l 2
 672.055 260.66 660.283 243.359 611.912 176.433 c 1
 660.673 114.982 680.586 102.5 709 102.5 c 0
 726.276 102.5 737.916 109.652 752.191 132.324 c 2
 761.316 146.818 l 1
 811.18 116.9 l 1
 785.923 75.8584 l 2
 760.74 34.5596 746.241 15.6035 727.768 1.20898 c 0
 707.357 -14.6953 665.4 -33.5 624 -33.5 c 0xb6
 568.481 -33.5 529.822 -11.9102 472.725 48.6904 c 1
 394.701 -6.98145 327.354 -32.5 253 -32.5 c 0
 130.942 -32.5 44.5 48.2988 44.5 161 c 0x7a
 44.5 259.381 98.6836 325.904 233.641 395.353 c 1
 200.559 454.37 188.5 489.045 188.5 533 c 0
 188.5 640.574 272.306 708.5 401 708.5 c 0
 512.572 708.5 585.5 652.7 585.5 569 c 0
 585.5 500.34 538.163 453.347 443.23 414.763 c 1
 567.823 238.187 l 1
 613.789 297.11 625.73 323.486 625.5 354 c 0
 625.39 368.632 625.672 368.081 614.479 371.175 c 0
 606.8 373.297 594.583 375.291 574.938 377.622 c 2
 559.5 379.453 l 1
 559.5 436.5 l 1x76
308.449 276.277 m 2
 269.736 334.348 l 1
 230.353 309.34 218.5 290.592 218.5 264 c 0
 218.5 218.363 244.29 158.299 285.634 115.109 c 0
 302.299 97.7002 331.446 78.5 362 78.5 c 0x7a
 379.715 78.5 397.822 84.6631 427.048 104.015 c 1
 399.804 140.518 374.65 177.418 308.449 276.277 c 2
402.852 472.782 m 1
 435.954 486 449.5 502.151 449.5 533 c 0
 449.5 587.35 415.669 640.5 375 640.5 c 0
 347.4 640.5 340.5 620.85 340.5 602 c 0x36
 340.5 569.355 356.503 532.18 402.852 472.782 c 1
EndSplineSet
EndChar
StartChar: quotesingle
Encoding: 39 39 7
Width: 278
Flags: HMW
Validated: 1
HStem: 671 20<120 157.5>
Fore
173.943 386.5 m 1
 105.178 386.5 l 1
 101.976 399.946 l 2
 98.2266 415.694 93.1221 438.635 90.8281 448.523 c 0
 82.5938 484.025 57.5 585.809 57.5 620 c 0
 57.5 671.062 90.0996 708.5 139 708.5 c 0
 185.594 708.5 221.5 671.789 221.5 624 c 0
 221.5 602.036 212.45 554.531 177.058 400.091 c 2
 173.943 386.5 l 1
EndSplineSet
EndChar
StartChar: parenleft
Encoding: 40 40 8
Width: 333
Flags: HMW
Validated: 1
HStem: 674 20<306 306>
VStem: 46 113<213.5 323.5>
Fore
323.5 723.139 m 1
 323.5 657.635 l 1
 315.707 652.439 l 2
 259.254 614.804 236.426 591.107 216.826 549.531 c 0
 192.835 498.641 176.5 409.804 176.5 258 c 0
 176.5 122.153 191.2 32.4336 218.806 -25.4883 c 0
 238.883 -67.6143 262.021 -91.5264 315.345 -125.204 c 2
 323.5 -130.354 l 1
 323.5 -198.963 l 1
 296.974 -182.992 l 2
 195.511 -121.907 151.186 -80.3193 104.229 -6.38379 c 0
 54.1963 72.3926 28.5 164.801 28.5 259 c 0
 28.5 381.13 68.6553 508.396 164.233 610.969 c 0
 203.637 653.256 235.193 676.137 297.777 709.448 c 2
 323.5 723.139 l 1
EndSplineSet
EndChar
StartChar: parenright
Encoding: 41 41 9
Width: 333
Flags: HMW
Validated: 1
HStem: 674 20<27 27>
VStem: 174 113<202 312 202 336>
Fore
9.5 -197.139 m 1
 9.5 -131.635 l 1
 17.293 -126.439 l 2
 73.8789 -88.7148 97.2305 -64.5996 116.105 -23.6787 c 0
 139.671 27.4102 156.5 116.196 156.5 268 c 0
 156.5 402.824 141.779 493.612 114.194 551.488 c 0
 94.1846 593.472 71.0605 616.535 17.4717 651.321 c 2
 9.5 656.496 l 1
 9.5 724.963 l 1
 36.0264 708.992 l 2
 137.489 647.907 181.814 606.319 228.771 532.383 c 0
 278.804 453.605 304.5 361.164 304.5 266 c 0
 304.5 133.811 256.717 10.4355 167.81 -84.9229 c 0
 128.772 -126.793 97.79 -150.146 35.2227 -183.448 c 2
 9.5 -197.139 l 1
EndSplineSet
EndChar
StartChar: asterisk
Encoding: 42 42 10
Width: 500
Flags: HMW
Validated: 1
HStem: 671 20<237 266>
VStem: 226 52<472 476 468 479 468 479>
Fore
279.758 524.259 m 1
 296.043 538.043 306.306 549.877 326.488 579.774 c 0
 351.171 616.337 367.536 626.5 395 626.5 c 0
 429.95 626.5 464.5 596.425 464.5 559 c 0
 464.5 533.017 443.172 505.062 417.956 493.943 c 0
 408.63 489.832 397.435 486.325 366.406 485.51 c 0
 336.937 484.736 324.566 482.455 308.127 473.7 c 1
 327.956 465.692 341.855 463.449 375.421 460.441 c 0
 397.248 458.485 429.345 455.721 448.598 436.1 c 0
 452.384 432.241 455.548 427.809 457.952 423.041 c 0
 462.788 413.451 464.5 402.905 464.5 392 c 0
 464.5 356.487 437.9 324.5 398 324.5 c 0
 363.05 324.5 343.397 342.235 308.554 394.13 c 0
 298.05 409.773 291.602 417.845 279.451 426.104 c 1
 283.178 400.529 287.949 387.847 303.577 356.974 c 0
 310.675 342.951 319.5 327.048 319.5 307 c 0
 319.5 270.438 292.1 237.5 251 237.5 c 0
 211.7 237.5 185.5 268.938 185.5 312 c 0
 185.5 334.152 191.488 347.898 202.776 367.626 c 0
 216.732 392.016 220.909 403.823 222.469 423.163 c 1
 200.942 405.757 192.424 394.566 175.547 369.275 c 0
 151.612 333.408 134.482 321.5 107 321.5 c 0
 69.5742 321.5 39.5 351.59 39.5 389 c 0
 39.5 418.4 54.0791 461.309 141.584 462.49 c 0
 167.175 462.836 178.372 463.877 195.212 473.153 c 1
 172.355 482.14 157.692 484.461 122.571 487.559 c 0
 110.52 488.621 82.7609 490.03 63.3115 502.675 c 0
 58.1114 506.056 48.279 513.642 42.9004 528.178 c 0
 39.5658 537.19 38.5 546.728 38.5 557 c 0
 38.5 595.263 64.7002 623.5 104 623.5 c 0
 136.935 623.5 157.243 609.882 181.864 570.235 c 0
 198.113 544.07 204.049 534.356 224.287 521.206 c 1
 222.371 540.662 217.458 552.538 202.638 579.619 c 0
 190.445 601.9 182.5 616.481 182.5 641 c 0
 182.5 681.5 215.362 708.5 252 708.5 c 0
 291.3 708.5 317.5 676.225 317.5 636 c 0
 317.5 613.355 310.896 599.255 299.097 579.153 c 0
 287.635 559.626 281.098 544.877 279.758 524.259 c 1
EndSplineSet
EndChar
StartChar: plus
Encoding: 43 43 11
Width: 570
Flags: HMW
Validated: 1
HStem: 0 20 209 88<33 241 33 241 329 537>
VStem: 241 88<0 209 0 209 297 506>
Fore
223.5 314.5 m 1
 223.5 523.5 l 1
 346.5 523.5 l 1
 346.5 314.5 l 1
 554.5 314.5 l 1
 554.5 191.5 l 1
 346.5 191.5 l 1
 346.5 -17.5 l 1
 223.5 -17.5 l 1
 223.5 191.5 l 1
 15.5 191.5 l 1
 15.5 314.5 l 1
 223.5 314.5 l 1
EndSplineSet
EndChar
StartChar: comma
Encoding: 44 44 12
Width: 250
Flags: W
Validated: 33
HStem: -204.449 376.949<49.6592 122 134.546 135.048>
VStem: 21.5 219<4.90138 125.334>
Fore
49.6592 -204.449 m 1
 23.5645 -152.261 l 1
 36.0293 -143.618 l 2
 119.856 -85.4967 137.689 -49.5225 137.5 -26 c 0
 137.487 -24.4004 137.275 -22.2979 136.339 -21.5293 c 1
 136.157 -21.4644 l 1
 136.153 -21.4865 136.107 -21.5 136 -21.5 c 0
 134.807 -21.5 134.796 -21.5146 134.534 -21.6016 c 2
 133.231 -22.0361 l 1
 131.877 -22.2617 l 2
 124.06 -23.5635 115.976 -23.5 112 -23.5 c 0
 59.5908 -23.5 21.5 16.0264 21.5 72 c 0
 21.5 131.044 61.7002 172.5 122 172.5 c 0
 193.1 172.5 240.5 116.138 240.5 39 c 0
 240.5 -54.6611 186.211 -125.579 65.7529 -195.154 c 2
 49.6592 -204.449 l 1
EndSplineSet
EndChar
StartChar: hyphen
Encoding: 45 45 13
Width: 333
Flags: HMW
Validated: 1
HStem: 171 116<44 287 44 287>
VStem: 44 243<171 287 171 287>
Fore
304.5 304.5 m 1
 304.5 153.5 l 1
 26.5 153.5 l 1
 26.5 304.5 l 1
 304.5 304.5 l 1
EndSplineSet
EndChar
StartChar: period
Encoding: 46 46 14
Width: 250
Flags: HMW
Validated: 1
HStem: -13 20
Fore
227.5 70 m 0
 227.5 14.0225 181.099 -30.5 124 -30.5 c 0
 63.7002 -30.5 23.5 18.0371 23.5 72 c 0
 23.5 126.888 68.9375 173.5 125 173.5 c 0
 181.934 173.5 227.5 126.527 227.5 70 c 0
EndSplineSet
EndChar
StartChar: slash
Encoding: 47 47 15
Width: 278
Flags: HMW
Validated: 1
HStem: -19 20 671 20<212 302 302 302>
Fore
326.259 708.5 m 1
 78.625 -36.5 l 1
 -48.2588 -36.5 l 1
 199.375 708.5 l 1
 326.259 708.5 l 1
EndSplineSet
EndChar
StartChar: zero
Encoding: 48 48 16
Width: 570
Flags: W
Validated: 1
HStem: -13 63<241.642 315.117> 625 63<242.253 324.72>
VStem: 24 193<176.344 499.818> 353 193<177.23 494.768>
Fore
285 688 m 0
 447.009 688 546 530.208 546 337.023 c 0
 546 142.702 447.888 -13 286.347 -13 c 0
 121.8 -13 24 138.432 24 339.881 c 0
 24 419.116 46.1826 512.589 80.333 569.164 c 0
 122.765 639.454 192.617 688 285 688 c 0
353 228.627 m 2
 353 444.487 l 2
 353 592.601 321.656 625 283.653 625 c 0
 246.569 625 217 595.612 217 444.487 c 2
 217 228.627 l 2
 217 81.2305 246.11 50 286.347 50 c 0
 306.312 50 320.324 57.6826 331.479 79.5703 c 0
 342.032 100.273 353 167.613 353 228.627 c 2
EndSplineSet
EndChar
StartChar: one
Encoding: 49 49 17
Width: 535
Flags: W
Validated: 1
HStem: -35 58.8242<67 177.666 375.489 477> 668 20G<284.639 369>
VStem: 67 410<-35 23.6191 23.6191 511.22 -35 -35> 186 183<34.0629 529.533>
Fore
330.877 688 m 1xd0
 369 688 l 1
 369 100.5 l 2xd0
 369 35.5381 378.15 25.792 459.885 23.9961 c 2
 477 23.6191 l 1
 477 -35 l 1
 67 -35 l 1
 67 23.8242 l 1xe0
 84.3232 23.999 l 2
 174.729 24.9121 186 37.1562 186 106.5 c 2
 186 491.5 l 2
 185.49 517.423 183.614 525.28 180.613 532.761 c 0
 179.464 535.626 177.5 543 167.5 543 c 0
 159.953 543 140.615 538.859 110.044 527.63 c 1
 105.561 525.143 98.5801 522.414 88.0342 518.898 c 2
 65 511.22 l 1
 65 572.997 l 1
 330.877 688 l 1xd0
EndSplineSet
EndChar
StartChar: two
Encoding: 50 50 18
Width: 570
Flags: W
Validated: 1
HStem: -35 168<231.259 470.601> -35 246<494.683 499.661 17 552.126 494.683 494.683> 539 149<174.129 357.485>
VStem: 335 171<377.075 474.046>
Fore
552.126 211 m 1x70
 499.661 -35 l 1
 17 -35 l 1x70
 17 12.4121 l 1
 21.7227 17.458 l 2
 168.977 173.592 208.162 213.999 274.727 291.073 c 0
 323.167 350.286 335 401.813 335 429.5 c 0
 335 448.523 326.398 474.679 313.014 492.596 c 0
 289.234 524.435 254.022 539 207.942 539 c 0
 151.371 539 120.086 514.54 92.1523 458.674 c 2
 87.3154 449 l 1
 23.2871 449 l 1
 32.1055 472.621 l 2
 60.3193 548.195 82.6807 585.869 123.039 626.787 c 0
 161.812 665.932 227.138 688 295.568 688 c 0
 421.926 688 506 603.334 506 487.5 c 0
 506 405.672 468.237 334.36 386.553 256.812 c 2
 231.259 133 l 1
 356.137 133 l 2xb0
 462.162 133 465.44 138.399 490.268 200.038 c 2
 494.683 211 l 1
 552.126 211 l 1x70
EndSplineSet
EndChar
StartChar: three
Encoding: 51 51 19
Width: 570
Flags: W
Validated: 1
HStem: -14 85<177.172 348.607> 481.947 21G<46.4444 90.3535> 572 116<174.554 357.486>
VStem: 305.191 193.809<456.933 549.622> 389 149<144.995 269.458>
Fore
81.4453 481.947 m 1xf0
 31.0527 510.742 l 1
 39.0625 525.743 l 2
 101.26 642.222 190.367 688 305.781 688 c 0
 430.777 688 499 632.002 499 540.837 c 0xf0
 499 488.699 483.966 456.581 433.861 422.114 c 1
 454.893 411.389 471.529 399.854 489.822 379.239 c 0
 521.812 343.189 538 297.753 538 250.321 c 0
 538 100.448 396.156 -14 191.281 -14 c 0
 84.2002 -14 16 29 16 93.5 c 0
 16 137.707 51.374 169 98.5 169 c 0
 135.357 169 171.02 148.861 218.759 108.969 c 0
 256.997 77.0156 273.218 71 293.977 71 c 0
 352.546 71 389 106.754 389 164.938 c 0xe8
 389 205.763 369.272 243.518 337.669 267.053 c 0
 297.579 296.908 263.359 311.253 165.58 338.306 c 2
 153 342.136 l 1
 153 381.625 l 1
 166.174 385.235 l 2
 268.868 410.915 305.191 437.881 305.191 492.083 c 0
 305.191 539.878 270.412 572 205.446 572 c 0
 155.241 572 126.749 554.67 90.3535 496.247 c 2
 81.4453 481.947 l 1xf0
EndSplineSet
EndChar
StartChar: four
Encoding: 52 52 20
Width: 570
Flags: W
Validated: 1
HStem: -17.5 21G<301.34 482> 126.5 146<111.214 301.34 482 545 19 545 111.214 111.214> 668 20G<359.901 482>
VStem: 304 178<-17.5 126.5 272.5 496.723>
Fore
482 688 m 1
 482 272.5 l 1
 545 272.5 l 1
 545 126.5 l 1
 482 126.5 l 1
 482 -17.5 l 1
 301.34 -17.5 l 1
 301.34 126.5 l 1
 19 126.5 l 1
 19 262.063 l 1
 21.7041 266.345 l 2
 82.1084 358.173 148.521 447.029 311.609 607.486 c 2
 375.862 688 l 1
 482 688 l 1
111.214 272.5 m 1
 304 272.5 l 1
 304 496.723 l 1
 111.214 272.5 l 1
EndSplineSet
EndChar
StartChar: five
Encoding: 53 53 21
Width: 535
Flags: W
Validated: 1
HStem: -8 96<157.8 327.434> 514 162<179.881 457.051>
VStem: 22 489.901<97.5 676 97.5 97.5> 373 113<130.462 284.957>
Fore
179.881 514 m 1xe0
 167.007 469.58 l 1
 233.729 465.395 264.289 461.156 300.326 451.511 c 0
 416.541 420.405 486 338.829 486 234.257 c 0xd0
 486 92.0234 359.888 -8 186.5 -8 c 0
 86.4814 -8 22 34.2002 22 97.5 c 0xe0
 22 141.721 55.2539 175 101.5 175 c 0
 123.39 175 154.852 168.424 210.974 126.52 c 0
 252.656 95.3965 274.6 88 290.5 88 c 0
 337.082 88 373 121.896 373 165.865 c 0xd0
 373 218.444 328.158 267.319 243.221 292.635 c 0
 201.083 305.194 162.081 310.795 67.2139 317.393 c 2
 45.8564 318.878 l 1
 152.242 676 l 1
 511.901 676 l 1
 457.051 514 l 1
 179.881 514 l 1xe0
EndSplineSet
EndChar
StartChar: six
Encoding: 54 54 22
Width: 570
Flags: W
Validated: 33
HStem: -13 62<262.187 346.096> 358.5 80<264.799 394.797> 670.678 20G<520.025 540>
VStem: 28 191<138.067 319.59> 28 512<101.883 356.978 230.078 276.063 276.063 276.063> 358 187<116.229 324.922>
Fore
520.025 687.824 m 2xf4
 540 690.678 l 1
 540 634.153 l 1xe8
 526.022 631.468 l 2
 396.182 606.464 308.549 543.104 257.236 431.696 c 1
 282.018 436.588 306.327 438.5 334.611 438.5 c 0
 463.2 438.5 545 356.978 545 230.078 c 0
 545 90.2559 446.541 -13 297.188 -13 c 0
 127.8 -13 28 101.883 28 276.063 c 0
 28 407.728 89.4707 519.942 206.602 596.493 c 0
 306.518 647.391 382.788 669.151 520.025 687.824 c 2xf4
261.101 358.5 m 0
 247.216 358.5 236.558 356.045 230.516 353.839 c 1
 224.411 339.867 219.17 298.198 219 248.234 c 0
 218.801 169.799 230.143 97.9951 252.442 67.5342 c 0
 261.731 54.8467 278.045 49 299.861 49 c 0
 341.761 49 358 59.3193 358 172.516 c 0xf4
 358 335.885 319.24 358.5 261.101 358.5 c 0
EndSplineSet
EndChar
StartChar: seven
Encoding: 55 55 23
Width: 570
Flags: W
Validated: 1
HStem: 419 257<67.9365 76.3682 17 557.92 67.9365 67.9365> 504 172<100.013 372.404>
Fore
557.92 676 m 1x80
 294.182 -35 l 1
 143.149 -35 l 1
 372.404 504 l 1
 161.358 504 l 2x40
 112.574 504 96.1855 485.755 80.085 431.52 c 2
 76.3682 419 l 1
 17 419 l 1
 67.9365 676 l 1
 557.92 676 l 1x80
EndSplineSet
EndChar
StartChar: eight
Encoding: 56 56 24
Width: 570
Flags: W
Validated: 1
HStem: -13 67<218.518 347.326> 624 64<222.898 349.259>
VStem: 28 156<87.382 254.993> 39 168.463<498.467 592.856> 368 174<95.2001 220.726> 374 154<457.499 601.058>
Fore
155.979 328.755 m 1xe8
 74.0674 381.508 39 435.035 39 504.654 c 0
 39 614.662 136.201 688 303.168 688 c 0
 446.047 688 528 626.091 528 533.228 c 0xd4
 528 471.368 491.329 429.465 412.124 396.937 c 1
 502.99 335.983 542 275.415 542 194.157 c 0
 542 70.1426 440.683 -13 274.765 -13 c 0
 122.479 -13 28 57.7549 28 165.584 c 0
 28 235.64 66.5996 272.488 77.3574 282.354 c 0
 95.5029 298.998 113.07 312.533 155.979 328.755 c 1xe8
207.463 558.5 m 0
 207.463 506.812 265.209 460.799 340 427.09 c 1
 367.343 458.544 374 478.339 374 518.5 c 0
 374 567.75 357.998 624 288.349 624 c 0
 239.818 624 207.463 594.525 207.463 558.5 c 0
368 144.5 m 0xe8
 368 207.157 346.507 235.228 231.316 299.118 c 1
 194.514 252.962 184 226.181 184 178.5 c 0
 184 122.737 203.635 54 282.174 54 c 0
 350.834 54 368 104.825 368 144.5 c 0xe8
EndSplineSet
EndChar
StartChar: nine
Encoding: 57 57 25
Width: 570
Flags: W
Validated: 1
HStem: -15.6777 21G<31 50.9746> 236.5 80<175.56 303.112 291.832 314.392> 626 62<224.81 308.525>
VStem: 26 187<349.328 559.091> 31 512<320.984 573.117 398.937 443.959 40.9004 40.9004> 352 191<349.441 537.702>
Fore
340.292 320.719 m 1xf4
 340.505 322.026 340.757 324.098 341.419 328.969 c 2
 345.42 353.493 l 2
 349.427 396.056 352 425.7 352 450.428 c 0
 352 522.83 336.009 582.298 321.117 602.899 c 0
 310.807 617.162 297.454 626 271.139 626 c 0
 229.448 626 213 615.902 213 504.377 c 0
 213 345.291 249.087 316.5 303.216 316.5 c 0
 315.652 316.5 332.124 318.791 340.292 320.719 c 1xf4
50.9746 -12.8242 m 2
 31 -15.6777 l 1
 31 40.9004 l 1xe8
 45.0449 43.5459 l 2
 172.622 67.627 257.231 128.913 314.463 243.629 c 1
 289.02 238.561 261.673 236.5 229.707 236.5 c 0
 107.078 236.5 26 320.984 26 443.959 c 0xf0
 26 584.586 123.478 688 273.812 688 c 0
 443.2 688 543 573.117 543 398.937 c 0xe8
 543 273.198 486.697 166.176 380.051 89.4316 c 0
 282.226 31.6777 195.503 6.84082 50.9746 -12.8242 c 2
EndSplineSet
EndChar
StartChar: colon
Encoding: 58 58 26
Width: 333
Flags: HMW
Validated: 1
HStem: -13 169<143 189> 303 169<143 189.5 143 189.5>
Fore
268.5 70 m 0
 268.5 14.0225 222.099 -30.5 165 -30.5 c 0
 104.7 -30.5 64.5 18.0371 64.5 72 c 0
 64.5 126.888 109.938 173.5 166 173.5 c 0
 222.934 173.5 268.5 126.527 268.5 70 c 0
268.5 387 m 0
 268.5 331.17 222.594 285.5 166 285.5 c 0
 108.577 285.5 64.5 329.955 64.5 389 c 0
 64.5 443.997 110.241 489.5 166 489.5 c 0
 222.632 489.5 268.5 443.629 268.5 387 c 0
EndSplineSet
EndChar
StartChar: semicolon
Encoding: 59 59 27
Width: 333
Flags: W
Validated: 33
HStem: 285.5 204<99.0204 233.072>
VStem: 64.5 219<41.6028 125.334> 64.5 204<320.668 454.087>
Fore
268.5 387 m 0xa0
 268.5 331.17 222.594 285.5 166 285.5 c 0
 108.577 285.5 64.5 329.955 64.5 389 c 0
 64.5 443.997 110.241 489.5 166 489.5 c 0
 222.632 489.5 268.5 443.629 268.5 387 c 0xa0
92.6592 -204.449 m 1
 66.5645 -152.261 l 1
 79.0293 -143.618 l 2
 163.219 -85.2448 180.757 -48.7227 180.5 -25 c 0
 180.479 -23.0527 179.973 -22.1484 179.08 -21.3613 c 1
 174.448 -21.5 l 1
 162.448 -23.5 l 1
 153 -23.5 l 2
 139.941 -23.5 112.466 -15.835 96.584 -2.25781 c 0
 74.585 16.5488 64.5 42.1963 64.5 72 c 0
 64.5 131.044 104.7 172.5 165 172.5 c 0
 236.1 172.5 283.5 116.138 283.5 39 c 0xc0
 283.5 -54.6611 229.211 -125.579 108.753 -195.154 c 2
 92.6592 -204.449 l 1
EndSplineSet
EndChar
StartChar: less
Encoding: 60 60 28
Width: 570
Flags: HMW
Validated: 1
HStem: -12 20
Fore
556.5 -38.7939 m 1
 13.5 199.57 l 1
 13.5 306.43 l 1
 556.5 544.794 l 1
 556.5 410.57 l 1
 197.539 253 l 1
 556.5 95.4297 l 1
 556.5 -38.7939 l 1
EndSplineSet
EndChar
StartChar: equal
Encoding: 61 61 29
Width: 570
Flags: HMW
Validated: 1
HStem: 107 88<33 537 33 537> 311 88<33 537 33 537>
Fore
554.5 416.5 m 1
 554.5 293.5 l 1
 15.5 293.5 l 1
 15.5 416.5 l 1
 554.5 416.5 l 1
554.5 212.5 m 1
 554.5 89.5 l 1
 15.5 89.5 l 1
 15.5 212.5 l 1
 554.5 212.5 l 1
EndSplineSet
EndChar
StartChar: greater
Encoding: 62 62 30
Width: 570
Flags: HMW
Validated: 1
HStem: -12 20
Fore
13.5 -38.7939 m 1
 13.5 95.4297 l 1
 372.461 253 l 1
 13.5 410.57 l 1
 13.5 544.794 l 1
 556.5 306.43 l 1
 556.5 199.57 l 1
 13.5 -38.7939 l 1
EndSplineSet
EndChar
StartChar: question
Encoding: 63 63 31
Width: 500
Flags: W
Validated: 33
HStem: -30.5 204<172.701 305.441> 635.5 71<185.623 257.005>
VStem: 39.5 166<477.456 560.121> 136.5 204<2.93301 137.705> 206.628 63.872<213.5 229.836 231.221 316.599> 278.5 184<430.94 615.639>
Fore
270.5 213.5 m 1xec
 206.628 213.5 l 1
 205.539 229.836 l 2
 203.545 259.749 203.5 265.911 203.5 277 c 0
 203.5 308.906 213.172 335.981 237.519 382.158 c 0
 264.291 432.938 278.5 466.688 278.5 523 c 0
 278.5 574.65 265.199 635.854 212 635.5 c 0
 200.602 635.425 183.258 633.96 173.218 623.863 c 0
 171.662 622.299 168.391 618.902 168.5 613 c 0
 168.545 610.559 168.295 609.322 170.748 605.647 c 0
 172.178 603.504 174.945 600.222 178.95 595.77 c 0
 198.259 574.305 205.5 558.067 205.5 533 c 0
 205.5 486.112 173.3 451.5 125 451.5 c 0
 73.7002 451.5 39.5 494.244 39.5 545 c 0
 39.5 641.361 128.363 706.5 245 706.5 c 0
 374.354 706.5 462.5 633.1 462.5 523 c 0
 462.5 447.701 428.787 401.065 333.191 342.108 c 0
 277.392 307.694 270.5 300.155 270.5 231 c 2
 270.5 213.5 l 1xec
340.5 71 m 0xd0
 340.5 14.5664 295.427 -30.5 239 -30.5 c 0
 185.188 -30.5 136.5 10.5 136.5 72 c 0
 136.5 127.193 184.309 173.5 239 173.5 c 0
 295.099 173.5 340.5 126.689 340.5 71 c 0xd0
EndSplineSet
EndChar
StartChar: at
Encoding: 64 64 32
Width: 930
Flags: W
Validated: 1
HStem: -36.5 81<375.201 632.943> 125.5 72<634.649 697.763> 126.5 82<384.307 493.974> 453.637 82.863<497.503 542.81> 634.5 74<374.529 601.322>
VStem: 90.5 127<200.617 462.299> 301.5 112<229.104 377.644> 757.5 82<274.712 486.052>
Fore
588.609 508.762 m 1xbf
 592.663 523.5 l 1
 699.497 523.5 l 1
 628.062 242.131 l 2
 627.773 240.694 626.381 233.826 626.5 228 c 0
 626.616 222.347 626.646 215.503 629.539 208.292 c 0
 631.775 202.716 635.034 198.862 642.635 197.787 c 0
 643.499 197.665 642.437 197.5 647 197.5 c 0
 698.524 197.5 757.5 283.464 757.5 385 c 0
 757.5 517.883 633.762 634.5 486 634.5 c 0
 330.579 634.5 217.5 506.16 217.5 325 c 0
 217.5 159.712 334.399 44.5 499 44.5 c 0
 563.773 44.5 609.711 55.3613 690.803 91.9512 c 2
 707.881 99.6572 l 1
 732.989 32.0596 l 1
 718.498 25.1875 l 2
 620.841 -21.124 563.432 -36.5 487 -36.5 c 0
 265.11 -36.5 90.5 123.539 90.5 330 c 0
 90.5 541.083 266.051 708.5 485 708.5 c 0
 683.86 708.5 839.5 570.815 839.5 390 c 0
 839.5 244.867 743.215 125.5 633 125.5 c 0xdf
 587.255 125.5 549.928 147.8 531.936 183.259 c 1
 497.682 148.758 454.624 126.5 413 126.5 c 0
 347.933 126.5 301.5 187.145 301.5 259 c 0
 301.5 338.018 334.813 420.922 390.36 479.103 c 0
 425.178 515.571 472.928 536.5 522 536.5 c 0
 550.752 536.5 570.248 530.757 588.609 508.762 c 1xbf
533.7 453.549 m 0
 533.281 453.578 531.924 453.637 531.503 453.637 c 0
 516.03 453.637 488.5 439.8 461.192 408.505 c 0
 430.796 373.669 413.5 327.146 413.5 277 c 0
 413.5 248.562 421.8 208.5 455 208.5 c 0xbf
 474.603 208.5 500.095 225.314 521.423 266.975 c 0
 547.269 317.46 558.252 378.595 559.521 406.837 c 0
 559.609 408.832 559.677 410.923 559.677 412.76 c 0
 559.677 445.076 546.428 452.666 533.7 453.549 c 0
EndSplineSet
EndChar
StartChar: A
Encoding: 65 65 33
Width: 792
Flags: W
Validated: 33
HStem: 0 25<9 69.6301 202.114 254.705 382.377 417.184 417.184 457.783 697.631 759> 179.5 74<238.511 393.495> 670 20G<340.963 414.266>
Fore
759 25 m 1
 759 0 l 1
 382.377 0 l 1
 382.377 25 l 1
 398.634 25 l 2
 413.448 27.2031 427.938 28.3145 435.395 28.5605 c 0
 439.83 28.708 449.291 29.3291 458.201 32.2295 c 0
 468.476 35.5742 468.934 39.4365 468.934 46.0342 c 0
 468.934 72.5664 443.727 136.031 425.679 179.5 c 1
 207.659 179.5 l 1
 196.086 148.144 l 2
 170.268 78.9688 165.765 58.7568 165.984 51.5391 c 0
 166.196 44.5391 166.992 41.6963 174.9 37.3262 c 0
 185.583 31.4238 205.486 27.2295 237.051 25 c 2
 254.705 25 l 1
 254.705 0 l 1
 9 0 l 1
 9 25 l 1
 23.2754 25 l 2
 63.8398 32.6025 72.1641 42.9727 108.29 131.347 c 2
 349.602 690 l 1
 405.195 690 l 1
 648.612 153.329 l 2
 697.918 36.9678 710.074 25 737.5 25 c 2
 759 25 l 1
313.221 432.001 m 1
 238.511 253.5 l 1
 393.495 253.5 l 1
 313.221 432.001 l 1
EndSplineSet
EndChar
StartChar: B
Encoding: 66 66 34
Width: 737
Flags: W
Validated: 1
HStem: 0 25<16 100.08> 0 49.5<300.724 440.251> 325.5 65.637<299 421.277> 628.5 47.5<315.231 424.026> 651 25<16 99.9958>
VStem: 104 195<51.9515 81.7666 81.7666 325.5 391.137 615.496> 455 200<425.947 588.469> 482 207<109.883 251.006>
Fore
16 676 m 1xad
 355.083 676 l 2
 550.326 676 655 618.135 655 507.237 c 0x36
 655 440.281 621.478 398.101 539.448 366.067 c 1
 570.489 356.579 600.063 343.272 628.996 319.168 c 0
 688.157 269.881 689 210.774 689 195.384 c 0
 689 78.1533 569.6 0 368.861 0 c 2x75
 16 0 l 1
 16 25 l 1
 31.5938 25 l 2
 97.7246 32.6758 104 40.6123 104 81.7666 c 2
 104 594.313 l 2
 104 634.887 94.9551 647.165 32.4873 651 c 2
 16 651 l 1
 16 676 l 1xad
314.456 325.5 m 2
 299 325.5 l 1
 299 93 l 2
 299 58.1992 311.912 49.5 352.787 49.5 c 0
 430.315 49.5 482 81.9316 482 179 c 0x65
 482 291.119 414.982 325.5 314.456 325.5 c 2
299 597 m 2
 299 391.137 l 1
 427.469 395.989 455 421.224 455 509 c 0
 455 604.6 411.423 628.5 346.058 628.5 c 0x36
 331.55 628.5 321.163 627.16 314.936 625.322 c 0
 307.092 623.008 304.202 619.643 302.325 615.82 c 0
 298.944 608.903 299.215 601.713 299 597 c 2
EndSplineSet
EndChar
StartChar: C
Encoding: 67 67 35
Width: 792
Flags: W
Validated: 33
HStem: -19 83<361.961 543.826> 623 68<357.074 515.945>
VStem: 49 212<198.758 467.465>
Fore
708.117 193.433 m 1
 764.669 146.306 l 1
 752.508 132.793 l 2
 707.328 82.5928 683.636 60.5957 650.341 38.0293 c 0
 582.596 -5.37402 510.609 -19 437.694 -19 c 0
 202.599 -19 49 128.486 49 333.141 c 0
 49 536.946 206.027 691 431.048 691 c 0
 487.267 691 543.867 679.572 610.421 654.57 c 0
 626.348 648.357 642.75 641.835 650.5 642 c 0
 655.244 642.101 658.067 642.099 662.926 647.79 c 0
 664.655 649.815 669.852 655.999 678.252 676.999 c 2
 682.652 688 l 1
 739 688 l 1
 739 419 l 1
 685.293 419 l 1
 680.604 429.18 l 2
 641.483 514.128 618.016 540.655 579.856 571.462 c 0
 534.879 607.771 492.392 623 445.449 623 c 0
 297.89 623 261 479.963 261 341.147 c 0
 261 248.496 276.228 183.502 306.219 137.368 c 0
 334.105 94.4688 396.971 64 464.282 64 c 0
 492.562 64 527.17 70.1279 556.773 80.7432 c 0
 608.041 99.127 638.142 119.898 696.822 181.563 c 2
 708.117 193.433 l 1
EndSplineSet
EndChar
StartChar: D
Encoding: 68 68 36
Width: 792
Flags: W
Validated: 33
HStem: 0 25<14 92.3127> 0 70<309.055 445.964> 607 69<306.147 438.598> 651 25<14 93.1511>
VStem: 97 197<82.21 599.11> 551 209<210.999 433.878>
Fore
97 76.376 m 2x8c
 97 598.495 l 2
 97 633.877 88.0625 645.223 29.8662 651 c 2
 14 651 l 1
 14 676 l 1x9c
 343.2 676 l 2
 613.094 676 760 549.098 760 344.655 c 0
 760 139.507 609.032 0 355.935 0 c 2x6c
 14 0 l 1
 14 25 l 1
 30.8965 25 l 2
 86.1621 27.0186 97 46.0996 97 76.376 c 2x8c
294 590.57 m 2
 294 108.021 l 2
 294 93.666 295.72 86.7236 298.004 81.9863 c 0
 300.579 76.6475 304.271 74.6777 308.78 73.2471 c 0
 314.622 71.3945 321.797 70.0752 340.885 70 c 0
 409.614 69.7295 459.325 88.5605 494.66 127.992 c 0
 522.45 159.005 551 230.292 551 330.521 c 0
 551 368.459 546.75 453.923 505.683 520.311 c 0
 470.011 577.976 418.921 607 342.043 607 c 0x6c
 323.984 607 312.126 604.882 305.512 602.66 c 0
 292.936 598.377 294.26 593.119 294 590.57 c 2
EndSplineSet
EndChar
StartChar: E
Encoding: 69 69 37
Width: 737
Flags: W
Validated: 33
HStem: 0 24.2949<16 100.215> 0 62.751<324.09 444.866> 312.454 66.131<301 398.131> 610.396 65.604<315.525 531.789> 651.398 24.602<16 99.5107>
VStem: 104 197<77.8316 312.454 378.585 594.068>
Fore
16 676 m 1xac
 663 676 l 1xac
 663 451.617 l 1
 605.983 451.617 l 1
 603.301 465.183 l 2
 580.487 580.544 536.829 610.659 355.584 610.396 c 0
 329.844 610.359 322.83 609.28 315.166 607.476 c 0
 306.236 605.373 303.492 603.304 301.864 594.214 c 0
 301.309 591.113 301 587.139 301 582.349 c 2
 301 378.585 l 1
 397.893 381.22 432.051 410.904 447.112 505.605 c 2
 449.412 520.073 l 1
 517.038 520.073 l 1
 517.038 165.435 l 1
 448.913 165.435 l 1
 447.047 180.361 l 2
 435.024 276.528 399.161 308.844 301 312.454 c 1
 301 99.3555 l 2
 301.524 84.1631 303.513 79.9268 306.328 76.2002 c 0
 307.428 74.7441 308.635 73.583 310.25 72.4473 c 0
 319.075 66.2441 337.932 62.751 376.268 62.751 c 0
 443.383 62.751 509.702 71.2725 567.055 109.464 c 0
 601.455 135.427 618.849 158.166 649.617 221.387 c 2
 654.314 231.038 l 1
 714.686 231.038 l 1
 667.955 0 l 1x74
 16 0 l 1
 16 24.2949 l 1
 31.6191 25 l 2
 98.3418 32.6396 104 39.4395 104 81.7637 c 2
 104 594.313 l 2
 104 634.887 94.9551 647.164 32.4873 651 c 2
 16 651.398 l 1
 16 676 l 1xac
EndSplineSet
EndChar
StartChar: F
Encoding: 70 70 38
Width: 681
Flags: W
Validated: 33
HStem: 0 25<16 100.651 304.745 433.254> 293.255 70.154<301 392.456> 607 69<315.254 440.466> 651 25<16 100.042>
VStem: 104 197<34.6933 293.255 363.409 589.878>
Fore
653 676 m 1xd8
 653 440 l 1
 597.462 440 l 1
 594.417 453.704 l 2
 580.491 516.37 570.815 538.929 551.381 560.918 c 0
 512.574 604.826 406.328 607.236 356.908 607 c 0xe8
 330.529 606.874 322.737 605.663 314.886 603.551 c 0
 306.179 601.207 303.474 597.962 301.962 589.994 c 0
 301.494 587.532 301 583.654 301 577.501 c 2
 301 363.409 l 1
 392.902 367.168 424.336 398.232 443.13 497.232 c 2
 445.934 512.003 l 1
 514 512.003 l 1
 514 139.014 l 1
 445.26 139.014 l 1
 443.024 154.416 l 2
 428.209 256.511 393.646 287.979 301 293.255 c 1
 301 78.5146 l 2
 301 38.1914 308.329 28.79 413.127 25 c 2
 433.254 25 l 1
 433.254 0 l 1
 16 0 l 1
 16 25 l 1
 31.6191 25 l 2
 98.3418 32.6396 104 39.4395 104 81.7637 c 2
 104 594.313 l 2
 104 635.673 95.1846 647.15 32.4873 651 c 2
 16 651 l 1
 16 676 l 1
 653 676 l 1xd8
EndSplineSet
EndChar
StartChar: G
Encoding: 71 71 39
Width: 848
Flags: W
Validated: 33
HStem: -19 68<352.657 540.603> 245.488 59.012<433.61 545.354 809.356 825> 623 68<347.458 508.526>
VStem: 37 212<197.019 466.5> 548 191<57.7204 236.958>
Fore
825 304.5 m 1
 825 246.268 l 1
 809.356 244.599 l 2
 745.556 238.217 739 233.846 739 174.645 c 2
 739 46.209 l 1
 730.435 41.4395 l 2
 661.964 3.31641 547.799 -19 431.911 -19 c 0
 189.864 -19 37 126.575 37 331.235 c 0
 37 536.863 194.008 691 422.85 691 c 0
 480.327 691 538.193 679.572 599.418 654.57 c 0
 614.348 648.357 630.75 641.835 638.5 642 c 0
 643.244 642.101 646.067 642.099 650.926 647.79 c 0
 652.655 649.815 657.852 655.999 666.252 676.999 c 2
 670.652 688 l 1
 727 688 l 1
 727 419 l 1
 673.293 419 l 1
 668.604 429.18 l 2
 633.834 504.683 613.438 535.063 571.986 571.321 c 0
 537.444 600.455 492.645 623 437.574 623 c 0
 286.715 623 249 480.007 249 337.885 c 0
 249 226.548 273.255 149.417 318.451 101.059 c 0
 352.701 64.4141 394.853 49 459.093 49 c 0
 534.147 49 548 69.377 548 99.9404 c 2
 548 196.315 l 2
 548 233.333 542.52 240.278 452.28 244.529 c 2
 433.61 245.488 l 1
 433.61 304.5 l 1
 825 304.5 l 1
EndSplineSet
EndChar
StartChar: H
Encoding: 72 72 40
Width: 848
Flags: W
Validated: 1
HStem: 0 25<21 101.634 308.536 408.291 438.709 538.442 745.51 829> 308.5 82<303 544> 651 25<21 101.696 308.433 408.291 438.709 537.962 745.658 829>
VStem: 106 197<36.3377 81.7988 81.7988 308.5 390.5 641.07> 544 197<36.2456 308.5 390.5 640.701>
Fore
544 308.5 m 1
 303 308.5 l 1
 303 82.1084 l 2
 303 43.2637 311.596 32.8301 390.048 25 c 2
 408.291 25 l 1
 408.291 0 l 1
 21 0 l 1
 21 25 l 1
 36.2686 25 l 2
 99.4092 33.5957 106 42.3135 106 81.7988 c 2
 106 594.278 l 2
 106 634.24 97.4082 645.267 36.9395 651 c 2
 21 651 l 1
 21 676 l 1
 408.291 676 l 1
 408.291 651 l 1
 389.277 651 l 2
 313.99 646.073 303 633.173 303 593.609 c 2
 303 390.5 l 1
 544 390.5 l 1
 544 593.609 l 2
 544 633.107 533.108 646.065 457.723 651 c 2
 438.709 651 l 1
 438.709 676 l 1
 829 676 l 1
 829 651 l 1
 812.783 651 l 2
 750.78 646.173 741 633.725 741 594.3 c 2
 741 81.7939 l 2
 741 42.9863 747.696 33.7314 813.671 25 c 2
 829 25 l 1
 829 0 l 1
 438.709 0 l 1
 438.709 25 l 1
 456.952 25 l 2
 535.306 32.8193 544 43.1963 544 82.1084 c 2
 544 308.5 l 1
EndSplineSet
EndChar
StartChar: I
Encoding: 73 73 41
Width: 424
Flags: W
Validated: 1
HStem: 0 25<20 108.124 314.51 405> 651 25<20 108.217 314.289 405>
VStem: 113 197<34.4943 642.41>
Fore
113 81.7373 m 2
 113 594.299 l 2
 113 633.785 103.447 646.061 36.2881 651 c 2
 20 651 l 1
 20 676 l 1
 405 676 l 1
 405 651 l 1
 388.209 651 l 2
 319.445 648.047 310 634.68 310 594.321 c 2
 310 81.7041 l 2
 310 41.0566 317.981 29.9248 388.648 25 c 2
 405 25 l 1
 405 0 l 1
 20 0 l 1
 20 25 l 1
 35.874 25 l 2
 105.508 31.8838 113 42.7637 113 81.7373 c 2
EndSplineSet
EndChar
StartChar: J
Encoding: 74 74 42
Width: 570
Flags: W
Validated: 1
HStem: -96 68<160.502 251.072> 651 25<127 257.286 465.52 549>
VStem: 3 178<25.5203 113.409> 263 197<16.8646 41.499 41.499 639.915>
Fore
460 576.465 m 2
 460 140.487 l 2
 460 -14.7168 375.487 -96 202.809 -96 c 0
 170.641 -96 118.094 -92.8877 78.9072 -70.7412 c 0
 35.4697 -46.1934 3 4.58984 3 53.5 c 0
 3 99.3213 42.71 143 90.5 143 c 0
 140.092 143 181 99.2295 181 50.5 c 0
 181 32.9941 177.958 21.4102 162.333 1.78418 c 0
 161.578 0.835938 158.034 -3.77637 155.71 -7.9873 c 0
 154.2 -10.7236 153.909 -11.9023 154 -13.5 c 0
 154.113 -15.5029 153.764 -21.2959 164.939 -25.4072 c 0
 171.11 -27.6777 177.744 -28 181.872 -28 c 0
 230.55 -28 263 -18.75 263 41.499 c 2
 263 597.489 l 2
 263 637.04 249.034 648.18 143.853 651 c 2
 127 651 l 1
 127 676 l 1
 549 676 l 1
 549 651 l 1
 532.664 651 l 2
 468.65 646.732 460 639.067 460 576.465 c 2
EndSplineSet
EndChar
StartChar: K
Encoding: 75 75 43
Width: 848
Flags: W
Validated: 1
HStem: 0 25<30 113.094 319.079 425.158 464.316 500.835 500.835 545.756 798.714 839> 651.398 24.602<30 113.184 321.261 426.421 482 531.955 698.489 806>
VStem: 117 197<36.0462 266.898 404.856 641.127>
Fore
822.199 25 m 2
 839 25 l 1
 839 0 l 1
 464.316 0 l 1
 464.316 24.5166 l 1
 484.253 25 l 2
 498.975 26.0508 511.902 25.6943 516.971 26.0293 c 0
 541.209 27.6309 544.995 29.6318 546.829 30.7861 c 1
 546.665 31.8027 546.3 33.1035 545.438 34.9727 c 0
 542.751 40.7969 536.878 48.9258 526.812 61.6406 c 2
 323.602 273.938 l 1
 314 266.898 l 1
 314 78.5449 l 2
 314 41.958 322.46 33.2363 405.795 25 c 2
 425.158 24.1992 l 1
 425.158 0 l 1
 30 0 l 1
 30 24.2783 l 1
 45.5674 25 l 2
 110.628 32.6562 117 40.5254 117 81.7686 c 2
 117 594.313 l 2
 117 635.978 108.737 647.178 46.4873 651 c 2
 30 651.398 l 1
 30 676 l 1
 426.421 676 l 1
 426.421 651.46 l 1
 405.806 651 l 2
 326.088 646.736 314 638.184 314 576.47 c 2
 314 404.856 l 1
 536.111 592.83 l 2
 551.416 608.29 561.098 618.24 565.021 625.794 c 0
 566.222 628.104 566.618 629.954 566.796 631.409 c 0
 566.925 632.469 567.092 633.785 567 635.47 c 0
 566.745 640.137 567.919 642.643 555.456 645.468 c 0
 550.395 646.615 543.382 647.505 534.529 647.997 c 2
 533.288 648.065 l 1
 532.068 648.31 l 2
 529.798 648.764 518.448 649.825 498.473 651 c 2
 482 651.404 l 1
 482 676 l 1
 806 676 l 1
 806 651.553 l 1
 789.938 651 l 2
 699.902 643.136 666.47 619.394 490.848 427.927 c 1
 785.922 40.6104 l 2
 795.145 29.3398 799.99 25.9404 822.199 25 c 2
EndSplineSet
EndChar
StartChar: L
Encoding: 76 76 44
Width: 737
Flags: W
Validated: 1
HStem: 0 65.998<324.772 520.93> 0 25<19 101.365> 651 25<19 101.154 308.631 418.34>
VStem: 105 197<81.787 81.792 81.792 642.055>
Fore
711.444 261.992 m 1xb0
 664.122 0 l 1
 19 0 l 1
 19 25 l 1
 34.3584 25 l 2x70
 99.749 33.5381 105 40.0381 105 81.792 c 2
 105 594.315 l 2
 105 635.252 96.4414 647.202 35.4727 651 c 2
 19 651 l 1
 19 676 l 1
 418.34 676 l 1
 418.34 651 l 1
 399.108 651 l 2
 310.556 647.466 302 640.367 302 576.483 c 2
 302 104.497 l 2
 302.54 88.5547 304.654 83.5586 307.6 79.6064 c 0
 308.749 78.0645 310.015 76.833 311.722 75.627 c 0
 320.3 69.5654 337.363 65.998 373.993 65.998 c 0
 459.781 65.998 518.339 82.9277 560.866 116.451 c 0
 594.827 146.499 612.541 173.687 645.383 251.312 c 2
 649.902 261.992 l 1
 711.444 261.992 l 1xb0
EndSplineSet
EndChar
StartChar: M
Encoding: 77 77 45
Width: 1049
Flags: W
Validated: 1
HStem: 0 25<14 99.9779 192.846 298.858 645.019 743.933 943.924 1026> 651 25<16 101.408 909.285 991>
VStem: 105 77<38.7699 490.488>
Fore
748 82.5762 m 2
 713 503.516 l 1
 490.197 0 l 1
 439.914 0 l 1
 182 490.488 l 1
 182 106.547 l 2
 182 42.5303 196.524 30.2852 280.088 25 c 2
 298.858 25 l 1
 298.858 0 l 1
 14 0 l 1
 14 25 l 1
 29.7148 25 l 2
 98.8447 32.5088 105 39.3613 105 91.2812 c 2
 105 594.284 l 2
 105 636.135 98.2148 645.243 32.0664 651 c 2
 16 651 l 1
 16 676 l 1
 306.283 676 l 1
 526.417 231.354 l 1
 709.691 676 l 1
 991 676 l 1
 991 651 l 1
 974.695 651 l 2
 912.496 646.488 903 638.32 903 572.069 c 2
 938 104.037 l 2
 938 38.2471 943.698 34.0986 1010.73 25 c 2
 1026 25 l 1
 1026 0 l 1
 645.019 0 l 1
 645.019 25 l 1
 663.387 25 l 2
 740.63 31.2314 748 38.0879 748 82.5762 c 2
EndSplineSet
EndChar
StartChar: N
Encoding: 78 78 46
Width: 792
Flags: W
Validated: 5
HStem: 0 24.209<16 31.3584 194.564 286.396> 651 25<19 38.2227 38.2227 71.9354 512.78 603.254 756.161 771>
VStem: 104 79<38.9408 459.756> 614 79<313.664 638.015>
Fore
262.26 676 m 1
 614 313.664 l 1
 614 569.422 l 2
 614 631.372 599.611 644.952 530.033 651 c 2
 512.78 651.625 l 1
 512.78 676 l 1
 771 676 l 1
 771 651.955 l 1
 756.161 651 l 2
 700.424 642.427 693 635.931 693 588.316 c 2
 693 -18 l 1
 639.229 -18 l 1
 183 459.756 l 1
 183 106.618 l 2
 183 44.791 196.359 32.8633 269.561 25 c 2
 286.396 24.2451 l 1
 286.396 0 l 1
 16 0 l 1
 16 24.209 l 1
 31.3584 25 l 2
 96.166 33.4707 104 42.4033 104 91.3994 c 2
 104 587.1 l 1
 69.3145 630.296 52.7168 647.646 41.4219 651 c 0
 40.3242 651 39.3164 651 38.2227 651 c 2
 38.2227 651 39.5693 651 36.5 651 c 2
 19 651 l 1
 19 676 l 1
 262.26 676 l 1
EndSplineSet
EndChar
StartChar: O
Encoding: 79 79 47
Width: 848
Flags: W
Validated: 1
HStem: -19 68<338.472 509.538> 623 68<340.846 510.061>
VStem: 35 212<198.577 470.487> 601 212<199.598 470.08>
Fore
428.439 691 m 0
 655.661 691 813 539.896 813 336 c 0
 813 128.82 657.247 -19 424 -19 c 0
 190.825 -19 35 127.292 35 335.047 c 0
 35 541.635 191.129 691 428.439 691 c 0
427.329 623 m 0
 283.066 623 247 470.033 247 326.574 c 0
 247 192.524 282.4 49 424 49 c 0
 565.6 49 601 192.812 601 329.402 c 0
 601 523.836 531.26 623 427.329 623 c 0
EndSplineSet
EndChar
StartChar: P
Encoding: 80 80 48
Width: 681
Flags: W
Validated: 1
HStem: 0 25<16 53.7471 303.493 408.511> 268.233 69.936<297 421.571> 606 70<309.981 423.347> 651 25<16 93.3659>
VStem: 100 197<35.5128 268.233 338.169 598.353> 463 207<379.972 571.194>
Fore
297 268.233 m 1xec
 297 99.623 l 2
 297 35.6445 303.201 33.5811 389.12 25 c 2
 408.511 25 l 1
 408.511 0 l 1
 16 0 l 1
 16 25 l 1
 30.3691 25 l 2
 41.126 27.0703 50.4434 28.7744 56.0039 29.4824 c 0
 89.2812 33.7197 100 43.3662 100 104.165 c 2
 100 572.066 l 2
 100 637.175 90.7461 645.671 32.0059 651 c 2
 16 651 l 1
 16 676 l 1xdc
 371.13 676 l 2
 565.208 676 670 604.545 670 476.543 c 0
 670 392.539 621.958 325.775 533.94 291.312 c 0
 488.471 273.507 449.712 269.379 297 268.233 c 1xec
297 588.5 m 2
 297 338.169 l 1
 370.158 339.347 401.24 346.273 422.578 360.775 c 0
 448.616 378.471 463 410.207 463 471.5 c 0
 463 586.103 413.073 606 338.183 606 c 0xec
 325.417 606 315.812 604.629 309.692 602.784 c 0
 295.743 598.479 297.261 591.156 297 588.5 c 2
EndSplineSet
EndChar
StartChar: Q
Encoding: 81 81 49
Width: 848
Flags: W
Validated: 1
HStem: -176 82<568.185 764.73> 623 68<341.346 506.435>
VStem: 35 212<198.056 467.744> 601 212<197.664 469.368>
Fore
795.107 -77.7754 m 1
 809.315 -134.606 l 1
 794.428 -139.966 l 2
 718.662 -167.241 672.101 -176 609.5 -176 c 0
 508.121 -176 410.107 -142.729 343.685 -82.874 c 0
 317.923 -59.6592 302.734 -38.4844 281.167 1.55566 c 1
 201.838 28.6777 169.959 49.3047 128.484 93.1514 c 0
 67.6523 157.466 35 241.371 35 331.738 c 0
 35 539.074 193.392 691 424 691 c 0
 656.351 691 813 542.426 813 334.585 c 0
 813 247.854 784.604 158.604 714.272 87.1758 c 0
 673.074 45.3359 639.544 24.7598 563.513 1.2334 c 1
 577.001 -22.0928 585.872 -32.6191 601.874 -47.126 c 0
 632.579 -77.8311 672.962 -94 715.5 -94 c 0
 732.396 -94 746.026 -91.5791 777.762 -82.6533 c 2
 795.107 -77.7754 l 1
425.11 623 m 0
 282.622 623 247 457.362 247 313.5 c 0
 247 164.292 282.4 14 424 14 c 0
 565.6 14 601 167.182 601 312.5 c 0
 601 518.221 531.609 623 425.11 623 c 0
EndSplineSet
EndChar
StartChar: R
Encoding: 82 82 50
Width: 792
Flags: W
Validated: 1
HStem: 0 25<26 108.108 318.658 413.873 749.112 785> 607 69<323.843 450.248> 651 25<26 107.919>
VStem: 114 197<36.0826 104.014 104.014 295.5 345.37 597.252> 494 206<385.484 570.201>
Fore
785 25 m 1xd8
 785 0 l 1
 553.093 0 l 1
 311.108 295.5 l 1
 311 295.5 l 1
 311 104.76 l 2
 311 38.3682 317.661 34.1816 396.017 25 c 2
 413.873 25 l 1
 413.873 0 l 1
 26 0 l 1
 26 25 l 1
 41.4941 25 l 2
 108.371 33.1719 114 36.3691 114 104.014 c 2
 114 572.066 l 2
 114 638.474 105.273 646.495 42.3203 651 c 2
 26 651 l 1
 26 676 l 1xb8
 378.389 676 l 2
 655.068 676 700 558.7 700 480.5 c 0
 700 431.416 682.576 386.032 649.29 355.569 c 0
 626.147 334.389 605.118 320.598 553.341 302.388 c 1
 740.586 36.8779 l 2
 747.582 27.7842 755.877 25 767.5 25 c 2
 785 25 l 1xd8
311 582.5 m 2
 311 345.37 l 1
 388.372 347.221 421.445 354.302 445.667 367.139 c 0
 484.014 387.462 494 428.117 494 476.5 c 0
 494 567.484 461.512 607 356.132 607 c 0xd8
 339.894 607 329.604 605.456 323.556 603.73 c 0
 318.595 602.315 317.529 601.66 316.971 601.085 c 1
 314.819 597.605 311 586.335 311 582.5 c 2
EndSplineSet
EndChar
StartChar: S
Encoding: 83 83 51
Width: 626
Flags: W
Validated: 33
HStem: -19 68<217.629 392.597> 625 66<211.188 343.278>
VStem: 35 548<68.292 263 -19 197.722 -19 -19> 44 144<443.547 587.085> 427.38 155.62<98.8379 234.264>
Fore
554 440 m 1xd8
 495.575 440 l 1
 491.773 452.354 l 2
 472.973 513.457 458.381 540.95 423.838 574.301 c 0
 368.735 623.069 314.572 625 295.488 625 c 0
 228.848 625 188 597.124 188 546.753 c 0xd8
 188 509.835 207.036 490.462 296.378 454.451 c 2
 463.305 385.196 l 2
 532.916 352.185 583 275.572 583 197.722 c 0
 583 68.292 474.748 -19 297.812 -19 c 0
 245.565 -19 199.743 -11.2959 147.03 5.87793 c 0
 136.463 9.43066 118.636 15.2031 111.5 15 c 0
 107.271 14.8799 105.905 15.3896 102.587 7.54297 c 0
 101.269 4.42773 99.8662 0.0390625 98.5166 -5.58398 c 2
 95.2969 -19 l 1
 35 -19 l 1
 35 263 l 1xe0
 95.2588 263 l 1
 98.5059 249.63 l 2
 115.363 180.215 127.275 150.722 153.482 116.021 c 0
 187.124 71.4746 239.85 49 301.299 49 c 0
 378.633 49 427.38 83.8203 427.38 140.511 c 0
 427.38 180.039 408.653 200.442 308.805 239.332 c 2
 230.936 269.682 l 2
 101.481 325.764 44 390.758 44 481.899 c 0
 44 609.524 133.647 691 295.488 691 c 0
 341.886 691 382.63 684.581 438.199 668.006 c 0
 455.792 661.947 467.299 657.787 474.5 658 c 0
 480.475 658.177 481.827 657.127 486.104 668.074 c 0
 487.229 670.957 488.408 674.618 489.602 679.05 c 2
 493.088 692 l 1
 554 692 l 1
 554 440 l 1xd8
EndSplineSet
EndChar
StartChar: T
Encoding: 84 84 52
Width: 772
Flags: W
Validated: 1
HStem: 0 25<156.263 280.829 491.872 618.263> 656 20G<34.223 739.289>
VStem: 288.263 197<36.4894 608.081>
Fore
288.263 99.5508 m 2
 288.263 608.081 l 1
 146.252 600.306 109.31 554.598 95.0869 455.045 c 2
 92.9404 440.021 l 1
 31 440.021 l 1
 34.5215 676 l 1
 739.09 676 l 1
 741.438 440.015 l 1
 679.585 440.015 l 1
 677.438 455.039 l 2
 662.103 562.386 618.256 601.055 485.263 608.086 c 1
 485.263 99.5361 l 2
 485.263 34.0801 493.295 30.2529 601.967 25 c 2
 618.263 25 l 1
 618.263 0 l 1
 156.263 0 l 1
 156.263 25 l 1
 172.343 25 l 2
 279.989 31.1201 288.263 35.7002 288.263 99.5508 c 2
EndSplineSet
EndChar
StartChar: U
Encoding: 85 85 53
Width: 792
Flags: W
Validated: 1
HStem: -19 84<342.823 544.133> 651 25<16 93.0273 328.751 400.829 504.049 602.415 698.708 771>
VStem: 98 194<119.886 242.466 242.466 618.401> 614 79<139.121 637.761>
Fore
693 583.312 m 2
 693 264.411 l 2
 693 170.866 667.002 87.7354 615.853 44.1631 c 0
 562.585 3.54688 480.422 -19 393.537 -19 c 0
 308.468 -19 239.061 -0.237305 187.226 37.3262 c 0
 122.417 84.293 98 137.85 98 242.466 c 2
 98 576.423 l 2
 98 639.93 90.3525 645.142 31.7588 651 c 2
 16 651 l 1
 16 676 l 1
 400.829 676 l 1
 400.829 651 l 1
 382.012 651 l 2
 335.857 649.285 318.657 647.05 308.91 639.365 c 0
 298.201 630.925 292 615.342 292 576.486 c 2
 292 242.495 l 2
 292 98.8301 350.117 65 437.293 65 c 0
 543.317 65 614 109.326 614 264.482 c 2
 614 569.455 l 2
 614 632.657 598.805 645.746 522.177 651 c 2
 504.049 651 l 1
 504.049 676 l 1
 771 676 l 1
 771 651 l 1
 756.201 651 l 2
 702.007 642.535 693 633.774 693 583.312 c 2
EndSplineSet
EndChar
StartChar: V
Encoding: 86 86 54
Width: 792
Flags: W
Validated: 33
HStem: -18 21G<374.241 447.458> 651 25<16 84.3451 393.143 411.223 523 539.271 701.389 771>
Fore
771 676 m 1
 771 651 l 1
 755.835 651 l 2
 712.421 645.157 702.307 638.12 679.816 580.033 c 2
 439.418 -18 l 1
 383.498 -18 l 1
 101.488 591.286 l 2
 79.3955 639.879 75.6484 644.762 31.0732 651 c 2
 16 651 l 1
 16 676 l 1
 411.223 676 l 1
 411.223 651 l 1
 393.143 651 l 2
 380.149 636.711 363.301 617.824 355.843 614.012 c 0
 351.104 613.879 338.587 613.309 327.895 609.891 c 0
 320.687 607.587 316.046 605.598 316.046 595.5 c 0
 316.046 584.899 318.812 575.595 340.003 530.245 c 2
 474.248 236.664 l 1
 590.2 524.868 l 2
 607.311 568.146 609.134 576.613 609 589.5 c 0
 608.938 595.389 608.915 593.194 608.848 594.114 c 0
 608.454 599.516 608.506 604.171 597.621 607.906 c 0
 586.682 627.788 567.671 640.407 539.271 651 c 2
 523 651 l 1
 523 676 l 1
 771 676 l 1
EndSplineSet
EndChar
StartChar: W
Encoding: 87 87 55
Width: 1070
Flags: W
Validated: 33
HStem: -15 21G<298.064 366.597 709.012 779.502> 651 25<19 78.398 300.488 348 390.027 468.649 748.198 763.956 834 850.529 993.441 1051>
Fore
1051 676 m 1
 1051 651 l 1
 1035.08 651 l 2
 1011.81 648.884 992.934 635.3 981.125 598.971 c 2
 772.713 -15 l 1
 716.738 -15 l 1
 544.999 429.563 l 1
 358.193 -15 l 1
 305.109 -15 l 1
 88.9805 598.563 l 2
 73.9893 641.762 68.9736 646.009 34.0254 651 c 2
 19 651 l 1
 19 676 l 1
 348 676 l 1
 348 651 l 1
 331.842 651 l 2
 309.377 648.976 301.469 647.512 294.451 645.028 c 0
 287.583 642.585 284.96 641.179 284.188 631.649 c 0
 284.104 630.619 284 631.763 284 626.479 c 0
 284 620.495 285.193 614.728 290.162 598.829 c 2
 398.363 281.622 l 1
 504.056 537.632 l 1
 469.042 626.837 l 2
 460.766 643.595 446.002 649.278 407.966 651 c 2
 390.027 651 l 1
 390.027 676 l 1
 763.956 676 l 1
 763.956 651 l 1
 748.198 651 l 2
 740.195 614.415 734.07 619.926 731.731 615.021 c 0
 711.196 613.562 704.636 612.119 698.129 610.164 c 0
 689.785 607.657 686.368 605.413 686.368 596.5 c 0
 686.368 586.344 698.836 550.945 700.573 545.787 c 2
 799.119 261.28 l 1
 896.942 553.159 l 2
 901.105 564.818 903.158 578.285 903 589.5 c 0
 902.91 595.897 902.769 595.275 902.573 596.7 c 0
 901.283 606.125 896.021 607.964 892.916 609.271 c 0
 885.23 629.246 872.129 643.588 850.529 651 c 2
 834 651 l 1
 834 676 l 1
 1051 676 l 1
EndSplineSet
EndChar
StartChar: X
Encoding: 88 88 56
Width: 792
Flags: W
Validated: 33
HStem: 0 25<16 99.7396 285.213 301 366.024 384.139 708.252 769> 614.014 61.986<351.626 373.904 507.236 533.598> 651 25<17 80.276 409.665 427.964 473 488.567 667.238 758>
Fore
758 676 m 1xa0
 758 651 l 1
 742.148 651 l 2
 673.39 644.111 651.222 626.06 566.654 503.93 c 2
 493.667 396.677 l 1
 669.14 107.708 l 2
 714.54 35.584 725.235 25.835 752.015 25 c 2
 769 25 l 1
 769 0 l 1
 366.024 0 l 1
 366.024 25 l 1
 384.139 25 l 2
 397.29 41.3828 409.9 58.6348 416.475 61.9854 c 0
 420.522 62.0996 434.623 62.8174 446.037 66.2119 c 0
 450.423 67.5176 455.713 69.0996 455.713 72.5 c 0
 455.713 81.4307 443.878 104.901 435.17 117.198 c 2
 337.115 257.484 l 1
 311.706 227.067 l 2
 280.333 186.233 219.715 107.19 220 83.5 c 0
 220.074 77.3574 220.768 74.9043 228.933 71.0479 c 0
 238.995 51.3867 255.275 37.1797 285.213 25 c 2
 301 25 l 1
 301 0 l 1
 16 0 l 1
 16 25 l 1
 31.415 25 l 2
 74.6016 30.4883 95.3838 40.3193 123.844 77.4863 c 2
 290.799 300.745 l 1
 100.061 597.583 l 2
 70.9482 642.33 61.3496 648.503 33.0469 651 c 2
 17 651 l 1
 17 676 l 1
 427.964 676 l 1
 427.964 651 l 1
 409.665 651 l 2xa0
 398.772 638.41 381.162 617.712 373.904 614.014 c 0xc0
 369.065 613.878 360.273 613.383 351.201 611.504 c 0
 339.155 609.01 338.973 606.531 339.018 600.5 c 0
 339.029 598.959 338.995 597.466 339.309 595.484 c 0
 339.492 594.335 339.711 593.518 340.241 592.239 c 0
 341.435 589.357 343.665 585.416 352.735 573.02 c 2
 446.235 444.602 l 1
 467.424 470.874 483.94 492.148 490.615 501.146 c 0
 540.922 568.959 545.279 583.388 545 596.5 c 0
 544.808 605.542 544.91 608.053 533.853 610.96 c 0
 528.457 612.378 520.353 613.485 509.626 614.021 c 2
 507.236 614.142 l 1
 504.966 614.898 l 2
 503.501 629.479 501.633 607.638 488.567 651 c 2
 473 651 l 1
 473 676 l 1
 758 676 l 1xa0
EndSplineSet
EndChar
StartChar: Y
Encoding: 89 89 57
Width: 792
Flags: W
Validated: 33
HStem: 0 25<192.647 304.86 517.052 630> 651 25<15 81.6452 514 530.197 703.094 769>
VStem: 313 197<36.6268 254.891>
Fore
769 676 m 1
 769 651 l 1
 754.046 651 l 2
 725.183 646.506 710.812 638.467 698.285 618.131 c 2
 510 293.537 l 1
 510 103.964 l 2
 510 35.832 516.866 32.3271 609.39 25 c 2
 630 25 l 1
 630 0 l 1
 192.647 0 l 1
 192.647 25 l 1
 213.095 25 l 2
 305.165 32.3516 313 36.8975 313 103.984 c 2
 313 254.891 l 1
 97.2949 602.084 l 2
 79.7959 633.588 58.8467 649.295 31.4727 651 c 2
 15 651 l 1
 15 676 l 1
 409.719 676 l 1
 409.719 651 l 1
 362.958 615.007 l 2
 357.664 614.911 345.145 615.091 333.935 613.199 c 0
 321.078 611.03 319.859 608.865 319.859 602.5 c 0
 319.859 594.811 324.127 585.705 337.37 564.022 c 0
 342.576 555.5 343.888 552.908 344.908 550.505 c 2
 461.452 347.401 l 1
 561.526 505.557 l 2
 592.595 556.509 598.178 583.555 598 591.5 c 0
 597.802 600.384 597.233 603.688 587.079 607.42 c 0
 576.499 627.069 556.998 640.899 530.197 651 c 2
 514 651 l 1
 514 676 l 1
 769 676 l 1
EndSplineSet
EndChar
StartChar: Z
Encoding: 90 90 58
Width: 737
Flags: W
Validated: 1
HStem: 0 70<283.593 533.232> 603.089 72.911<209.557 354.831 354.831 389.537 389.537 417.805>
Fore
705.989 276 m 1
 676.214 0 l 1
 28 0 l 1
 28 36.3174 l 1
 417.805 605.102 l 1
 389.512 604.338 370.826 603.419 362.176 603.031 c 0
 357.493 602.821 351.976 603.089 347.495 603.089 c 0
 203.195 603.089 164.678 573.151 121.041 446.788 c 2
 116.971 435 l 1
 57.125 435 l 1
 81.6934 676 l 1
 674 676 l 1
 674 639.705 l 1
 283.593 70 l 1
 330.747 70 l 2
 433.252 70 519.232 84.4482 552.581 105.81 c 0
 596.539 136.147 617.977 173.846 643.68 263.331 c 2
 647.319 276 l 1
 705.989 276 l 1
EndSplineSet
EndChar
StartChar: bracketleft
Encoding: 91 91 59
Width: 333
Flags: HMW
Validated: 1
HStem: -149 33<221 301 221 301> 645 33<210 238 238 301>
VStem: 67 104<-84.5 -63 -63 575>
Fore
318.5 -98.5 m 1
 318.5 -166.5 l 1
 49.5 -166.5 l 1
 49.5 695.5 l 1
 318.5 695.5 l 1
 318.5 627.5 l 1
 238 627.5 l 2
 217.377 627.196 208.104 625.976 201.623 623.241 c 0
 197.807 621.631 194.891 619.581 192.634 613.656 c 0
 189.957 606.63 188.5 594.44 188.5 575 c 2
 188.5 -63 l 2
 188.791 -78.5127 189.182 -80.8477 190.039 -85.1738 c 0
 191.755 -93.833 193.653 -95.7861 202.972 -97.3604 c 0
 207.32 -98.0957 213.371 -98.5 221 -98.5 c 2
 318.5 -98.5 l 1
EndSplineSet
EndChar
StartChar: backslash
Encoding: 92 92 60
Width: 278
Flags: HMW
Validated: 1
HStem: -19 20 671 20<-25 68 68 68>
Fore
198.375 -36.5 m 1
 -49.2588 708.5 l 1
 80.6416 708.5 l 1
 327.226 -36.5 l 1
 198.375 -36.5 l 1
EndSplineSet
EndChar
StartChar: bracketright
Encoding: 93 93 61
Width: 333
Flags: HMW
Validated: 1
HStem: -149 33<32 112 32 112 112 133 32 266> 645 33<32 95 32 266>
VStem: 162 104<-63 575 575 604>
Fore
14.5 -166.5 m 1
 14.5 -98.5 l 1
 112 -98.5 l 2
 117.695 -98.3896 123.276 -98.5801 130.604 -97.4258 c 0
 138.742 -96.1426 141.758 -95.7422 143.493 -83.0391 c 0
 144.169 -78.0908 144.5 -71.3721 144.5 -63 c 2
 144.5 575 l 2
 144.221 596.374 143.043 606.63 140.366 613.656 c 0
 138.109 619.581 135.193 621.631 131.377 623.241 c 0
 124.896 625.976 113.883 627.5 95 627.5 c 2
 14.5 627.5 l 1
 14.5 695.5 l 1
 283.5 695.5 l 1
 283.5 -166.5 l 1
 14.5 -166.5 l 1
EndSplineSet
EndChar
StartChar: asciicircum
Encoding: 94 94 62
Width: 581
Flags: HMW
Validated: 1
HStem: 656 20<251 331 331 331>
Fore
173.068 293.5 m 1
 44.9961 293.5 l 1
 240.064 693.5 l 1
 341.936 693.5 l 1
 537.004 293.5 l 1
 408.932 293.5 l 1
 291 542.161 l 1
 173.068 293.5 l 1
EndSplineSet
EndChar
StartChar: underscore
Encoding: 95 95 63
Width: 500
Flags: HMW
Validated: 1
HStem: -125 50<0 500 0 500>
Fore
517.5 -142.5 m 1
 -17.5 -142.5 l 1
 -17.5 -57.5 l 1
 517.5 -57.5 l 1
 517.5 -142.5 l 1
EndSplineSet
EndChar
StartChar: grave
Encoding: 96 96 64
Width: 333
Flags: W
Validated: 1
HStem: 510.5 220
VStem: -9.5 293.997<510.5 668 668 668>
Fore
284.497 510.5 m 1
 185.018 510.5 l 1
 38.7764 601.128 l 2
 6.1709 621.366 -9.5 640.187 -9.5 668 c 0
 -9.5 703.203 19.9922 730.5 55 730.5 c 0
 80.3496 730.5 103.796 717.195 122.133 696.566 c 2
 284.497 510.5 l 1
EndSplineSet
EndChar
StartChar: a
Encoding: 97 97 65
Width: 570
Flags: W
Validated: 33
HStem: -14 92.3525<428.5 504.205> -14 106<148.797 280.126> 238.922 54.048<215.295 316.2> 423.5 49.5<205.675 316.657>
VStem: 25 188.568<95.781 176.001> 44 138<337.505 409.289> 328 173<124.156 238.922 292.97 402.317>
Fore
257.631 92 m 0x7a
 279.008 92 299.195 100.095 328 124.156 c 1
 328 238.922 l 1
 269.693 223.483 213.568 195.083 213.568 141.5 c 0
 213.568 111.8 231.193 92 257.631 92 c 0x7a
504.205 78.3525 m 1xb6
 527.733 100.27 l 1
 563.03 54.166 l 1
 553.335 44.4072 l 2
 511.846 2.64258 476.256 -14 428.5 -14 c 0xb6
 383.328 -14 353.691 1.38965 337.408 42.6562 c 1
 275.007 2.69141 215.447 -14 153.5 -14 c 0
 79.5967 -14 25 35.835 25 102.174 c 0x7a
 25 147.835 48.1426 185.041 96.5947 216.396 c 0
 134.639 241.592 184.08 260.479 329 292.97 c 1
 329 353 l 2
 329 407.167 300.788 424.109 241.847 423.5 c 0
 209.313 423.164 195.815 416.789 188.172 411.733 c 0
 186.392 410.556 182 407.303 182 404 c 0
 182 403.287 183.699 401.518 192.528 393.104 c 0
 210.108 376.348 221.459 358.336 221.459 339 c 0
 221.459 294.252 175.085 263.5 126.5 263.5 c 0
 77.7314 263.5 44 292.285 44 340.562 c 0
 44 420.024 128.394 473 272.099 473 c 0
 414.033 473 501 419.189 501 328.859 c 2
 501 85.3594 l 2
 501.428 80.29 501.5 79.6934 502.199 78.5957 c 1
 502.452 78.4854 503.087 78.3291 504.205 78.3525 c 1xb6
EndSplineSet
EndChar
StartChar: b
Encoding: 98 98 66
Width: 626
Flags: W
Validated: 1
HStem: -14 67<254.598 373.868> 384 89<260.946 440.641> 656 20G<17 246>
VStem: 17 574<238.363 620.092 482.429 641.03> 72 174<61.9543 343.405 438.837 597.438> 409 182<118.935 343.817>
Fore
246 676 m 1xe8
 246 438.837 l 1xe8
 285.417 462.169 327.507 473 379.074 473 c 0
 507.995 473 591 374.461 591 238.363 c 0xf0
 591 90.5225 490.539 -14 330.684 -14 c 0
 266.82 -14 224.688 0.458008 179.435 38.2939 c 1
 107.073 -13 l 1
 72 -13 l 1
 72 576.5 l 2xe8
 71.7285 591.039 71.248 593.57 70.2266 597.627 c 0
 68.625 603.991 66.1084 605.967 62.9062 607.857 c 0
 57.9727 610.772 50.7041 613.498 31.1396 617.325 c 2
 17 620.092 l 1
 17 676 l 1xf0
 246 676 l 1xe8
312.855 384 m 0
 280.378 384 263.484 373.702 246 343.405 c 1
 246 108.619 l 2
 246 85.207 259.116 53 311.582 53 c 0
 370.033 53 409 92.876 409 220.761 c 0xec
 409 304.675 389.772 384 312.855 384 c 0
EndSplineSet
EndChar
StartChar: c
Encoding: 99 99 67
Width: 514
Flags: W
Validated: 1
HStem: -14 102<198.115 397.972> 407 66<238.397 317.618>
VStem: 25 176<167.511 334.778> 327.002 158.998<320.057 400.911 400.911 430.125>
Fore
463.692 152.057 m 1
 505.84 109.909 l 1
 496.273 97.7041 l 2
 435.002 19.5312 373.567 -14 277.846 -14 c 0
 122.381 -14 25 86.2969 25 223.436 c 0
 25 366.91 132.813 473 308.307 473 c 0
 407.314 473 486 435.146 486 380.781 c 0
 486 333.076 453.271 300.281 400.5 300.281 c 0
 371.102 300.281 328.444 312.523 327.002 389.603 c 0
 326.814 396.835 327.162 418.773 326.25 425.949 c 0
 325.897 428.546 326.02 428.813 323.081 432.342 c 0
 321.384 434.378 320.724 434.787 318.739 436 c 0
 313.002 419.81 303.342 407 293.076 407 c 0
 219.415 407 201 324.837 201 273.183 c 0
 201 156.689 270.871 88 360.5 88 c 0
 396.96 88 418.332 100.567 451.369 138.068 c 2
 463.692 152.057 l 1
EndSplineSet
EndChar
StartChar: d
Encoding: 100 100 68
Width: 626
Flags: W
Validated: 1
HStem: -14 91<170.182 346.276> 382 91<174.047 350.693> 656 20G<274.219 545>
VStem: 25 579 25 183<102.855 345.002> 371 174<119.28 339.166 434.721 597.774>
Fore
374 -18.6309 m 1xf0
 374 28.4502 l 1
 327.59 -2.92285 285.098 -14 227.738 -14 c 0
 106.431 -14 25 88.127 25 221.57 c 0
 25 363.139 112.057 473 241.746 473 c 0
 293.064 473 330.648 461.538 371 434.721 c 1
 371 576.5 l 2
 370.736 591.263 370.243 593.791 369.153 597.969 c 0
 367.903 602.767 366.287 606.823 356.612 609.749 c 0
 346.69 612.75 332.35 614.851 294.845 617.049 c 2
 274.219 618.258 l 1
 274.219 676 l 1
 545 676 l 1
 545 116.259 l 2xec
 545.368 101.7 546.484 96.5273 548.376 92.1875 c 0
 549.791 88.9404 551.278 86.7383 555.306 84.4736 c 0
 560.686 81.4463 569.239 79.0967 587.639 77.9629 c 2
 604 76.8955 l 1
 604 22.1133 l 1
 526.602 12.127 l 2
 464.836 5.15332 441.802 0.530273 396.259 -12.3408 c 2
 374 -18.6309 l 1xf0
371 124.096 m 2
 371 339.166 l 1
 355.216 366.793 323.844 382 293.957 382 c 0
 242.383 382 208 346.68 208 229.052 c 0
 208 111.835 240.792 77 285.043 77 c 0
 305.233 77 325.441 83.9072 348.674 102.276 c 0
 364.581 114.853 371 124.088 371 124.096 c 2
EndSplineSet
EndChar
StartChar: e
Encoding: 101 101 69
Width: 479
Flags: W
Validated: 1
HStem: -14 107<259.522 354.273> 227.5 72<205.204 297.895> 407 66<213.73 287.397>
VStem: 25 443.726<134.045 228.101 299.5 349.078> 25 180.204<134.818 227.5 299.5 349.078>
Fore
405.943 153.566 m 2xe8
 415.4 165.151 l 1
 468.726 134.045 l 1
 457.844 118.475 l 2
 389.065 20.0684 334.926 -14 248.5 -14 c 0
 114.235 -14 25 83.4473 25 228.101 c 0xf0
 25 372.931 116.064 473 251.5 473 c 0
 310.443 473 361.471 453.484 398.873 412.127 c 0
 434.076 373.202 449.865 324.542 455.955 245 c 2
 457.295 227.5 l 1
 205.204 227.5 l 1
 209.437 178.5 216.384 155.255 231.629 132.192 c 0
 254.723 97.2578 284.984 93 305.5 93 c 0
 345.678 93 371.656 111.565 405.943 153.566 c 2xe8
199.578 299.5 m 1
 297.895 299.5 l 1
 296.082 338.552 294.17 362.623 289.565 377.835 c 0
 283.731 397.109 272.154 407 251.5 407 c 0
 221.599 407 203.922 391.328 199.578 299.5 c 1
EndSplineSet
EndChar
StartChar: f
Encoding: 102 102 70
Width: 403
Flags: W
Validated: 1
HStem: 0 52.4004<14 29.6094 287.124 362> 382 79<14 71 245 367> 625 66<252.176 322.137>
VStem: 71 174<80.6515 382 461 604.235> 289 170<517.648 581.675>
Fore
71 92.9805 m 2
 71 382 l 1
 14 382 l 1
 14 461 l 1
 71.1045 461 l 1
 72.0527 536.258 79.835 577.955 102.634 614.732 c 0
 133.842 665.074 192.604 691 282 691 c 0
 390.394 691 459 644 459 573.5 c 0
 459 527.787 427.2 494 379.5 494 c 0
 338.438 494 289 523 289 566.5 c 0
 289 581.446 300.686 595.338 317.494 611.504 c 0
 318.172 612.64 322.264 619.529 323.643 623.158 c 1
 321.64 624.2 318.027 625 310 625 c 0
 273.117 625 245 619.24 245 565.5 c 2
 245 461 l 1
 367 461 l 1
 367 382 l 1
 245 382 l 1
 245 110.386 l 2
 245.609 84.2041 249.971 72.1348 260.49 65.8096 c 0
 262.068 64.8613 263.738 64.0615 265.75 63.2949 c 0
 277.031 58.9941 300.256 55.0215 345 54.042 c 2
 362 53.5957 l 1
 362 0 l 1
 14 0 l 1
 14 52.4004 l 1
 29.6094 53.9541 l 2
 49.3975 56.2578 54.8252 57.8271 60.1377 60.4688 c 0
 63.2305 62.0068 65.9893 63.9951 67.9014 68.6816 c 0
 69.7168 73.1318 71 79.6006 71 92.9805 c 2
EndSplineSet
EndChar
StartChar: g
Encoding: 103 103 71
Width: 570
Flags: W
Validated: 33
HStem: -206 67<163.247 422.586> -52 155<200.118 437.935> 137.502 61.998<222.823 325.999> 363 88<489.926 552> 407 66<223.239 326.416>
VStem: 28 123<-123.18 -62.5123> 28 525<-50.4995 -37.2745> 37 172<210.29 382.49> 42 147<25 114.61> 341 170<210.681 342.685> 439 114<-118.407 -2.50049>
Fore
552 363 m 1xf1
 489.926 363 l 1
 504.167 341.897 511 318.227 511 289.033 c 0
 511 234.125 483.988 191.464 434.313 164.882 c 0
 395.109 142.05 365.255 136.502 311.478 136.502 c 2
 250.241 137.502 l 2
 211.355 137.502 188.748 128.344 189 114.61 c 0xf0c0
 189.085 109.979 189.029 108.579 199.401 106.54 c 0
 214.373 103.877 250.505 103 294.052 103 c 2
 371.5 103 l 2
 481.798 103 553 50.9033 553 -37.5 c 0xf2
 553 -104.9 515.55 -206 260.031 -206 c 0
 65.3271 -206 28 -140.3 28 -96.5 c 0xf4
 28 -57.2363 51.6758 -31.8379 88.2188 -17.123 c 1
 53.625 -6.42969 42 5.79883 42 25 c 0xf080
 42 77.3613 75.584 115.747 134.642 143.435 c 1
 110.155 156.526 93.042 169.301 77.2881 187.715 c 0
 51.4619 217.903 37 255.743 37 294.301 c 0
 37 401.193 130.979 473 275 473 c 0xe9
 337.619 473 369.792 464.6 407.568 451 c 1
 552 451 l 1
 552 363 l 1xf1
376.5 -52 m 2
 174.802 -52 l 1
 156.26 -67.4971 151 -74.1602 151 -89.5 c 0
 151 -129.1 209.695 -139 288.608 -139 c 0
 362.55 -139 439 -128.1 439 -84.5 c 0xe420
 439 -64.7002 423.793 -52 376.5 -52 c 2
275 407 m 0xe940
 235.401 407 209 391.342 209 302.328 c 0
 209 213.356 235.401 199.5 275 199.5 c 0
 314.599 199.5 341 214.475 341 302.328 c 0
 341 390.504 314.599 407 275 407 c 0xe940
EndSplineSet
EndChar
StartChar: h
Encoding: 104 104 72
Width: 626
Flags: W
Validated: 1
HStem: 0 51.8975<288.344 308.65 318.029 338.736 587.953 604 16 604 308.65 308.65> 371 102<287.926 435.036> 656 20G<16 243>
VStem: 69 174<72.6474 335.198 420.451 598.864> 381 174<67.6301 364.948>
Fore
243 676 m 1
 243 420.451 l 1
 298.559 458.697 346.902 473 402.5 473 c 0
 494 473 555 414.855 555 325.42 c 2
 555 94.5068 l 2
 555.511 75.7988 557.354 70.2949 560.339 65.5479 c 0
 561.814 63.2021 563.364 61.6064 566.146 60.0107 c 0
 569.801 57.915 575.691 55.8301 587.953 54.8789 c 2
 604 53.6338 l 1
 604 0 l 1
 318.029 0 l 1
 318.029 52.1426 l 1
 338.736 53.8037 l 2
 367.444 56.1084 381 61.0449 381 90.0088 c 2
 381 311.146 l 2
 381 359.566 360.993 371 334.777 371 c 0
 312.393 371 285.416 362.313 258.645 343.539 c 0
 251.205 338.321 245.494 334.373 243 331.509 c 1
 243 90.0088 l 2
 243.156 86.1846 242.548 72.79 249.988 64.8838 c 0
 251.058 63.7705 252.21 62.8447 253.616 61.9609 c 0
 258.574 58.8486 268.515 55.5986 288.344 53.7705 c 2
 308.65 51.8975 l 1
 308.65 0 l 1
 16 0 l 1
 16 52.6504 l 1
 30.0684 55.3027 l 2
 46.3613 58.5879 53.7646 60.6631 58.9531 63.292 c 0
 62.834 65.2607 65.1328 66.9062 66.8203 72.4385 c 0
 68.1641 76.8438 69 84.5703 69 95.6904 c 2
 69 576.5 l 2
 68.7744 591.312 68.3555 594.719 67.3252 599.067 c 0
 66.4346 602.823 65.3877 606.396 58.4561 609.609 c 0
 53.2061 612.043 45.7002 614.28 30.1396 617.325 c 2
 16 620.092 l 1
 16 676 l 1
 243 676 l 1
EndSplineSet
EndChar
StartChar: i
Encoding: 105 105 73
Width: 313
Flags: W
Validated: 1
HStem: 0 56.6777<274.975 290 16 290 290 290> 441 20G<16 243> 501 190<90.5912 219.264>
VStem: 60 190<529.828 659.924> 69 174<77.9247 390.171>
Fore
243 461 m 1xe8
 243 95.3232 l 2
 243.445 80.208 244.964 74.8555 247.389 70.6924 c 0
 248.752 68.3525 250.385 66.6377 252.928 65.0566 c 0
 256.583 62.7842 263.159 60.377 274.975 58.8242 c 2
 290 56.6777 l 1
 290 0 l 1
 16 0 l 1
 16 55.3086 l 1
 29.4297 58.5205 l 2
 46.0527 62.3564 53.8457 64.6504 59.2295 67.3848 c 0
 62.3701 68.9795 65.7256 70.5527 67.4385 77.7236 c 0
 68.4531 81.9746 69 88.7568 69 98.0615 c 2
 69 368.54 l 2
 68.7295 382.245 68.0898 386.256 66.7217 390.363 c 0
 65.0088 395.503 62.5986 397.265 58.5645 399.242 c 0
 53.4102 401.77 44.7314 404.272 29.9932 407.047 c 2
 16 409.68 l 1
 16 461 l 1
 243 461 l 1xe8
155.5 691 m 0
 208.301 691 250 647.849 250 595.5 c 0
 250 542.087 208.635 501 154.5 501 c 0
 101.379 501 60 541.461 60 596.5 c 0xf0
 60 648.4 102.857 691 155.5 691 c 0
EndSplineSet
EndChar
StartChar: j
Encoding: 106 106 74
Width: 368
Flags: W
Validated: 1
HStem: -203 196<-0.975721 75.943> 441 20G<58 295> 501 190<137.171 268.237>
VStem: -57 156<-100.031 -26.1757> 108 190<531.718 659.791> 121 174<-47.7094 390.318>
Fore
202.5 691 m 0xf8
 255.183 691 298 648.18 298 595.5 c 0
 298 542.699 254.849 501 202.5 501 c 0
 145.8 501 108 543.925 108 596.5 c 0
 108 648.065 149.746 691 202.5 691 c 0xf8
295 461 m 1xf4
 295 11.6484 l 2
 295 -45.2715 286.467 -84.5781 265.621 -118.309 c 0
 245.792 -152.332 199.616 -203 100.5 -203 c 0
 10.4062 -203 -57 -156 -57 -85.5 c 0
 -57 -40.9111 -24.709 -7 22.5 -7 c 0
 63.0146 -7 99 -37.4473 99 -78.5 c 0
 99 -93.5244 92.8799 -107.384 82.4229 -124.64 c 0
 78.6641 -130.843 77.6006 -133.063 76.9219 -134.904 c 1
 79.8389 -136.1 84.5645 -137 90.5 -137 c 0
 106.094 -137 121 -131.798 121 -78.5 c 2
 121 366.623 l 2
 120.668 381.453 119.698 386.169 117.904 390.522 c 0
 116.519 393.887 114.577 396.528 109.994 398.805 c 0
 103.787 401.887 94.5312 404.142 74.1318 405.645 c 2
 58 406.832 l 1
 58 461 l 1
 295 461 l 1xf4
EndSplineSet
EndChar
StartChar: k
Encoding: 107 107 75
Width: 626
Flags: W
Validated: 1
HStem: 0 58.3857<22 37.916 301.043 324 344 385.058 587.264 613 22 613 344 344> 441 20G<334 583> 656 20G<22 244>
VStem: 70 174<75.7812 95.6904 95.6904 208.469 269.749 616.407>
Fore
334 461 m 1
 583 461 l 1
 583 409.561 l 1
 567.704 407.773 l 2
 511.046 401.154 488.272 387.312 399.223 301.813 c 1
 584.588 66.25 l 2
 590.647 58.8164 591.1 59 595.5 59 c 2
 613 59 l 1
 613 0 l 1
 344 0 l 1
 344 58.3857 l 1
 360.875 58.9893 l 2
 374.969 59.8896 380.97 60.7402 385.26 62.5762 c 1
 382.39 69.75 373.812 82.7461 365.126 95.5195 c 2
 249.349 212.096 l 1
 244 208.469 l 1
 244 101.5 l 2
 244.249 84.5439 244.738 80.624 246.127 75.5439 c 0
 248.443 67.0811 251.996 66.127 261.446 64.0645 c 0
 269.541 62.2979 282.816 60.5732 301.043 58.8086 c 2
 324 56.5869 l 1
 324 0 l 1
 22 0 l 1
 22 54.1914 l 1
 37.916 55.5547 l 2
 59.3115 57.3887 70 65.2695 70 95.6904 c 2
 70 576.5 l 2
 70 608.954 59.167 615.195 37.9619 617.067 c 2
 22 618.477 l 1
 22 676 l 1
 244 676 l 1
 244 269.749 l 1
 377.126 367.874 l 2
 386.635 378.357 390.859 386.693 392.541 391.957 c 2
 392.889 393.187 l 1
 392.889 393.187 392.757 391.94 392.995 393.69 c 1
 392.004 394.499 387.268 397.393 373.329 399.135 c 2
 371.61 399.35 l 1
 369.966 399.898 l 2
 367.949 400.57 365.57 400.155 348.369 403.282 c 2
 334 405.895 l 1
 334 461 l 1
393.028 411.163 m 2
 393.011 411.178 l 1
 393.006 411.093 393 411 393 411 c 1
 393 411 393.433 410.824 393.028 411.163 c 2
EndSplineSet
EndChar
StartChar: l
Encoding: 108 108 76
Width: 313
Flags: W
Validated: 1
HStem: 0 58.9922<16 31.9619 242.048 290 16 290 273.03 273.03> 656 20G<16 241>
VStem: 67 174<60.2632 98.8037 98.8037 615.827>
Fore
241 676 m 1
 241 99.2178 l 2
 241 67.0371 253.058 59.5654 273.03 58.9922 c 2
 290 58.4775 l 1
 290 0 l 1
 16 0 l 1
 16 57.5234 l 1
 31.9619 58.9326 l 2
 50.54 60.4678 67 66.9072 67 98.8037 c 2
 67 576.5 l 2
 67 607.034 54.9199 615.1 32.0059 617.063 c 2
 16 618.436 l 1
 16 676 l 1
 241 676 l 1
EndSplineSet
EndChar
StartChar: m
Encoding: 109 109 77
Width: 938
Flags: W
Validated: 1
HStem: 0 52.6699<286.5 306.631 318.689 340.241 599.187 619.971 629.349 650.951 883.255 919> 0 473<383.761 496.238 697.343 807.947 406.5 919 133.453 155.055> 371 102<285.648 422.446 602.837 749.288>
VStem: 71 174<70.9335 335.446> 383 174<68.0855 334.982> 695 174<67.0617 364.948>
CounterMasks: 1 1c
Fore
242 461 m 1x5c
 242 419.488 l 1
 288.633 456.194 345.256 473 406.5 473 c 0
 466.203 473 506.146 452.668 537.846 399.476 c 1
 593.418 451.421 646.933 473 716.5 473 c 0x5c
 808 473 869 414.855 869 325.42 c 2
 869 91.7139 l 2
 869.349 77.2139 870.252 71.4561 871.97 66.8447 c 0
 873.164 63.6396 875.012 59.7275 883.08 57.46 c 0
 886.771 56.4229 892.671 55.3779 902.396 54.9131 c 2
 919 54.1211 l 1
 919 0 l 1
 629.349 0 l 1
 629.349 52.7012 l 1
 650.951 53.8643 l 2
 669.404 55.1807 673.635 56.0098 678.792 57.4219 c 0
 686.769 59.6055 689.028 62.2061 691.071 66.2109 c 0
 693.32 70.623 695 76.9922 695 90.0088 c 2
 695 311.146 l 2
 695 364.296 675.261 371 647.437 371 c 0
 635.299 371 617.1 368.878 586.724 352.396 c 0
 570.35 343.512 560.478 334.818 557 330.987 c 1
 557 90.0088 l 2
 557.157 86.0449 556.569 73.625 562.949 65.1914 c 0
 564.776 62.8311 566.928 61.1006 570.335 59.5244 c 0
 575.065 57.3359 583.269 55.0508 599.187 53.8105 c 2
 619.971 52.1904 l 1
 619.971 0 l 1
 318.689 0 l 1
 318.689 52.6699 l 1
 340.241 53.8613 l 2
 346.588 54.3359 357.086 54.6289 366.874 57.458 c 0
 374.472 59.6553 377.005 62.4326 379.089 66.5654 c 0
 381.287 70.9229 383 77.3262 383 90.0088 c 2
 383 311.146 l 2
 383 364.322 364.101 371 334.097 371 c 0
 322.201 371 304.395 369.247 274.66 353.276 c 0
 258.198 344.435 248.042 335.07 245 331.483 c 1
 245 90.0088 l 2
 245.551 74.9668 247.424 69.5146 250.603 65.291 c 0
 252.78 62.3975 254.863 60.8672 259.334 59.0791 c 0
 264.376 57.0625 273.171 55.0518 286.5 53.7529 c 2
 306.631 51.792 l 1
 306.631 0 l 1xbc
 16 0 l 1
 16 52.1465 l 1
 30.3691 54.5742 l 2
 49.4941 58.1045 56.9756 60.5146 62.1182 63.9512 c 0
 64.5791 65.5957 66.5078 67.7578 67.8115 70.7324 c 0
 69.6777 74.9883 71 81.3926 71 94.3379 c 2
 71 367.592 l 2
 70.6748 381.513 69.6602 387.112 67.791 391.418 c 0
 66.4873 394.419 65.0889 396.571 60.8955 398.919 c 0
 55.8252 401.759 45.8027 404.453 31.1357 406.312 c 2
 16 408.23 l 1
 16 461 l 1
 242 461 l 1x5c
EndSplineSet
EndChar
StartChar: n
Encoding: 110 110 78
Width: 626
Flags: W
Validated: 1
HStem: 0 51.8975<293.344 313.65 323.029 343.736 592.842 609 21 609 313.65 313.65> 0 473<388.329 498.947 407.5 609 391.342 407.5> 371 102<290.752 440.036>
VStem: 74 174<71.6201 335.198> 386 174<67.4945 364.948>
Fore
247 461 m 1xb8
 247 419.643 l 1
 293.025 455.399 348.709 473 407.5 473 c 0x58
 499 473 560 414.855 560 325.42 c 2
 560 91.7139 l 2
 560.319 77.542 561.156 71.832 562.791 67.2803 c 0
 563.926 64.1211 565.634 60.2773 573.591 57.8633 c 0
 577.26 56.749 583.118 55.583 592.842 54.8867 c 2
 609 53.7295 l 1
 609 0 l 1
 323.029 0 l 1
 323.029 52.1426 l 1
 343.736 53.8037 l 2
 372.444 56.1084 386 61.0449 386 90.0088 c 2
 386 311.146 l 2
 386 359.566 365.993 371 339.777 371 c 0
 317.393 371 290.416 362.313 263.645 343.539 c 0
 256.205 338.321 250.494 334.373 248 331.509 c 1
 248 90.0088 l 2
 248.156 86.1846 247.548 72.79 254.988 64.8838 c 0
 256.058 63.7705 257.21 62.8447 258.616 61.9609 c 0
 263.574 58.8486 273.515 55.5986 293.344 53.7705 c 2
 313.65 51.8975 l 1
 313.65 0 l 1
 21 0 l 1
 21 51.9062 l 1
 35.0684 54.5205 l 2
 51.3613 57.7598 58.7646 59.8057 63.9531 62.3975 c 0
 67.834 64.3379 70.1328 65.96 71.8203 71.4141 c 0
 73.1641 75.7568 74 83.375 74 94.3379 c 2
 74 367.592 l 2
 73.7295 381.794 73.0674 386.188 71.6807 390.519 c 0
 69.9014 396.072 67.4014 397.79 63.7363 399.558 c 0
 58.7275 401.973 50.5645 404.175 35.75 406.365 c 2
 21 408.547 l 1
 21 461 l 1
 247 461 l 1xb8
EndSplineSet
EndChar
StartChar: o
Encoding: 111 111 79
Width: 570
Flags: W
Validated: 1
HStem: -14 66<233.134 337.733> 407 66<234.496 337.265>
VStem: 25 182<117.391 339.661> 364 182<116.661 341.939>
Fore
286.143 473 m 0
 442.578 473 546 368.518 546 229.033 c 0
 546 90.4229 442.561 -14 286.143 -14 c 0
 127.594 -14 25 89.7637 25 231.832 c 0
 25 367.371 131.345 473 286.143 473 c 0
287.43 407 m 0
 239.172 407 207 391.302 207 215.391 c 0
 207 72.083 238.657 52 286.143 52 c 0
 332.857 52 364 72.5488 364 223.583 c 0
 364 385.211 333.372 407 287.43 407 c 0
EndSplineSet
EndChar
StartChar: p
Encoding: 112 112 80
Width: 591
Flags: W
Validated: 1
HStem: -205 55.979<254.905 327> -13 90<265.096 413.894> 381 92<282.02 416.889>
VStem: 19 540<-205 238.396 -205 -74.6064> 75 174<-127.413 -105.5 -105.5 24.8936 119.102 340.959> 376 183<111.187 359.59>
Fore
247 461 m 1xe8
 247 430.128 l 1
 275.765 460.681 310.271 473 355.5 473 c 0
 477.6 473 559 375.599 559 238.396 c 0xf0
 559 93.9336 473.874 -13 349.5 -13 c 0
 309 -13 281.62 -1.98145 249 24.8936 c 1
 249 -76.5 l 2xe8
 249 -135.769 261.316 -146.609 310.359 -149.021 c 2
 327 -149.84 l 1
 327 -205 l 1
 19 -205 l 1
 19 -148.675 l 1xf0
 33.623 -146.238 l 2
 50.9873 -143.111 59.0439 -141.032 64.6943 -138.282 c 0
 71.332 -135.053 72.3711 -131.353 73.3037 -127.428 c 0
 73.3604 -127.189 75 -121.9 75 -105.5 c 2
 75 366.348 l 2
 74.7021 380.739 73.9854 385.026 72.5459 389.344 c 0
 70.6992 394.884 68.0303 396.803 64.1143 398.683 c 0
 59.0117 401.129 50.5234 403.425 35.75 405.639 c 2
 21 407.849 l 1
 21 461 l 1
 247 461 l 1xe8
249 333.92 m 2xec
 249 119.102 l 1
 262.139 91.5 284.959 77 308.5 77 c 0
 348.83 77 376 113.919 376 225.413 c 0
 376 347.144 350.777 381 317.5 381 c 0
 302.048 381 283.21 373.058 265.404 355.603 c 0
 253.015 343.458 249 333.927 249 333.92 c 2xec
EndSplineSet
EndChar
StartChar: q
Encoding: 113 113 81
Width: 626
Flags: W
Validated: 1
HStem: -14 89<182.843 360.018> 406 67<253.887 367.833>
VStem: 34 181<114.678 339.626> 377 174<-119.384 21.2529 113.812 396.636>
Fore
377 -79.5 m 2
 377 21.2529 l 1
 336.39 -2.53418 295.084 -14 242.425 -14 c 0
 115.782 -14 34 84.6475 34 219.704 c 0
 34 367.346 133.086 473 289.622 473 c 0
 357.592 473 395.735 457.354 441.249 420.581 c 1
 512.868 472 l 1
 551 472 l 1
 551 -105.5 l 2
 551.271 -120.039 551.752 -122.57 552.773 -126.628 c 0
 554.375 -132.991 556.892 -134.967 560.094 -136.857 c 0
 565.027 -139.772 572.296 -142.498 591.86 -146.325 c 2
 606 -149.092 l 1
 606 -205 l 1
 283.882 -205 l 1
 283.882 -147.935 l 1
 302.152 -145.291 l 2
 338.823 -139.779 356.542 -135.913 365.418 -129.531 c 0
 367.059 -128.35 368.281 -127.179 369.434 -125.683 c 0
 375.052 -118.389 377 -104.3 377 -79.5 c 2
311.307 75 m 0
 343.941 75 366.577 88.6895 377 113.812 c 1
 377 349.477 l 2
 377 384.51 351.744 406 313.858 406 c 0
 234.772 406 215 321.726 215 236.431 c 0
 215 117.581 253.523 75 311.307 75 c 0
EndSplineSet
EndChar
StartChar: r
Encoding: 114 114 82
Width: 479
Flags: W
Validated: 1
HStem: -35 508<324.373 330 330 370.5 370.5 370.5> 293 180<328.121 439.065>
VStem: 29 440<404.272 434.8 -35 377.5 404.272 404.272> 83 174<41.0631 344.229>
Fore
253 461 m 1xa0
 253 412.446 l 1
 288.676 452.756 324.373 473 370.5 473 c 0
 424.825 473 469 434.8 469 377.5 c 0xa0
 469 328.617 435.005 293 388.5 293 c 0
 357.928 293 337.506 303.56 314.134 336.508 c 0
 308.294 344.74 303.499 350.497 299.99 351.992 c 1
 281.787 351.458 257 322.404 257 274.5 c 2
 257 85.5 l 2x50
 257 32.6348 263.902 27.2275 313.646 23.9629 c 2
 330 22.8896 l 1
 330 -35 l 1
 29 -35 l 1
 29 21.1055 l 1xa0
 43.3691 23.7178 l 2
 62.3184 27.4873 68.1855 29.5879 73.2891 32.8027 c 0
 77.4043 35.3945 78.7236 37.6426 79.9678 40.8428 c 0
 81.7812 45.5049 83 52.6016 83 66.5 c 2
 83 360.5 l 2x90
 82.6182 377.718 81.4043 382.587 79.1602 387.214 c 0
 77.7715 390.078 75.6611 392.363 72.8682 394.117 c 0
 68.2227 397.035 58.9375 400.095 44.082 402.168 c 2
 29 404.272 l 1
 29 461 l 1
 253 461 l 1xa0
EndSplineSet
EndChar
StartChar: s
Encoding: 115 115 83
Width: 424
Flags: W
Validated: 33
HStem: -49 522<210.114 225.72 201.5 224.5 201.5 201.5> -49 104<176.282 260.645> 405 68<164.949 238.2>
VStem: 25 371<25.5626 187 -48 120.5 -48 -48> 25 53.0889<-48 -10.0615> 27 135<288.777 399.799> 265 131<61.8886 134.857>
Fore
375 471 m 1x86
 375 291 l 1
 319.977 291 l 1
 315.937 302.854 l 2
 298.211 354.847 285.362 366.448 273.424 377.834 c 0
 254.367 396.01 231.539 405 210.5 405 c 0
 183.425 405 162 388.8 162 364.5 c 0x26
 162 342.614 179.633 321.392 247.35 292.604 c 0
 351.599 248.285 396 199.456 396 120.5 c 0x30
 396 18.7998 323.162 -49 224.5 -49 c 0
 210.114 -49 151.854 -34.7861 109.696 10.3799 c 0
 105.404 12.2676 98.3242 14.5205 94.5693 14.9336 c 1
 91.2412 11.7324 86.2451 2.57129 83.002 -3.62012 c 2
 78.0889 -48 l 1x88
 25 -48 l 1
 25 187 l 1
 84.2783 187 l 1
 87.5117 173.606 l 2
 103.089 109.081 135.507 55 207.5 55 c 0x50
 243.612 55 265 72.1523 265 98.8301 c 0
 265 116.657 250.731 135.919 179.541 164.292 c 0
 73.3359 206.62 27 253.059 27 322.133 c 0
 27 408.699 100.446 473 201.5 473 c 0
 225.72 473 250.778 468.274 284.877 457.152 c 0
 302.538 451.392 309.233 450.875 311.5 451 c 0
 317.032 451.305 314.183 451.131 314.549 451.318 c 0
 316.002 452.422 318.39 457.845 319.252 459.999 c 2
 323.652 471 l 1
 375 471 l 1x86
EndSplineSet
EndChar
StartChar: t
Encoding: 116 116 84
Width: 368
Flags: W
Validated: 1
HStem: -12 106<192.101 291.979> 382 79<246 340> 610 20G<189.227 246>
VStem: 20 353.373<126.115 382 382 382> 72 174<104.668 382>
Fore
340 461 m 1xe8
 340 382 l 1
 246 382 l 1
 246 129.22 l 2xe8
 246.115 125.197 245.775 113.556 249.319 104.229 c 0
 252.598 95.6025 258.075 94.7256 262.656 94.2373 c 0
 263.618 94.1338 262.384 94 267.5 94 c 0
 275.803 94 287.747 96.2432 309.014 136.65 c 2
 316.613 151.089 l 1
 373.373 126.115 l 1xf0
 365.152 109.674 l 2
 320.527 20.4229 274.682 -12 201.5 -12 c 0
 121.503 -12 72 33.002 72 100.506 c 2
 72 382 l 1xe8
 20 382 l 1
 20 434.616 l 1xf0
 26.1963 439.859 l 2
 90.2744 494.079 128.563 537.101 189.227 622.625 c 2
 194.458 630 l 1
 246 630 l 1
 246 461 l 1
 340 461 l 1xe8
EndSplineSet
EndChar
StartChar: u
Encoding: 117 117 85
Width: 591
Flags: W
Validated: 1
HStem: -14 100<182.538 312.355> -14 475<122.035 238.682 16 343 239 239>
VStem: 16 556<72.5752 405.085 182.085 509.085> 65 174<87.4015 386.946> 342 174<116.461 376.355 376.355 387.604>
Fore
343 -20.1387 m 1x60
 343 32.7158 l 1
 296.964 -2.12207 262.32 -14 215.5 -14 c 0
 124.424 -14 65 39.4219 65 131.286 c 2
 65 363.743 l 2x90
 64.749 377.761 64.1279 382.732 62.7139 387.154 c 0
 60.6953 393.469 56.4131 395.079 54.8125 395.825 c 0
 50.3154 397.92 44.0762 399.817 30.1484 402.324 c 2
 16 405.085 l 1
 16 461 l 1x60
 239 461 l 1x50
 239 134.933 l 2
 239 93.6416 250.134 86 277.5 86 c 0x90
 298.763 86 315.273 93.2295 342 116.461 c 1
 342 364.643 l 2
 341.668 378.86 340.697 383.414 338.914 387.604 c 0
 337.541 390.829 335.63 393.37 331.135 395.543 c 0
 325.094 398.464 316.104 400.615 296.104 402.056 c 2
 280 403.344 l 1
 280 461 l 1
 516 461 l 1
 516 110.861 l 2x58
 516.353 96.2832 517.458 90.2568 519.449 85.7197 c 0
 521.501 81.0459 524.418 79.1357 527.737 77.7217 c 0
 532.65 75.625 540.396 73.9082 555.295 73.2803 c 2
 572 72.5752 l 1
 572 21.2295 l 1
 494.419 13.1055 l 2
 429.316 6.09473 408.125 2.5791 366.264 -12.0234 c 2
 343 -20.1387 l 1x60
EndSplineSet
EndChar
StartChar: v
Encoding: 118 118 86
Width: 570
Flags: W
Validated: 33
HStem: -14 475<246.711 253 296.304 369 306 349.203> 402.795 58.205<21 36.2363 290.671 306 369 412.203 539.186 555 21 555 369 369>
Fore
369 461 m 1x80
 555 461 l 1x40
 555 407.55 l 1
 539.186 406.125 l 2
 517.931 404.209 513.245 402.798 495.646 364.839 c 2
 296.304 -14 l 1
 246.711 -14 l 1x80
 122.239 271.961 l 2
 96.8574 332.539 63.8867 391.075 58.6172 399.739 c 0
 57.4541 401.652 56.9492 402.34 51.8936 403.613 c 0
 48.8359 404.384 43.8662 405.259 36.2363 406.187 c 2
 21 408.037 l 1
 21 461 l 1x40
 306 461 l 1x80
 306 404.052 l 1
 290.671 402.135 l 2
 281.899 401.039 274.59 400.317 271.198 400.028 c 0
 262.669 399.302 255.692 397.965 253.229 395.708 c 1
 253.15 395.563 252.943 395.07 253 393.5 c 0
 253.072 391.514 253.085 392.143 253.265 391.264 c 0
 253.471 390.26 253.433 390.478 253.6 389.831 c 0
 254.476 386.435 255.921 382.117 260.865 368.698 c 2
 345.676 207.41 l 1
 414.209 347.891 l 2
 421.349 366.25 424.215 378.771 424 386.5 c 0
 423.763 395.045 423.991 396.679 412.489 399.181 c 0
 406.434 400.498 397.467 401.471 385.687 402.019 c 2
 369 402.795 l 1x40
 369 461 l 1x80
EndSplineSet
EndChar
StartChar: w
Encoding: 119 119 87
Width: 827
Flags: W
Validated: 33
HStem: -49 510<233.604 242 518.835 550 566.497 642 598 613.619> 403.703 57.297<264.975 280 329 344.715 581.877 598 642 657.619> 437.97 23.03<23 37.1953>
Fore
642 461 m 1x80
 812 461 l 1x20
 812 405.045 l 1
 797.805 402.314 l 2
 780.489 398.984 775.225 396.479 760.692 362.872 c 2
 566.497 -49 l 1
 518.835 -49 l 1
 427.834 227.572 l 1
 284.594 -49 l 1
 233.604 -49 l 1x80
 81.2656 366.594 l 2
 71.3428 392.658 61.5225 419.422 53.5801 430.04 c 0
 51.0186 433.465 49.1182 434.77 45.7051 436 c 0
 44.0508 436.228 41.5381 436.502 37.1953 436.846 c 2
 23 437.97 l 1
 23 461 l 1x20
 280 461 l 1
 280 404.322 l 1
 264.975 402.176 l 2
 260.141 401.329 257.728 401.104 253.03 399.873 c 0
 240.986 396.718 242 394.7 242 391.5 c 0
 242 386.428 244.605 372.13 279.864 282.692 c 0
 298.392 269.019 321.805 249.531 335.735 229.02 c 2
 343.979 207.063 l 1
 392.936 330.174 l 1
 388.748 343.444 l 2
 381.819 367.396 377.374 382.913 372.754 391.794 c 0
 369.743 397.582 368.57 398.489 361.781 399.875 c 0
 358.417 400.562 354.222 401.116 344.715 402.092 c 2
 329 403.703 l 1
 329 461 l 1x40
 598 461 l 1
 598 403.327 l 1
 581.877 402.055 l 2
 551.714 399.221 551.395 397.221 550.018 396.436 c 0
 549.883 396.358 550 395.5 550 395.5 c 2
 550 385.72 570.506 314.39 576.321 294.325 c 2
 596.532 221.869 l 1
 647.188 262.837 l 2
 647.395 263.38 687.608 365.076 689.913 383.539 c 2
 689.973 384.083 l 1
 689.997 384.414 l 2
 690 384.48 690 384.5 690 384.5 c 2
 689.475 394.614 689.299 395.666 678.076 398.676 c 0
 673.179 399.988 666.338 401.159 657.619 402.102 c 2
 642 403.79 l 1
 642 461 l 1x80
EndSplineSet
EndChar
StartChar: x
Encoding: 120 120 88
Width: 535
Flags: W
Validated: 33
HStem: -35 496<12 519 24 39.567> -35 58.0801<14 30.5557 201.471 218 243 259.373> 402.522 58.478<251.115 297 309 324.567 324.977 359.772>
VStem: 12 507<19.3662 404.486 416.486 432.053>
Fore
506.72 23.2031 m 2x90
 519 19.3662 l 1
 519 -35 l 1
 243 -35 l 1
 243 22.9072 l 1
 259.373 23.9639 l 2
 275.982 25.4062 282.823 26.4873 287.67 28.8838 c 1
 286.233 35.3721 280.13 48.9512 258.041 80.6436 c 2
 229.168 123.95 l 1
 229.061 123.793 l 1
 228.563 123.046 l 1
 227.992 122.354 l 2
 195.869 83.0088 173.312 48.584 168.521 32.543 c 2
 168.521 32.543 167.973 33.5 168 30.5 c 0
 168 30.3994 167.913 30.4121 167.818 30.4561 c 1
 167.938 30.3662 l 2
 172.793 26.6611 187.07 24.7734 201.471 23.9727 c 2
 218 23.0547 l 1
 218 -35 l 1
 14 -35 l 1
 14 23.0801 l 1
 30.5557 23.9746 l 2
 60.0537 25.5693 77.5361 38.127 130.162 109.512 c 0
 140.513 123.552 162.063 151.615 187.999 184.473 c 1
 66.8828 370.879 l 2
 48.7334 398.103 46.0693 399.244 26.8389 402.203 c 2
 12 404.486 l 1
 12 461 l 1
 297 461 l 1x90
 297 402.522 l 1x30
 280.03 402.008 l 2
 263.282 401.117 255.966 400.242 250.875 398.062 c 1
 253.869 390.382 265.695 364.2 303.33 314.54 c 1
 312.219 326.097 321.577 337.717 326.728 343.449 c 0
 347.632 366.718 359.38 383.934 359.975 394.588 c 2
 359.975 394.588 360.196 383.398 360 395.5 c 0
 359.981 396.671 359.934 397.188 359.879 397.456 c 1
 357.597 398.829 355.206 399.738 346.12 400.008 c 0
 341.735 400.138 333.326 401.135 324.567 402.107 c 2
 309 403.837 l 1
 309 461 l 1
 512 461 l 1
 512 404.597 l 1
 497.286 402.224 l 2
 472.095 398.16 454.959 389.896 438.073 369.455 c 2
 345.063 253.422 l 1
 486.222 35.9619 l 2
 487.517 34.1484 488.091 33.0645 489.607 31.459 c 0
 490.742 30.2588 491.724 29.5322 492.648 28.9316 c 0
 495.152 27.3076 498.896 25.6484 506.72 23.2031 c 2x90
EndSplineSet
EndChar
StartChar: y
Encoding: 121 121 89
Width: 535
Flags: W
Validated: 33
HStem: -205 178<51.2552 158.131> 408.18 52.82<16 31.2363 499.186 515> 436 25<258.3 301 329 372.203>
VStem: 16 499<-108.5 461 -108.5 -98.0214> 16 157<-110.453 -47.5561>
Fore
329 461 m 1xb0
 515 461 l 1
 515 407.632 l 1
 499.186 406.208 l 2
 477.42 404.25 471.198 400.718 455.803 365.348 c 2
 306.892 -3.62793 l 2
 271.953 -96.7207 251.152 -141.463 227.148 -166.587 c 0
 203.337 -191.511 168.6 -205 130.5 -205 c 0
 66.625 -205 16 -166.4 16 -108.5 c 0xd0
 16 -61.7227 49.96 -27 97.5 -27 c 0
 139.64 -27 173 -53.6719 173 -93.5 c 0xc8
 173 -96.9863 172.726 -100.605 170.66 -110.932 c 2
 170.446 -112 l 1
 170.127 -112.957 l 1
 171.837 -112.812 173.182 -112.438 175.539 -111.221 c 0
 200.388 -98.3965 218.365 -44.5312 218.931 -42.8691 c 2
 234.831 3.9502 l 1
 117.284 272.365 l 2
 99.667 312.307 67.1924 378.003 56.9082 395.366 c 2
 53.9395 399.502 l 2
 52.251 401.563 52.3154 402.405 46.8936 403.768 c 0
 43.8359 404.536 38.8662 405.408 31.2363 406.334 c 2
 16 408.18 l 1
 16 461 l 1xd0
 301 461 l 1
 301 436.84 l 1
 268.743 436 l 2
 264.399 435.454 262.333 435.413 258.103 434.406 c 0
 251.754 432.896 247.99 431.255 248 428.455 c 0
 248.008 426.077 247.99 425.989 248.402 424.457 c 0
 249.515 420.314 252.43 412.746 266.8 375.823 c 2
 321.727 234.691 l 1
 374.02 382.34 l 2
 382.898 407.41 384.223 413.139 384 421.455 c 0
 383.771 430 383.991 431.634 372.489 434.136 c 0
 366.434 435.189 357.467 435.968 345.687 436.406 c 2
 329 436.729 l 1
 329 461 l 1xb0
EndSplineSet
EndChar
StartChar: z
Encoding: 122 122 90
Width: 514
Flags: W
Validated: 1
HStem: -35 496<45.8418 472.337 45.8418 45.8418> -35 102.001<248.732 374.499> -35 230<431.243 472.337 21 491.837 431.243 431.243> 393.902 67.098<131.801 260.332>
Fore
431.243 195 m 1x20
 491.837 195 l 1x20
 472.337 -35 l 1x80
 21 -35 l 1
 21 12.2021 l 1
 260.332 393.902 l 1x30
 133.838 392.172 118.604 373.721 98.4238 297.046 c 2
 94.9902 284 l 1
 37.1162 284 l 1
 45.8418 461 l 1x80
 486 461 l 1
 486 418.439 l 1
 248.732 67.001 l 1x50
 338.329 67.1123 368.249 77.3926 397.464 116.949 c 0
 411.881 136.47 418.859 150.977 427.653 182.238 c 2
 431.243 195 l 1x20
EndSplineSet
EndChar
StartChar: braceleft
Encoding: 123 123 91
Width: 394
Flags: HMW
Validated: 1
HStem: -175 12<340 340> 686 12<340 340>
VStem: 129 105<-34 131 377 391 391 556 556 562>
Fore
111.5 145 m 2
 111.5 205.754 96.6787 224.523 17.8027 244.011 c 2
 -50.9629 261 l 1
 17.8027 277.989 l 2
 96.6787 297.477 111.5 316.246 111.5 377 c 2
 111.5 556 l 2
 111.5 615.916 130.18 658.68 169.602 683.76 c 0
 206.724 707.377 250.452 714.495 339.804 715.499 c 2
 357.5 715.697 l 1
 357.5 671.828 l 1
 343.638 668.882 l 2
 269.775 653.187 251.5 627.221 251.5 562 c 2
 251.5 391 l 2
 251.5 320.334 234.685 284.046 178.504 261 c 1
 234.685 237.954 251.5 201.665 251.5 131 c 2
 251.5 -40 l 2
 251.5 -110.611 276.081 -132.199 343.474 -145.849 c 2
 357.5 -148.689 l 1
 357.5 -192.68 l 1
 339.821 -192.499 l 2
 241.329 -191.494 192.695 -181.644 156.742 -151.396 c 0
 123.228 -123.199 111.5 -83.7637 111.5 -34 c 2
 111.5 145 l 2
EndSplineSet
EndChar
StartChar: bar
Encoding: 124 124 92
Width: 220
Flags: HMW
Validated: 1
HStem: -19 20 671 20<66 154 154 154>
VStem: 66 88<-19 691 -19 691>
Fore
48.5 -36.5 m 1
 48.5 708.5 l 1
 171.5 708.5 l 1
 171.5 -36.5 l 1
 48.5 -36.5 l 1
EndSplineSet
EndChar
StartChar: braceright
Encoding: 125 125 93
Width: 394
Flags: HMW
Validated: 1
HStem: -175 12<54 54> 686 12<54 54>
VStem: 160 105<-39 -33 -33 132 132 146 392 557>
Fore
142.5 132 m 2
 142.5 201.675 159.783 238.484 215.884 261.848 c 1
 159.393 284.886 142.5 321.172 142.5 392 c 2
 142.5 563 l 2
 142.5 633.09 117.526 655.278 50.5264 668.849 c 2
 36.5 671.689 l 1
 36.5 715.695 l 1
 54.1943 715.499 l 2
 144.482 714.496 187.391 707.3 224.398 683.76 c 0
 264.181 658.455 282.5 617.816 282.5 557 c 2
 282.5 378 l 2
 282.5 317.246 297.321 298.477 376.197 278.989 c 2
 444.963 262 l 1
 376.197 245.011 l 2
 297.321 225.523 282.5 206.754 282.5 146 c 2
 282.5 -33 l 2
 282.5 -92.916 263.821 -135.68 224.398 -160.76 c 0
 187.276 -184.378 143.548 -191.495 54.1963 -192.499 c 2
 36.5 -192.697 l 1
 36.5 -148.828 l 1
 50.3623 -145.882 l 2
 124.225 -130.187 142.5 -104.221 142.5 -39 c 2
 142.5 132 l 2
EndSplineSet
EndChar
StartChar: asciitilde
Encoding: 126 126 94
Width: 520
Flags: W
Validated: 1
HStem: 157.5 123<337.365 411.616> 225.5 123<103.458 188.052>
VStem: 6.63477 507.833<243.239 262.746 243.239 243.239>
Fore
433.585 333.335 m 1xa0
 514.468 262.746 l 1
 505.24 249.828 l 2
 457.688 183.256 420.78 157.5 368 157.5 c 0xa0
 331.814 157.5 301.348 167.241 254.644 192.624 c 0
 209.581 217.114 182.399 225.5 151 225.5 c 0
 126.66 225.5 115.1 217.067 96.21 190.786 c 2
 85.0156 175.211 l 1
 6.63477 243.239 l 1
 13.8379 255.737 l 2
 50.8916 320.037 92.9326 348.5 153 348.5 c 0x60
 189.703 348.5 219.037 338.517 294.102 304.994 c 0
 336.654 285.99 353.195 280.5 368 280.5 c 0
 389.684 280.5 406.563 298.747 422.21 318.773 c 2
 433.585 333.335 l 1xa0
EndSplineSet
EndChar
StartChar: uni0591
Encoding: 256 1425 95
Width: 0
Flags: HMW
Validated: 1
VStem: -92 55 -28 55 38 55
Fore
-45.5 -60 m 2
 -45.5 -31.588 -30.1904 -10 -12 -10 c 2
 12 -10 l 2
 30.1562 -10 45.5 -31.6181 45.5 -60 c 2
 45.5 -85.8748 l 1
 74.46 -97.664 109.5 -127.156 109.5 -175 c 2
 109.5 -220 l 2
 109.5 -227.561 96.8447 -235 78 -235 c 2
 52 -235 l 2
 32.9609 -235 20.5 -227.635 20.5 -220 c 2
 20.5 -178 l 2
 20.5 -156.965 11.3604 -140 0 -140 c 0
 -11.3477 -140 -20.5 -156.942 -20.5 -178 c 2
 -20.5 -220 l 2
 -20.5 -227.561 -33.1553 -235 -52 -235 c 2
 -78 -235 l 2
 -97.0391 -235 -109.5 -227.635 -109.5 -220 c 2
 -109.5 -175 l 2
 -109.5 -128.306 -77.5488 -96.5099 -45.5 -85.0347 c 1
 -45.5 -60 l 2
EndSplineSet
EndChar
StartChar: uni0592
Encoding: 257 1426 96
Width: 0
Flags: W
Validated: 1
HStem: 630 110<-113.093 -20.9146 20.9071 113.085> 745 110<-46.736 46.7355>
VStem: -121.5 109<638.054 731.802> -55.5 111<753.746 846.413> 12.5 109<638.054 731.802>
Fore
-67 630 m 0xe0
 -97.8203 630 -121.5 655.105 -121.5 684.5 c 0
 -121.5 714.459 -97.8652 740 -67 740 c 0
 -36.0898 740 -12.5 714.452 -12.5 684.5 c 0
 -12.5 655.104 -36.21 630 -67 630 c 0xe0
0 745 m 0
 -30.6523 745 -55.5 769.86 -55.5 800.5 c 0
 -55.5 830.6 -30.5693 855 0 855 c 0
 30.5674 855 55.5 830.596 55.5 800.5 c 0xd0
 55.5 769.848 30.6396 745 0 745 c 0
67 630 m 0
 36.1797 630 12.5 655.105 12.5 684.5 c 0
 12.5 714.459 36.1348 740 67 740 c 0
 97.9102 740 121.5 714.452 121.5 684.5 c 0xc8
 121.5 655.104 97.79 630 67 630 c 0
EndSplineSet
EndChar
StartChar: uni0593
Encoding: 258 1427 97
Width: 0
Flags: HMW
Validated: 1
HStem: 574 107
Fore
-38.3623 642.403 m 2
 -73.6475 669.612 l 2
 -79.1729 674.544 -80.5566 675.294 -84.2598 679.859 c 0
 -89.959 686.888 -95.5342 697.541 -95.5342 709.329 c 0
 -95.5342 730.404 -79.127 743 -60 743 c 2
 -55.5 743 l 1
 -73.5527 756.54 l 2
 -83.4082 765.069 -90.207 770.946 -93.9746 782.836 c 0
 -95.1562 786.565 -95.5342 789.67 -95.5342 792.602 c 1
 -94.7217 796.072 -95.0625 814.801 -72.1807 820.588 c 0
 -68.6436 821.482 -64.8721 822 -60 822 c 2
 -52.5 822 l 1
 -74.5 838.5 l 2
 -80.6592 843.656 -87.7792 849.164 -92.4795 858.389 c 0
 -95.0312 863.396 -96.0342 868.167 -96.0342 872.345 c 1
 -94.3525 878.522 -94.5771 894.197 -71.7188 898.905 c 0
 -67.1357 899.849 -62.5098 900 -60 900 c 2
 13 900 l 2
 18.8311 899.62 28.8168 900.25 41.9053 894.268 c 0
 42.6533 893.926 44.5165 893.003 45.5781 892.411 c 0
 46.2617 892.03 47.8701 891.072 48.9189 890.37 c 0
 49.539 889.955 50.8657 889.005 51.8721 888.213 c 2
 66.168 876.965 l 2
 71.624 871.552 75.2939 868.596 79.0566 862.021 c 0
 81.3369 858.034 83.4082 852.897 83.4082 846.815 c 0
 83.4082 837.729 78.3258 824.792 59.5474 821.05 c 1
 75.5039 809.494 l 2
 81.3711 804.352 88.3555 798.58 92.665 789.482 c 0
 95.0049 784.542 95.8955 779.976 95.8955 775.89 c 0
 95.8955 759.156 81.9375 748 61 748 c 2
 52.2861 748 l 1
 75.6387 730.394 l 2
 81.5068 725.252 88.3555 719.58 92.665 710.482 c 0
 95.0049 705.542 95.8955 700.976 95.8955 696.89 c 0
 95.8955 680.156 81.9375 669 61 669 c 2
 45.3329 669 l 1
 47.1621 665.457 48.6465 661.089 48.6465 656.058 c 0
 48.6465 645.635 41.7178 630 14 630 c 2
 2 630 l 2
 -3.4707 630.179 -6.26367 630.027 -11.666 630.795 c 0
 -18.3193 631.74 -23.4316 633.597 -27.9131 635.888 c 0
 -32.1396 638.05 -36.3623 641.004 -38.3623 642.403 c 2
EndSplineSet
EndChar
StartChar: uni0594
Encoding: 259 1428 98
Width: 0
Flags: HMW
Validated: 1
HStem: 665 75<-10.5 10.5> 780 75<-10.5 10.5>
Fore
0 740 m 0
 30.6523 740 55.5 715.14 55.5 684.5 c 0
 55.5 654.4 30.5693 630 0 630 c 0
 -30.5674 630 -55.5 654.404 -55.5 684.5 c 0
 -55.5 715.152 -30.6396 740 0 740 c 0
0 855 m 0
 30.5674 855 55.5 830.596 55.5 800.5 c 0
 55.5 769.848 30.6396 745 0 745 c 0
 -30.6523 745 -55.5 769.86 -55.5 800.5 c 0
 -55.5 830.6 -30.5693 855 0 855 c 0
EndSplineSet
EndChar
StartChar: uni0595
Encoding: 260 1429 99
Width: 0
Flags: HMW
Validated: 1
HStem: 665 75<39.5 60.5> 780 75<39.5 60.5>
VStem: -88 55
Fore
-48 633 m 2
 -72 633 l 2
 -88.9502 633 -105.5 645.6 -105.5 664.5 c 2
 -105.5 820.5 l 2
 -105.5 839.844 -88.5146 852 -72 852 c 2
 -48 852 l 2
 -31.0498 852 -14.5 839.4 -14.5 820.5 c 2
 -14.5 664.5 l 2
 -14.5 645.156 -31.4854 633 -48 633 c 2
50 740 m 0
 80.6523 740 105.5 715.14 105.5 684.5 c 0
 105.5 654.4 80.5693 630 50 630 c 0
 19.4326 630 -5.5 654.404 -5.5 684.5 c 0
 -5.5 715.152 19.3604 740 50 740 c 0
50 855 m 0
 80.5674 855 105.5 830.596 105.5 800.5 c 0
 105.5 769.848 80.6396 745 50 745 c 0
 19.3477 745 -5.5 769.86 -5.5 800.5 c 0
 -5.5 830.6 19.4307 855 50 855 c 0
EndSplineSet
EndChar
StartChar: uni0596
Encoding: 261 1430 100
Width: 0
Flags: W
Validated: 33
HStem: -265 255
VStem: -85.4971 170.997
Fore
-22.707 -36.8242 m 0
 -8.43359 -124.373 13.1436 -152.594 62.8848 -177.877 c 0
 69.6621 -181.322 85.5 -193.709 85.5 -217.5 c 0
 85.5 -243.745 64.1943 -265 38 -265 c 0
 32.4131 -265 21.6631 -263.695 10.4023 -255.42 c 0
 -55.1221 -207.265 -83.8545 -118.004 -85.4971 -41.7275 c 0
 -85.8359 -25.9805 -72.9004 -10 -54 -10 c 0
 -38.623 -10 -25.2695 -21.1084 -22.707 -36.8242 c 0
EndSplineSet
EndChar
StartChar: uni0597
Encoding: 262 1431 101
Width: 0
Flags: W
Validated: 1
HStem: 630.122 214.628<-29.7266 29.6318>
VStem: -87.5 175<722.432 752.568 737.5 737.5 737.5 737.5>
Fore
-68.8262 704.848 m 1
 -70.7207 706.344 -79.5264 709.964 -84.5361 722.17 c 0
 -86.5996 727.198 -87.9082 732.377 -87.5 737.5 c 0
 -86.7578 746.817 -86.8613 747.165 -84.5361 752.83 c 0
 -81.8203 759.446 -76.7334 766.199 -68.8262 770.152 c 0
 -51.7881 778.672 -36.7275 796.526 -29.8486 821.23 c 0
 -27.3516 830.197 -18.0459 844.75 -0.375 844.75 c 0
 17.6719 844.75 27.0352 829.879 29.7646 820.514 c 0
 39.5898 786.811 61.0723 773.684 68.5342 770.292 c 1
 70.4287 768.796 79.5264 765.036 84.5361 752.83 c 0
 86.5996 747.802 87.9082 742.623 87.5 737.5 c 0
 86.7578 728.183 86.8613 727.835 84.5361 722.17 c 0
 81.8203 715.554 76.7334 708.801 68.8262 704.848 c 0
 51.7881 696.328 36.7285 678.474 29.8486 653.77 c 0
 27.3359 644.749 17.7822 630.122 -0.28418 630.122 c 0
 -18.0596 630.122 -27.4326 644.933 -29.8896 653.919 c 0
 -36.6533 678.657 -51.7871 696.328 -68.8262 704.848 c 1
EndSplineSet
EndChar
StartChar: uni0598
Encoding: 263 1432 102
Width: 0
Flags: W
Validated: 1
HStem: 630 190<-131.423 -49.6914 -68 -68 -68 -68> 630 67<-93.7535 -35.3677> 752 68<35.4744 93.7677>
VStem: -162.5 325<672.64 777.143 724.5 724.5 724.5 724.5> -162.5 67<697.891 733.808> 95.5 67<715.263 751.286>
Fore
-76.292 733.045 m 2x70
 -76.7764 733.529 -79.2002 736 -84 736 c 0
 -90.3154 736 -95.5 730.83 -95.5 724.5 c 0
 -95.5 709.562 -82.2656 697 -68 697 c 0x68
 -49.5869 697 -34.5 681.809 -34.5 663.5 c 0
 -34.5 645.086 -49.6914 630 -68 630 c 0
 -119.86 630 -162.5 672.64 -162.5 724.5 c 0x90
 -162.5 777.145 -119.897 820 -68 820 c 0
 -41.1436 820 -17.5771 808.826 -0.666016 791.915 c 2
 76.334 715.915 l 2
 76.8184 715.431 79.2002 713 84 713 c 0
 90.3154 713 95.5 718.17 95.5 724.5 c 0x84
 95.5 739.438 82.2656 752 68 752 c 0
 48.1992 752 34.5 767.544 34.5 785.5 c 0
 34.5 803.236 48.084 820 68 820 c 0
 119.9 820 162.5 777.143 162.5 724.5 c 0
 162.5 672.64 119.86 630 68 630 c 0
 41.1436 630 17.6191 641.134 0.708008 658.045 c 2
 -76.292 733.045 l 2x70
EndSplineSet
EndChar
StartChar: uni0599
Encoding: 264 1433 103
Width: 0
Flags: W
Validated: 33
HStem: 630 255
VStem: -85.5 170.997
Fore
22.707 656.824 m 0
 8.43359 744.373 -13.1436 772.594 -62.8848 797.877 c 0
 -69.6621 801.322 -85.5 813.709 -85.5 837.5 c 0
 -85.5 863.745 -64.1943 885 -38 885 c 0
 -32.4131 885 -21.6631 883.695 -10.4023 875.42 c 0
 55.1221 827.265 83.8545 738.004 85.4971 661.728 c 0
 85.8359 645.98 72.9004 630 54 630 c 0
 38.623 630 25.2695 641.108 22.707 656.824 c 0
EndSplineSet
EndChar
StartChar: uni059A
Encoding: 265 1434 104
Width: 0
Flags: W
Validated: 1
HStem: -235.125 215.125<91 100.562 91 100.562 91 91>
VStem: -126.25 252.75
Fore
77.709 -22.6016 m 2
 80.1494 -21.3818 81.3467 -19.6514 91 -20 c 0
 93.4785 -20.0898 103.123 -19.4688 113.669 -28.0547 c 0
 121.254 -34.2285 126.5 -43.6387 126.5 -54.5 c 0
 126.5 -70.4023 115.919 -82.084 105.289 -87.3984 c 2
 33.6846 -117.364 l 1
 101.577 -145.283 l 2
 108.478 -148.842 110.326 -149.213 114.857 -153.339 c 0
 119.61 -157.668 122.414 -162.575 124.053 -167.111 c 0
 125.614 -171.438 126.5 -176.345 126.5 -182.5 c 2
 126.5 -207.5 l 2
 126.5 -224.075 116.125 -235.125 100.562 -235.125 c 0
 96.2979 -235.125 92.0781 -234.088 88.5566 -232.768 c 2
 -105.513 -151.741 l 2
 -119.308 -146.436 -126.25 -136.033 -126.25 -125.5 c 0
 -126.25 -114.967 -119.314 -104.567 -105.519 -99.2617 c 2
 77.709 -22.6016 l 2
EndSplineSet
EndChar
StartChar: uni059B
Encoding: 266 1435 105
Width: 0
Flags: W
Validated: 33
HStem: -155 110<-93.7355 -0.914612> -30 20G<62.3072 78.1909>
VStem: -102.5 110<-146.239 -53.9172>
Fore
-47 -45 m 0
 -16.0898 -45 7.5 -70.5479 7.5 -100.5 c 0
 7.5 -129.896 -16.21 -155 -47 -155 c 0
 -77.5674 -155 -102.5 -130.596 -102.5 -100.5 c 0
 -102.5 -69.8477 -77.6396 -45 -47 -45 c 0
38.6924 -36.9121 m 0
 41.1318 -21.0928 54.6143 -10 70 -10 c 0
 86.3818 -10 103.082 -23.0049 102.493 -41.8408 c 0
 100.097 -118.477 72.1523 -207.399 6.59766 -255.42 c 0
 -1.85156 -261.609 -11.7041 -265 -22 -265 c 0
 -47.4648 -265 -69.5 -244.463 -69.5 -217.5 c 0
 -69.5 -201.639 -59.7637 -184.919 -45.8848 -177.877 c 0
 3.86816 -152.634 25.2002 -124.414 38.6924 -36.9121 c 0
EndSplineSet
EndChar
StartChar: uni059C
Encoding: 267 1436 106
Width: 0
Flags: W
Validated: 33
HStem: 630 255
VStem: -85.4971 170.997
Fore
-22.707 656.824 m 0
 -25.2822 641.026 -38.6143 630 -54 630 c 0
 -69.75 630 -85.8906 642.831 -85.4971 661.728 c 0
 -83.9092 738.005 -55.1982 827.369 10.4023 875.42 c 0
 18.8018 881.572 28.1182 885 38 885 c 0
 64.2451 885 85.5 863.694 85.5 837.5 c 0
 85.5 813.709 69.6621 801.322 62.8848 797.877 c 0
 13.1562 772.601 -8.43555 744.368 -22.707 656.824 c 0
EndSplineSet
EndChar
StartChar: uni059D
Encoding: 268 1437 107
Width: 0
Flags: W
Validated: 33
HStem: 630 255
VStem: -85.4971 170.997
Fore
-22.707 656.824 m 0
 -25.2822 641.026 -38.6143 630 -54 630 c 0
 -69.75 630 -85.8906 642.831 -85.4971 661.728 c 0
 -83.9092 738.005 -55.1982 827.369 10.4023 875.42 c 0
 18.8018 881.572 28.1182 885 38 885 c 0
 64.2451 885 85.5 863.694 85.5 837.5 c 0
 85.5 813.709 69.6621 801.322 62.8848 797.877 c 0
 13.1562 772.601 -8.43555 744.368 -22.707 656.824 c 0
EndSplineSet
EndChar
StartChar: uni059E
Encoding: 269 1438 108
Width: 0
Flags: W
Validated: 33
HStem: 630 255<-9.75 20.1745>
VStem: -145.497 290.997<661.728 837.5 661.728 661.728>
Fore
-82.707 656.824 m 0
 -85.2824 641.026 -98.6143 630 -114 630 c 0
 -129.75 630 -145.891 642.831 -145.497 661.728 c 0
 -143.909 738.005 -115.198 827.369 -49.5977 875.42 c 0
 -41.1982 881.572 -31.8818 885 -22 885 c 0
 4.24512 885 25.5 863.694 25.5 837.5 c 0
 25.5 833.974 25.1521 830.699 24.5374 827.666 c 1
 37.1835 845.944 52.4046 862.237 70.4023 875.42 c 0
 78.8018 881.572 88.1182 885 98 885 c 0
 124.245 885 145.5 863.694 145.5 837.5 c 0
 145.5 813.709 129.662 801.322 122.885 797.877 c 0
 73.1577 772.598 51.5645 744.368 37.293 656.824 c 0
 34.7176 641.026 21.3857 630 6 630 c 0
 -9.75 630 -25.8905 642.831 -25.4971 661.728 c 0
 -24.5397 707.705 -13.728 758.438 9.07733 802.011 c 1
 6.71609 800.081 4.5326 798.715 2.88477 797.877 c 0
 -46.8423 772.598 -68.4355 744.368 -82.707 656.824 c 0
EndSplineSet
EndChar
StartChar: uni059F
Encoding: 270 1439 109
Width: 0
Flags: W
Validated: 1
HStem: 630.676 255.415<-128.813 -73.2559 73.2559 128.813> 687.084 60.882<-138.072 -132.873 -136.766 -111.583 111.581 136.766 132.873 138.072> 808.844 77.247<-150.014 -119.633 -122.226 -117.214 117.214 122.226 119.633 150.014>
VStem: -231.591 463.182<741.691 795.26 783.687 783.687 1029.71 1034.73> -231.591 73.237<754.75 787.144 782.424 787.674> -96.2461 68.8174<761.066 800.021> 27.4287 68.8174<761.063 800.021> 158.354 73.237<754.749 787.144 782.424 787.674>
Fore
-44.1157 727.066 m 1x90
 -17.9453 684.418 l 2
 -15.4385 680.031 -13.2148 674.419 -13.2148 668.201 c 0
 -13.2148 653.148 -24.8086 645.76 -32.0752 643.035 c 2
 -61.0752 633.035 l 2
 -65.7451 631.284 -69.5293 630.676 -73.2559 630.676 c 0x90
 -86.584 630.676 -95.334 639.568 -99.4941 650.66 c 2
 -110.403 683.412 l 1
 -117.095 681.983 -124.059 681.212 -131.167 681.212 c 0
 -142.017 681.212 -153.117 683.078 -164.062 687.084 c 0x50
 -205.68 702.315 -231.591 741.688 -231.591 783.687 c 0
 -231.591 795.26 -229.606 807.041 -225.446 818.48 c 0
 -210.301 860.129 -170.812 886.091 -128.813 886.091 c 0
 -117.24 886.091 -105.294 884.191 -93.9014 879.902 c 0
 -51.8867 864.084 -27.4287 824.014 -27.4287 783.117 c 0
 -27.4287 765.221 -32.3208 746.607 -42.2168 730.145 c 2
 -44.1157 727.066 l 1x90
-96.2461 777.336 m 0x6c
 -96.2461 789.39 -104.22 802.053 -117.214 807.143 c 0
 -120.606 808.471 -123.812 808.844 -127.239 808.844 c 0
 -139.864 808.844 -151.87 800.936 -156.499 787.674 c 0
 -157.705 784.217 -158.354 780.641 -158.354 777.174 c 0
 -158.354 764.465 -150.416 752.411 -138.072 747.966 c 0
 -134.627 746.725 -131.141 746.146 -127.673 746.146 c 0
 -114.965 746.146 -102.898 754.404 -98.3574 766.714 c 0
 -97.0707 770.202 -96.2461 773.885 -96.2461 777.336 c 0x6c
127.239 808.844 m 0
 123.813 808.844 120.604 808.47 117.214 807.143 c 0
 104.227 802.055 96.2461 789.39 96.2461 777.336 c 0
 96.2461 773.886 97.0716 770.2 98.3574 766.714 c 0
 102.902 754.392 114.954 746.146 127.673 746.146 c 0
 131.139 746.146 134.629 746.726 138.072 747.966 c 0
 150.428 752.415 158.354 764.454 158.354 777.174 c 0x61
 158.354 780.639 157.705 784.218 156.499 787.674 c 0
 151.865 800.95 139.871 808.844 127.239 808.844 c 0
131.167 681.212 m 0
 124.057 681.212 117.095 681.983 110.403 683.412 c 1
 99.4941 650.66 l 2
 96.6377 643.045 88.9336 630.676 73.2559 630.676 c 0
 69.5293 630.676 65.7451 631.284 61.0752 633.035 c 2
 32.0752 643.035 l 2
 23.4238 646.279 13.2148 654.343 13.2148 668.201 c 0
 13.2148 674.594 15.5488 680.225 17.9453 684.418 c 2
 44.1311 727.091 l 1
 42.2168 730.145 l 2
 32.2887 746.59 27.4287 765.219 27.4287 783.117 c 0x82
 27.4287 824.008 51.8936 864.087 93.9014 879.902 c 0
 105.295 884.191 117.24 886.091 128.813 886.091 c 0
 170.809 886.091 210.303 860.125 225.446 818.48 c 0
 229.606 807.04 231.591 795.261 231.591 783.687 c 0x90
 231.591 741.691 205.676 702.315 164.062 687.084 c 0
 153.115 683.077 142.02 681.212 131.167 681.212 c 0
EndSplineSet
EndChar
StartChar: uni05A0
Encoding: 271 1440 110
Width: 0
Flags: W
Validated: 1
HStem: 630.676 255.415<-49.0996 6.81348>
VStem: -109.226 218.817<668.301 783.687 673.551 678.801> -95.0127 68.6592<760.664 800.358> 36.3535 73.2375<754.75 787.144 782.424 787.674>
Fore
4.75391 808.844 m 0xb0
 1.14844 808.844 -2.21582 808.531 -5.8877 807.107 c 0
 -18.79 802.103 -26.3535 789.558 -26.3535 776.837 c 0
 -26.3535 773.357 -25.774 769.871 -24.5342 766.428 c 0
 -20.0914 754.088 -8.21191 746.146 5.15723 746.146 c 0
 8.80176 746.146 12.4443 746.671 16.1738 748.001 c 0
 28.543 752.414 36.3535 764.454 36.3535 777.174 c 0
 36.3535 780.639 35.7051 784.218 34.499 787.674 c 0
 29.8711 800.934 18.04 808.844 4.75391 808.844 c 0xb0
9 681.212 m 0
 1.98854 681.212 -4.92172 681.941 -11.6448 683.269 c 1
 -22.5059 650.66 l 2
 -25.4707 642.756 -33.208 630.676 -49.0996 630.676 c 0
 -51.5869 630.676 -55.7871 630.984 -61.71 632.959 c 2
 -90.0156 643.066 l 2
 -100.475 646.989 -109.226 655.608 -109.226 668.301 c 0xc0
 -109.226 675.249 -106.739 680.717 -103.653 685.037 c 2
 -78.3513 727.918 l 1
 -78.8279 728.771 -79.5288 729.736 -80.0781 730.628 c 0
 -90.2966 747.218 -95.0127 765.205 -95.0127 783.222 c 0xa0
 -95.0127 824.279 -69.9697 864.139 -28.0986 879.902 c 0
 -16.7051 884.191 -4.75977 886.091 6.81348 886.091 c 0
 48.8086 886.091 88.3027 860.125 103.446 818.48 c 0
 107.606 807.04 109.591 795.261 109.591 783.687 c 0xc0
 109.591 741.691 83.6758 702.314 42.0625 687.084 c 0
 31.1143 683.077 19.9834 681.212 9 681.212 c 0
EndSplineSet
EndChar
StartChar: uni05A1
Encoding: 272 1441 111
Width: 0
Flags: HMW
Validated: 1
HStem: 655 75 770 75
VStem: -89 55<682 730 755 838>
Fore
-16.5 755 m 1
 -15 755 l 2
 -10.4697 755.174 -2.16309 754.957 5.17285 757.938 c 0
 9.22559 759.584 12.5137 762.029 14.5049 768.237 c 0
 15.4883 771.302 16.5 776.49 16.5 784.5 c 2
 16.5 820.5 l 2
 16.5 839.4 32.6504 852 49 852 c 2
 74 852 l 2
 90.3818 852 106.5 839.345 106.5 820.5 c 2
 106.5 773.5 l 2
 106.5 710.7 66.0498 695 25 695 c 2
 -16.5 695 l 1
 -16.5 664.5 l 2
 -16.5 645.6 -32.6504 633 -49 633 c 2
 -74 633 l 2
 -90.3818 633 -106.5 645.655 -106.5 664.5 c 2
 -106.5 820.5 l 2
 -106.5 839.539 -90.542 852 -74 852 c 2
 -49 852 l 2
 -32.6504 852 -16.5 839.4 -16.5 820.5 c 2
 -16.5 755 l 1
EndSplineSet
EndChar
StartChar: uni05A3
Encoding: 273 1443 112
Width: 0
Flags: HMW
Validated: 1
HStem: -110 55
Fore
62.5 -130 m 1
 62.5 -42.5 l 2
 62.5 -24.2998 76.6846 -10 95 -10 c 2
 100 -10 l 2
 118.2 -10 132.5 -24.1846 132.5 -42.5 c 2
 132.5 -187.5 l 2
 132.5 -205.7 118.315 -220 100 -220 c 2
 -100 -220 l 2
 -118.2 -220 -132.5 -205.815 -132.5 -187.5 c 2
 -132.5 -162.5 l 2
 -132.5 -144.3 -118.315 -130 -100 -130 c 2
 62.5 -130 l 1
EndSplineSet
EndChar
StartChar: uni05A4
Encoding: 274 1444 113
Width: 0
Flags: W
Validated: 1
HStem: -235.125 215.125<91 100.562 91 100.562 91 91>
VStem: -126.25 252.75
Fore
77.709 -22.6016 m 2
 80.1494 -21.3818 81.3467 -19.6514 91 -20 c 0
 93.4785 -20.0898 103.123 -19.4688 113.669 -28.0547 c 0
 121.254 -34.2285 126.5 -43.6387 126.5 -54.5 c 0
 126.5 -70.4023 115.919 -82.084 105.289 -87.3984 c 2
 33.6846 -117.364 l 1
 101.577 -145.283 l 2
 108.478 -148.842 110.326 -149.213 114.857 -153.339 c 0
 119.61 -157.668 122.414 -162.575 124.053 -167.111 c 0
 125.614 -171.438 126.5 -176.345 126.5 -182.5 c 2
 126.5 -207.5 l 2
 126.5 -224.075 116.125 -235.125 100.562 -235.125 c 0
 96.2979 -235.125 92.0781 -234.088 88.5566 -232.768 c 2
 -105.513 -151.741 l 2
 -119.308 -146.436 -126.25 -136.033 -126.25 -125.5 c 0
 -126.25 -114.967 -119.314 -104.567 -105.519 -99.2617 c 2
 77.709 -22.6016 l 2
EndSplineSet
EndChar
StartChar: uni05A5
Encoding: 275 1445 114
Width: 0
Flags: W
Validated: 33
HStem: -265 255
VStem: -85.5 170.997
Fore
22.707 -36.8242 m 0
 25.2822 -21.0264 38.6143 -10 54 -10 c 0
 69.75 -10 85.8906 -22.8311 85.4971 -41.7275 c 0
 83.9092 -118.005 55.1982 -207.369 -10.4023 -255.42 c 0
 -18.8018 -261.572 -28.1182 -265 -38 -265 c 0
 -64.2451 -265 -85.5 -243.694 -85.5 -217.5 c 0
 -85.5 -193.709 -69.6621 -181.322 -62.8848 -177.877 c 0
 -13.1562 -152.601 8.43555 -124.368 22.707 -36.8242 c 0
EndSplineSet
EndChar
StartChar: uni05A6
Encoding: 276 1446 115
Width: 0
Flags: W
Validated: 33
HStem: -265 255<-20.1745 9.75>
VStem: -145.5 290.997<-217.5 -41.7275 -217.5 -217.5>
Fore
82.707 -36.8242 m 0
 85.2824 -21.0264 98.6143 -10 114 -10 c 0
 129.75 -10 145.891 -22.8311 145.497 -41.7275 c 0
 143.909 -118.005 115.198 -207.369 49.5977 -255.42 c 0
 41.1982 -261.572 31.8818 -265 22 -265 c 0
 -4.24512 -265 -25.5 -243.694 -25.5 -217.5 c 0
 -25.5 -213.974 -25.1521 -210.699 -24.5374 -207.666 c 1
 -37.1835 -225.944 -52.4046 -242.237 -70.4023 -255.42 c 0
 -78.8018 -261.572 -88.1182 -265 -98 -265 c 0
 -124.245 -265 -145.5 -243.694 -145.5 -217.5 c 0
 -145.5 -193.709 -129.662 -181.322 -122.885 -177.877 c 0
 -73.1577 -152.598 -51.5645 -124.368 -37.293 -36.8242 c 0
 -34.7176 -21.0264 -21.3857 -10 -6 -10 c 0
 9.75 -10 25.8905 -22.8311 25.4971 -41.7275 c 0
 24.5397 -87.7052 13.728 -138.438 -9.07734 -182.011 c 1
 -6.7161 -180.081 -4.53261 -178.715 -2.88477 -177.877 c 0
 46.8423 -152.598 68.4355 -124.368 82.707 -36.8242 c 0
EndSplineSet
EndChar
StartChar: uni05A7
Encoding: 277 1447 116
Width: 0
Flags: HMW
Validated: 1
HStem: -95 60
Fore
75.6621 -169.427 m 2
 76.6377 -170.505 81.9482 -176.096 85.3955 -180.75 c 0
 92.832 -190.789 94.3389 -199.808 94.9512 -204.772 c 0
 95.4277 -208.632 95.5 -212.072 95.5 -214.5 c 2
 95.5 -229.5 l 2
 95.1055 -231.896 94.3135 -239.213 93.5547 -241.487 c 0
 88.6924 -256.075 76.4219 -264 65 -264 c 2
 -65 -264 l 1
 -71.4678 -262.167 -86.9307 -261.361 -93.5547 -241.487 c 0
 -95.0713 -236.938 -95.5 -233.096 -95.5 -229.5 c 2
 -95.5 -212.5 l 2
 -95.5 -196.343 -84.4238 -179 -65 -179 c 2
 -10.249 -179 l 1
 -73.374 -115.874 l 2
 -76.0576 -113.134 -81.7168 -107.753 -86.1309 -101.525 c 0
 -93.0957 -91.6992 -94.4434 -83.0928 -95.0146 -78.3047 c 0
 -95.2227 -76.5566 -95.5 -73.5801 -95.5 -69.5 c 2
 -95.5 -54.5 l 2
 -95.5 -36.8496 -83.2998 -20 -65 -20 c 2
 65 -20 l 2
 83.2998 -20 95.5 -36.8496 95.5 -54.5 c 2
 95.5 -70.5 l 2
 95.5 -88.1504 83.2998 -105 65 -105 c 2
 11.249 -105 l 1
 75.6621 -169.427 l 2
EndSplineSet
EndChar
StartChar: uni05A8
Encoding: 278 1448 117
Width: 0
Flags: W
Validated: 33
HStem: 630 255
VStem: -85.5 170.997
Fore
22.707 656.824 m 0
 8.43359 744.373 -13.1436 772.594 -62.8848 797.877 c 0
 -69.6621 801.322 -85.5 813.709 -85.5 837.5 c 0
 -85.5 863.745 -64.1943 885 -38 885 c 0
 -32.4131 885 -21.6631 883.695 -10.4023 875.42 c 0
 55.1221 827.265 83.8545 738.004 85.4971 661.728 c 0
 85.8359 645.98 72.9004 630 54 630 c 0
 38.623 630 25.2695 641.108 22.707 656.824 c 0
EndSplineSet
EndChar
StartChar: uni05A9
Encoding: 279 1449 118
Width: 0
Flags: W
Validated: 1
HStem: 630.676 255.415<-6.81348 49.0996>
VStem: -109.591 218.817<668.301 783.687 791.066 796.007> -109.591 73.2375<754.751 787.144 782.424 787.674> 26.3535 68.6592<760.679 800.358>
Fore
78.355 727.911 m 1x90
 103.653 685.037 l 2
 106.739 680.717 109.226 675.249 109.226 668.301 c 0
 109.226 653.188 97.375 645.827 90.0156 643.066 c 2
 61.71 632.959 l 2
 58.0537 631.74 53.5977 630.676 49.0996 630.676 c 0
 33.208 630.676 25.4707 642.756 22.5059 650.66 c 2
 11.6448 683.269 l 1
 4.92188 681.941 -1.9891 681.212 -9 681.212 c 0
 -19.9805 681.212 -31.1162 683.078 -42.0625 687.084 c 0
 -83.6797 702.315 -109.591 741.688 -109.591 783.687 c 0xc0
 -109.591 795.26 -107.606 807.041 -103.446 818.48 c 0
 -88.301 860.129 -48.8125 886.091 -6.81348 886.091 c 0
 4.75977 886.091 16.706 884.191 28.0986 879.902 c 0
 69.9756 864.137 95.0127 824.284 95.0127 783.222 c 0
 95.0127 765.207 90.1702 747.292 80.0781 730.628 c 0
 79.3092 729.358 78.7227 728.532 78.355 727.911 c 1x90
26.3535 776.837 m 0xb0
 26.3535 789.551 18.7851 802.104 5.8877 807.107 c 0
 2.21483 808.532 -1.14844 808.844 -4.75391 808.844 c 0
 -18.0352 808.844 -29.877 800.916 -34.499 787.674 c 0
 -35.7051 784.217 -36.3535 780.641 -36.3535 777.174 c 0
 -36.3535 764.465 -28.5312 752.41 -16.1738 748.001 c 0
 -12.4434 746.671 -8.80273 746.146 -5.15723 746.146 c 0
 8.20312 746.146 20.0961 754.104 24.5342 766.428 c 0
 25.775 769.873 26.3535 773.355 26.3535 776.837 c 0xb0
EndSplineSet
EndChar
StartChar: uni05AA
Encoding: 280 1450 119
Width: 0
Flags: HMW
Validated: 1
VStem: -92 55 -28 55 38 55
Fore
-109.5 -105 m 2
 -109.5 -60 l 2
 -109.5 -34.7972 -96.8447 -10 -78 -10 c 2
 -52 -10 l 2
 -32.9609 -10 -20.5 -34.5508 -20.5 -60 c 2
 -20.5 -102 l 2
 -20.5 -103.661 -11.3604 -105 0 -105 c 0
 11.3477 -105 20.5 -103.662 20.5 -102 c 2
 20.5 -60 l 2
 20.5 -34.7972 33.1553 -10 52 -10 c 2
 78 -10 l 2
 97.0391 -10 109.5 -34.5508 109.5 -60 c 2
 109.5 -105 l 2
 109.5 -135.008 74.46 -153.506 45.5 -160.9 c 1
 45.5 -220 l 2
 45.5 -228.524 30.1904 -235 12 -235 c 2
 -12 -235 l 2
 -30.1562 -235 -45.5 -228.515 -45.5 -220 c 2
 -45.5 -161.359 l 1
 -77.5146 -154.164 -109.5 -134.229 -109.5 -105 c 2
EndSplineSet
EndChar
StartChar: uni05AB
Encoding: 281 1451 120
Width: 0
Flags: W
Validated: 1
HStem: 628.875 215.125<96.2979 110.594 91 100.562 91 91>
VStem: -126.25 252.75
Fore
85 843 m 2
 85.5996 843 86.2002 844 91 844 c 0
 110.594 844 126.5 828.046 126.5 808.5 c 1
 124.004 796.134 125.135 797.008 121.468 791.043 c 0
 118.277 785.854 112.565 780.239 105.289 776.602 c 2
 33.6846 746.636 l 1
 101.577 718.717 l 2
 108.478 715.158 110.326 714.787 114.857 710.661 c 0
 119.61 706.332 122.414 701.425 124.053 696.889 c 0
 125.614 692.562 126.5 687.655 126.5 681.5 c 2
 126.5 656.5 l 2
 126.5 639.925 116.125 628.875 100.562 628.875 c 0
 96.2979 628.875 92.0781 629.912 88.5566 631.232 c 2
 -105.513 712.259 l 2
 -119.308 717.564 -126.25 727.967 -126.25 738.5 c 0
 -126.25 749.033 -119.314 759.433 -105.519 764.738 c 2
 81.4863 843 l 1
 85 843 l 2
EndSplineSet
EndChar
StartChar: uni05AC
Encoding: 282 1452 121
Width: 0
Flags: HMW
Validated: 1
HStem: 775 55
Fore
62.5 720 m 1
 62.5 807.5 l 2
 62.5 825.7 76.6846 840 95 840 c 2
 100 840 l 2
 118.2 840 132.5 825.815 132.5 807.5 c 2
 132.5 662.5 l 2
 132.5 644.3 118.315 630 100 630 c 2
 -100 630 l 2
 -118.2 630 -132.5 644.185 -132.5 662.5 c 2
 -132.5 687.5 l 2
 -132.5 705.7 -118.315 720 -100 720 c 2
 62.5 720 l 1
EndSplineSet
EndChar
StartChar: uni05AD
Encoding: 283 1453 122
Width: 0
Flags: W
Validated: 33
HStem: -265 255
VStem: -85.4971 170.997
Fore
-22.707 -36.8242 m 0
 -8.43359 -124.373 13.1436 -152.594 62.8848 -177.877 c 0
 69.6621 -181.322 85.5 -193.709 85.5 -217.5 c 0
 85.5 -243.745 64.1943 -265 38 -265 c 0
 32.4131 -265 21.6631 -263.695 10.4023 -255.42 c 0
 -55.1221 -207.265 -83.8545 -118.004 -85.4971 -41.7275 c 0
 -85.8359 -25.9805 -72.9004 -10 -54 -10 c 0
 -38.623 -10 -25.2695 -21.1084 -22.707 -36.8242 c 0
EndSplineSet
EndChar
StartChar: uni05AE
Encoding: 284 1454 123
Width: 0
Flags: W
Validated: 1
HStem: 630 190<-131.423 -49.6914 -68 -68 -68 -68> 630 67<-93.7535 -35.3677> 752 68<35.4744 93.7677>
VStem: -162.5 325<672.64 777.143 724.5 724.5 724.5 724.5> -162.5 67<697.891 733.808> 95.5 67<715.263 751.286>
Fore
-76.292 733.045 m 2x70
 -76.7764 733.529 -79.2002 736 -84 736 c 0
 -90.3154 736 -95.5 730.83 -95.5 724.5 c 0
 -95.5 709.562 -82.2656 697 -68 697 c 0x68
 -49.5869 697 -34.5 681.809 -34.5 663.5 c 0
 -34.5 645.086 -49.6914 630 -68 630 c 0
 -119.86 630 -162.5 672.64 -162.5 724.5 c 0x90
 -162.5 777.145 -119.897 820 -68 820 c 0
 -41.1436 820 -17.5771 808.826 -0.666016 791.915 c 2
 76.334 715.915 l 2
 76.8184 715.431 79.2002 713 84 713 c 0
 90.3154 713 95.5 718.17 95.5 724.5 c 0x84
 95.5 739.438 82.2656 752 68 752 c 0
 48.1992 752 34.5 767.544 34.5 785.5 c 0
 34.5 803.236 48.084 820 68 820 c 0
 119.9 820 162.5 777.143 162.5 724.5 c 0
 162.5 672.64 119.86 630 68 630 c 0
 41.1436 630 17.6191 641.134 0.708008 658.045 c 2
 -76.292 733.045 l 2x70
EndSplineSet
EndChar
StartChar: uni05AF
Encoding: 285 1455 124
Width: 0
Flags: HMW
Validated: 1
HStem: 680 44 813 44
VStem: -89 44 44 44
Fore
-0 768 m 0
 -17.3105 768 -31.5 753.804 -31.5 736.5 c 0
 -31.5 719.189 -17.3037 705 -0 705 c 0
 17.3105 705 31.5 719.196 31.5 736.5 c 0
 31.5 753.811 17.3037 768 -0 768 c 0
0 843 m 0
 58.7041 843 106.5 795.202 106.5 736.5 c 0
 106.5 677.796 58.7021 630 0 630 c 0
 -58.7041 630 -106.5 677.798 -106.5 736.5 c 0
 -106.5 795.204 -58.7021 843 0 843 c 0
EndSplineSet
EndChar
StartChar: afii57799
Encoding: 286 1456 125
Width: 0
Flags: W
Validated: 1
HStem: -235 110<-46.7355 46.736> -120 110<-46.736 46.7355>
VStem: -55.5 111<-226.413 -133.746 -111.253 -18.5869>
Fore
0 -125 m 0
 30.6523 -125 55.5 -149.86 55.5 -180.5 c 0
 55.5 -210.6 30.5693 -235 0 -235 c 0
 -30.5674 -235 -55.5 -210.596 -55.5 -180.5 c 0
 -55.5 -149.848 -30.6396 -125 0 -125 c 0
0 -10 m 0
 30.5674 -10 55.5 -34.4043 55.5 -64.5 c 0
 55.5 -95.1523 30.6396 -120 0 -120 c 0
 -30.6523 -120 -55.5 -95.1396 -55.5 -64.5 c 0
 -55.5 -34.4004 -30.5693 -10 0 -10 c 0
EndSplineSet
EndChar
StartChar: afii57801
Encoding: 287 1457 126
Width: 0
Flags: W
Validated: 1
HStem: -235 110<-111.093 -18.9146 85.2646 178.736> -120 110<-178.736 -85.2646 -44.736 48.7355 85.2641 178.735>
VStem: -187.5 111<-111.253 -18.5869> -119.5 109<-226.946 -133.198> -53.5 111<-111.253 -18.5869> 76.5 111<-226.413 -133.746 -111.253 -18.5869>
Fore
-132 -10 m 0xe4
 -101.433 -10 -76.5 -34.4043 -76.5 -64.5 c 0
 -76.5 -95.1523 -101.36 -120 -132 -120 c 0
 -162.652 -120 -187.5 -95.1396 -187.5 -64.5 c 0
 -187.5 -34.4004 -162.569 -10 -132 -10 c 0xe4
-65 -125 m 0
 -34.0898 -125 -10.5 -150.548 -10.5 -180.5 c 0
 -10.5 -209.896 -34.21 -235 -65 -235 c 0
 -95.8203 -235 -119.5 -209.895 -119.5 -180.5 c 0xd4
 -119.5 -150.541 -95.8652 -125 -65 -125 c 0
2 -10 m 0
 32.5674 -10 57.5 -34.4043 57.5 -64.5 c 0
 57.5 -95.1523 32.6396 -120 2 -120 c 0
 -28.6523 -120 -53.5 -95.1396 -53.5 -64.5 c 0xcc
 -53.5 -34.4004 -28.5693 -10 2 -10 c 0
132 -125 m 0
 162.652 -125 187.5 -149.86 187.5 -180.5 c 0
 187.5 -210.6 162.569 -235 132 -235 c 0
 101.433 -235 76.5 -210.596 76.5 -180.5 c 0
 76.5 -149.848 101.36 -125 132 -125 c 0
132 -10 m 0
 162.567 -10 187.5 -34.4043 187.5 -64.5 c 0
 187.5 -95.1523 162.64 -120 132 -120 c 0
 101.348 -120 76.5 -95.1396 76.5 -64.5 c 0
 76.5 -34.4004 101.431 -10 132 -10 c 0
EndSplineSet
EndChar
StartChar: afii57800
Encoding: 288 1458 127
Width: 0
Flags: HMW
Validated: 1
HStem: -235 75<120.5 141.5> -110 55<-159.5 23 -155 23>
VStem: 94 75
Fore
-187.5 -52.5 m 2
 -187.5 -36.25 -174.5 -20 -155 -20 c 2
 23 -20 l 2
 42.5 -20 55.5 -36.25 55.5 -52.5 c 2
 55.5 -77.5 l 2
 55.5 -93.75 42.5 -110 23 -110 c 2
 -155 -110 l 2
 -174.5 -110 -187.5 -93.75 -187.5 -77.5 c 2
 -187.5 -52.5 l 2
131 -125 m 0
 161.91 -125 185.5 -150.548 185.5 -180.5 c 0
 185.5 -209.896 161.79 -235 131 -235 c 0
 100.433 -235 75.5 -210.596 75.5 -180.5 c 0
 75.5 -149.848 100.36 -125 131 -125 c 0
131 -10 m 0
 161.82 -10 185.5 -35.1055 185.5 -64.5 c 0
 185.5 -94.459 161.865 -120 131 -120 c 0
 100.348 -120 75.5 -95.1396 75.5 -64.5 c 0
 75.5 -34.4004 100.431 -10 131 -10 c 0
EndSplineSet
EndChar
StartChar: afii57802
Encoding: 289 1459 128
Width: 0
Flags: HMW
Validated: 33
HStem: -235 75<120.5 141.5> -110 55<-159.5 23 -155 -122 -24 -10 -10 23>
VStem: -84 37 94 75
Fore
-122 -110 m 2
 -155 -110 l 2
 -174.5 -110 -187.5 -93.75 -187.5 -77.5 c 2
 -187.5 -52.5 l 2
 -187.5 -36.25 -174.5 -20 -155 -20 c 2
 23 -20 l 2
 42.5 -20 55.5 -36.25 55.5 -52.5 c 2
 55.5 -77.5 l 2
 55.5 -93.75 42.5 -110 23 -110 c 2
 -10 -110 l 2
 -14.834 -110.169 -16.6445 -110.157 -18.2988 -110.288 c 0
 -29.708 -111.186 -30.5 -112.1 -30.5 -120.5 c 0
 -30.5 -121.385 -30.5234 -124.039 -30.5234 -124.923 c 0
 -30.5234 -130.859 -30.8145 -136.864 -25.1328 -143.661 c 0
 -23.3887 -145.748 -16.2773 -151.802 -12.9072 -167.155 c 0
 -11.9463 -171.531 -11.5 -176 -11.5 -180.5 c 0
 -11.5 -209.896 -35.21 -235 -66 -235 c 0
 -96.5674 -235 -121.5 -210.596 -121.5 -180.5 c 0
 -121.5 -165.728 -115.325 -152.602 -107.094 -142.893 c 0
 -106.416 -142.095 -103.586 -139.474 -102.718 -134.019 c 0
 -102.369 -131.827 -102.357 -129.484 -102.357 -128.459 c 0
 -102.357 -125.627 -102.35 -123.441 -102.5 -120.5 c 0
 -102.862 -113.386 -100.902 -111.406 -114.398 -110.281 c 0
 -114.837 -110.245 -116.8 -110 -122 -110 c 2
131 -125 m 0
 161.91 -125 185.5 -150.548 185.5 -180.5 c 0
 185.5 -209.896 161.79 -235 131 -235 c 0
 100.433 -235 75.5 -210.596 75.5 -180.5 c 0
 75.5 -149.848 100.36 -125 131 -125 c 0
131 -10 m 0
 161.82 -10 185.5 -35.1055 185.5 -64.5 c 0
 185.5 -94.459 161.865 -120 131 -120 c 0
 100.348 -120 75.5 -95.1396 75.5 -64.5 c 0
 75.5 -34.4004 100.431 -10 131 -10 c 0
EndSplineSet
EndChar
StartChar: afii57793
Encoding: 290 1460 129
Width: 0
Flags: W
Validated: 1
HStem: -120 110<-46.736 46.7355>
VStem: -55.5 111<-111.253 -18.5869>
Fore
0 -10 m 0
 30.5674 -10 55.5 -34.4043 55.5 -64.5 c 0
 55.5 -95.1523 30.6396 -120 0 -120 c 0
 -30.6523 -120 -55.5 -95.1396 -55.5 -64.5 c 0
 -55.5 -34.4004 -30.5693 -10 0 -10 c 0
EndSplineSet
EndChar
StartChar: afii57794
Encoding: 291 1461 130
Width: 0
Flags: HMW
Validated: 1
VStem: -95 75<-92.5 -72> 20 75<-92.5 -72>
Fore
58 -10 m 0
 88.0137 -10 112.5 -42.336 112.5 -82 c 0
 112.5 -102.929 88.0957 -120 58 -120 c 0
 27.3477 -120 2.5 -102.979 2.5 -82 c 0
 2.5 -42.2354 27.4307 -10 58 -10 c 0
-58 -10 m 0
 -27.4326 -10 -2.5 -42.2405 -2.5 -82 c 0
 -2.5 -102.987 -27.3604 -120 -58 -120 c 0
 -88.0996 -120 -112.5 -102.93 -112.5 -82 c 0
 -112.5 -42.3489 -88.0234 -10 -58 -10 c 0
EndSplineSet
EndChar
StartChar: afii57795
Encoding: 292 1462 131
Width: 0
Flags: W
Validated: 1
HStem: -235 110<-46.7355 46.736> -120 110<-113.085 -20.9071 20.9146 113.093>
VStem: -121.5 109<-111.802 -18.0542> -55.5 111<-226.413 -133.746> 12.5 109<-111.802 -18.0542>
Fore
-67 -10 m 0xe0
 -36.1797 -10 -12.5 -35.1055 -12.5 -64.5 c 0
 -12.5 -94.459 -36.1348 -120 -67 -120 c 0
 -97.9102 -120 -121.5 -94.4521 -121.5 -64.5 c 0
 -121.5 -35.1045 -97.79 -10 -67 -10 c 0xe0
0 -125 m 0
 30.6523 -125 55.5 -149.86 55.5 -180.5 c 0
 55.5 -210.6 30.5693 -235 0 -235 c 0
 -30.5674 -235 -55.5 -210.596 -55.5 -180.5 c 0xd0
 -55.5 -149.848 -30.6396 -125 0 -125 c 0
67 -10 m 0
 97.8203 -10 121.5 -35.1055 121.5 -64.5 c 0
 121.5 -94.459 97.8652 -120 67 -120 c 0
 36.0898 -120 12.5 -94.4521 12.5 -64.5 c 0xc8
 12.5 -35.1045 36.21 -10 67 -10 c 0
EndSplineSet
EndChar
StartChar: afii57798
Encoding: 293 1463 132
Width: 0
Flags: W
Validated: 1
HStem: -110 90<-131.85 131.85 -100 100 -100 -100>
VStem: -132.5 265<-109.35 -20.65>
Fore
-132.5 -52.5 m 2
 -132.5 -34.2998 -118.315 -20 -100 -20 c 2
 100 -20 l 2
 118.2 -20 132.5 -34.1846 132.5 -52.5 c 2
 132.5 -77.5 l 2
 132.5 -95.7002 118.315 -110 100 -110 c 2
 -100 -110 l 2
 -118.2 -110 -132.5 -95.8154 -132.5 -77.5 c 2
 -132.5 -52.5 l 2
EndSplineSet
EndChar
StartChar: afii57797
Encoding: 294 1464 133
Width: 0
Flags: W
Validated: 1
HStem: -235.31 215<-35.3785 35.1585> -110.31 90.0004<-131.96 -48.4748 35.9926 51.6668 51.6668 131.74>
VStem: -55.6104 111<-226.723 -162.549>
Fore
47.9326 -151.701 m 1x60
 47.5447 -152.79 l 1
 49.1643 -155.374 50.7701 -158.484 52.1465 -162.279 c 0
 54.2305 -168.026 55.3896 -174.288 55.3896 -180.81 c 0
 55.3896 -210.909 30.459 -235.31 -0.110352 -235.31 c 0xa0
 -30.6777 -235.31 -55.6104 -210.905 -55.6104 -180.81 c 0
 -55.6104 -166.037 -49.6064 -152.764 -41.2041 -143.202 c 0
 -36.223 -137.534 -35.5869 -131.328 -35.5869 -125.229 c 0
 -35.5869 -124.346 -35.55 -121.691 -35.6104 -120.81 c 0
 -36.0277 -114.713 -34.5772 -111.738 -48.4521 -110.592 c 0
 -48.9131 -110.554 -50.9102 -110.31 -56.1104 -110.31 c 2
 -100.11 -110.31 l 2
 -118.311 -110.31 -132.61 -96.125 -132.61 -77.8096 c 2
 -132.61 -52.8096 l 2
 -132.61 -34.6094 -118.426 -20.3096 -100.11 -20.3096 c 2
 99.8896 -20.3096 l 2
 118.09 -20.3096 132.39 -34.4941 132.39 -52.8096 c 2
 132.39 -77.8096 l 2
 132.39 -96.0098 118.205 -110.31 99.8896 -110.31 c 2
 55.8896 -110.31 l 2
 51.0557 -110.479 49.2451 -110.467 47.5908 -110.598 c 0
 36.1818 -111.498 35.3896 -112.409 35.3896 -120.81 c 0
 35.3896 -121.687 35.3662 -124.315 35.3662 -125.192 c 0
 35.3662 -131.209 35.5273 -137.53 41.167 -143.973 c 2
 47.9326 -151.701 l 1x60
EndSplineSet
EndChar
StartChar: afii57806
Encoding: 295 1465 134
Width: 0
Flags: W
Validated: 1
HStem: 610 110<-46.7355 46.736>
VStem: -55.5 111<618.587 711.254>
Fore
0 720 m 0
 30.6523 720 55.5 695.14 55.5 664.5 c 0
 55.5 634.4 30.5693 610 0 610 c 0
 -30.5674 610 -55.5 634.404 -55.5 664.5 c 0
 -55.5 695.152 -30.6396 720 0 720 c 0
EndSplineSet
EndChar
StartChar: afii57796
Encoding: 296 1467 135
Width: 0
Flags: W
Validated: 1
HStem: -235 110<58.9071 151.085> -178 111<-46.7534 46.7534> -120 110<-151.085 -58.9071>
VStem: -159.5 109<-111.802 -18.0542> -55.5 111<-169.254 -75.7466> 50.5 109<-226.946 -133.198>
Fore
105 -125 m 0x84
 135.91 -125 159.5 -150.548 159.5 -180.5 c 0
 159.5 -209.896 135.79 -235 105 -235 c 0
 74.1797 -235 50.5 -209.895 50.5 -180.5 c 0
 50.5 -150.541 74.1348 -125 105 -125 c 0x84
-55.5 -122.5 m 0x48
 -55.5 -91.8477 -30.6396 -67 0 -67 c 0
 30.6523 -67 55.5 -91.8604 55.5 -122.5 c 0
 55.5 -153.152 30.6396 -178 0 -178 c 0
 -30.6523 -178 -55.5 -153.14 -55.5 -122.5 c 0x48
-159.5 -64.5 m 0x30
 -159.5 -35.1045 -135.79 -10 -105 -10 c 0
 -74.1797 -10 -50.5 -35.1055 -50.5 -64.5 c 0
 -50.5 -94.459 -74.1348 -120 -105 -120 c 0
 -135.91 -120 -159.5 -94.4521 -159.5 -64.5 c 0x30
EndSplineSet
EndChar
StartChar: afii57807
Encoding: 297 1468 136
Width: 0
Flags: W
Validated: 1
HStem: 245 111<-17.5 46.7534>
VStem: -55.5 111<253.746 347.254>
Fore
-55.5 300.5 m 0
 -55.5 324.9 -39.6397 345.827 -17.5 352.929 c 1
 -17.5 356 l 1
 0 356 l 2
 30.6523 356 55.5 331.14 55.5 300.5 c 0
 55.5 269.848 30.6396 245 0 245 c 0
 -30.6523 245 -55.5 269.86 -55.5 300.5 c 0
EndSplineSet
EndChar
StartChar: afii57839
Encoding: 298 1469 137
Width: 0
Flags: HMW
Validated: 1
VStem: -28 55
Fore
-45.5 -215 m 2
 -45.5 -60 l 2
 -45.5 -31.588 -30.1904 -10 -12 -10 c 2
 12 -10 l 2
 30.1562 -10 45.5 -31.6181 45.5 -60 c 2
 45.5 -215 l 2
 45.5 -223.524 30.1904 -230 12 -230 c 2
 -12 -230 l 2
 -30.1562 -230 -45.5 -223.515 -45.5 -215 c 2
EndSplineSet
EndChar
StartChar: afii57645
Encoding: 299 1470 138
Width: 503
Flags: W
Validated: 1
HStem: 439.322 195<57.9985 465.991>
VStem: 36 433<462.659 610.985>
Fore
36 590.822 m 2
 36.9346 601.859 37.2705 609.229 43.251 618 c 0
 45.7627 621.683 48.3711 624.165 51.041 626.177 c 0
 59.8662 632.828 70.8789 634.322 79.5 634.322 c 2
 421.5 634.322 l 2
 459.5 634.322 469 608.822 469 591.822 c 2
 469 481.822 l 2
 469 464.822 459.5 439.322 421.5 439.322 c 2
 79.5 439.322 l 2
 67.9541 440.066 59.8662 440.816 51.041 447.468 c 0
 48.3711 449.479 45.7627 451.962 43.251 455.645 c 0
 37.2705 464.416 36 474.732 36 482.822 c 2
 36 590.822 l 2
EndSplineSet
EndChar
StartChar: afii57841
Encoding: 300 1471 139
Width: 0
Flags: W
Validated: 1
HStem: 619 90<-116.85 116.85 -85 85 -85 -85>
VStem: -117.5 235<619.65 708.35>
Fore
-117.5 676.5 m 2
 -117.5 694.7 -103.315 709 -85 709 c 2
 85 709 l 2
 103.2 709 117.5 694.815 117.5 676.5 c 2
 117.5 651.5 l 2
 117.5 633.3 103.315 619 85 619 c 2
 -85 619 l 2
 -103.2 619 -117.5 633.185 -117.5 651.5 c 2
 -117.5 676.5 l 2
EndSplineSet
EndChar
StartChar: afii57842
Encoding: 301 1472 140
Width: 190
Flags: W
Validated: 1
HStem: -15 21G<73.3999 116.658>
VStem: 50 90<-14.7 659.7 0 645 1.53064e-18 1.53064e-18>
Fore
82.5 -15 m 2
 64.2998 -15 50 -8.45312 50 0 c 2
 50 645 l 2
 50 653.4 64.1846 660 82.5 660 c 2
 107.5 660 l 2
 125.7 660 140 653.453 140 645 c 2
 140 0 l 2
 140 -8.40039 125.815 -15 107.5 -15 c 2
 82.5 -15 l 2
EndSplineSet
EndChar
StartChar: afii57804
Encoding: 302 1473 141
Width: 0
Flags: W
Validated: 1
HStem: 595 110<597.264 690.735>
VStem: 588.5 111<603.746 696.413>
Fore
644 705 m 0
 674.567 705 699.5 680.596 699.5 650.5 c 0
 699.5 619.848 674.64 595 644 595 c 0
 613.348 595 588.5 619.86 588.5 650.5 c 0
 588.5 680.6 613.431 705 644 705 c 0
EndSplineSet
EndChar
StartChar: afii57803
Encoding: 303 1474 142
Width: 0
Flags: W
Validated: 1
HStem: 595 109.999<125.595 171.5 171.5 218.235>
VStem: 117 110<603.764 696.243>
Fore
171.5 704.999 m 1
 171.5 705 l 1
 202.067 705 227 680.596 227 650.5 c 0
 227 619.848 202.14 595 171.5 595 c 0
 141.4 595 117 619.931 117 650.5 c 0
 117 680.391 141.436 704.731 171.5 704.999 c 1
EndSplineSet
EndChar
StartChar: afii57658
Encoding: 304 1475 143
Width: 435
Flags: W
Validated: 33
HStem: 617.25 20G<210.434 222.615>
VStem: 100.299 234.5<133.002 165.694 149.875 150.25 150.25 150.25>
Fore
124.059 114.749 m 0
 108.264 121.015 99.5098 136.326 100.299 150.25 c 0
 100.843 159.851 101.074 160.261 103.707 165.957 c 0
 104.781 168.279 110.47 178.932 124.499 184.442 c 0
 151.229 194.943 172.002 217.507 182.298 243.49 c 0
 188.424 258.95 203.444 267.25 217.424 267.25 c 0
 227.805 267.25 244.312 262.604 251.869 243.296 c 0
 262.497 216.142 284.519 194.132 310.62 184.411 c 0
 330.051 177.175 334.799 160.256 334.799 149.875 c 0
 334.799 135.959 326.373 120.829 311.039 114.749 c 0
 286.3 104.94 262.501 85.1807 251.96 56.9287 c 0
 244.721 37.5264 227.901 32.75 217.549 32.75 c 0
 207.196 32.75 190.377 37.5264 183.138 56.9287 c 0
 172.597 85.1807 148.797 104.937 124.059 114.749 c 0
124.059 484.749 m 0
 108.264 491.015 99.5098 506.326 100.299 520.25 c 0
 100.843 529.851 101.074 530.261 103.707 535.957 c 0
 104.781 538.279 110.47 548.932 124.499 554.442 c 0
 151.229 564.943 172.002 587.507 182.298 613.49 c 0
 188.424 628.95 203.444 637.25 217.424 637.25 c 0
 227.805 637.25 244.312 632.604 251.869 613.296 c 0
 262.497 586.142 284.519 564.132 310.62 554.411 c 0
 330.051 547.175 334.799 530.256 334.799 519.875 c 0
 334.799 505.959 326.373 490.829 311.039 484.749 c 0
 286.3 474.94 262.501 455.181 251.96 426.929 c 0
 244.721 407.526 227.901 402.75 217.549 402.75 c 0
 207.196 402.75 190.377 407.526 183.138 426.929 c 0
 172.597 455.181 148.797 474.937 124.059 484.749 c 0
EndSplineSet
EndChar
StartChar: uni05C4
Encoding: 305 1476 144
Width: 0
Flags: W
Validated: 1
HStem: 610 110<-46.7355 46.736>
VStem: -55.5 111<618.587 711.254>
Fore
0 720 m 0
 30.6523 720 55.5 695.14 55.5 664.5 c 0
 55.5 634.4 30.5693 610 0 610 c 0
 -30.5674 610 -55.5 634.404 -55.5 664.5 c 0
 -55.5 695.152 -30.6396 720 0 720 c 0
EndSplineSet
EndChar
StartChar: afii57664
Encoding: 306 1488 145
Width: 628
Flags: W
Validated: 1
HStem: -0.0664062 21G<67.4732 78.9209 492.751 499.862> 623.769 20G<149.891 159.316>
VStem: 41.0615 547.719<136.84 455.283 136.84 136.84> 72.2773 207.223<31.1152 107.625>
Fore
179.961 629.363 m 0xe0
 179.691 627.823 179.478 626.132 179.478 624.494 c 0
 179.478 616.194 181.422 611.046 183.076 607.923 c 0
 204.109 546.609 234.389 513.565 285.694 471.762 c 2
 379.472 391.946 l 1
 386.46 405.059 401.225 432.832 405.848 442.138 c 0
 405.974 442.392 406.297 442.932 406.416 443.943 c 0
 406.436 444.112 406.444 444.423 406.444 444.423 c 2
 406.444 445.622 405.451 446.898 404.537 447.685 c 0
 371.912 475.743 355.833 494.72 348.264 536.288 c 0
 347.229 541.968 346.924 547.915 346.924 553.714 c 0
 346.924 579.483 354.247 606.59 359.78 618 c 0
 372.196 625.693 388.369 630.381 404.301 633.384 c 0
 407.768 635.559 415.308 639.939 423.04 642.428 c 0
 426.659 643.593 430.504 644.903 434.684 644.407 c 0
 442.823 643.441 450.952 643.062 459.431 630.39 c 0
 465.161 622.284 468.393 612.447 474.342 600.621 c 0
 476.48 596.371 480.465 590.967 493.835 582.992 c 0
 509.373 573.726 567.572 546.755 582.348 496.817 c 0
 586.765 481.889 588.781 468.13 588.781 455.283 c 0
 588.781 420.525 575.003 394.283 562.429 370.037 c 0
 555.402 356.49 548.335 346.956 534.473 341.581 c 0
 530.367 339.99 526.737 339.436 523.418 339.436 c 0
 519.081 339.436 508.711 340.495 501.698 351.024 c 0
 493.293 363.646 481.734 374.083 466.814 382.389 c 1
 466.32 382.575 466.289 382.611 465.772 382.674 c 0
 465.533 382.704 465.422 382.696 465.422 382.696 c 1
 465.422 382.696 465.306 382.722 465.081 382.672 c 1
 465.094 382.658 465.088 382.617 465.039 382.526 c 2
 435.833 331.015 l 1
 516.507 268.594 572.432 221.247 578.955 135.83 c 0
 579.211 132.481 579.34 128.935 579.34 125.527 c 0
 579.34 86.2822 563.254 40.8975 527.482 13.875 c 0
 523.153 10.4189 520.889 8.71191 516.091 5.98242 c 0
 510.742 2.94043 503.919 -0.0664062 495.804 -0.0664062 c 1
 489.698 1.30469 476.691 0.712891 467.993 18.8955 c 0
 464.019 27.2061 462.385 32.5547 459.087 65.7617 c 0
 454.752 109.414 342.028 196.444 265.205 261.134 c 0
 232.592 288.596 193.849 324.024 173.677 340.616 c 1
 163.624 329.025 154.854 316.279 154.854 303.177 c 0
 154.854 302.721 154.856 301.693 154.91 301.24 c 0
 159.784 260.67 222.895 229.054 260.778 175.619 c 0
 268.447 164.802 279.5 141.451 279.5 107.625 c 0
 279.5 80.7783 271.506 50.3301 247.197 28.4844 c 0
 224.343 7.94531 200.583 0 169.5 0 c 2
 80.5 0 l 2
 80.1494 0 79.0967 -0.0126953 78.7451 -0.0126953 c 0
 56.2012 -0.0126953 50.5654 5.56445 50.5654 9.28223 c 1
 51.2637 10.4678 50.4365 12.0889 54.9395 15.1211 c 0
 55.873 15.75 57.2012 16.5488 60.082 17.9619 c 0
 62.7568 19.2734 67.2969 22.8271 70.7168 25 c 0
 72.1191 27.1709 72.3213 29.1748 72.2773 31.1152 c 0xd0
 72.2607 31.8018 72.3916 34.1299 70.7109 37.8027 c 0
 70.4102 38.459 69.7275 39.748 68.8828 41.0449 c 0
 63.6953 49.0098 41.0615 79.4141 41.0615 136.84 c 0
 41.0615 143.914 41.3799 151.402 42.0645 159.338 c 0
 49.0879 240.727 63.252 276.297 125.578 348.453 c 1
 99.583 378.624 63.5928 411.975 56.2744 453.159 c 0
 53.4932 468.813 51.8516 483.445 51.8516 497.738 c 0
 51.8516 525.787 58.5039 551.746 71.7451 579.035 c 0
 81.2959 598.717 103.864 623.975 121.479 634.492 c 0
 127.484 638.073 131.071 639.779 137.727 641.771 c 0
 138.538 642.013 140.951 642.636 141.833 642.823 c 0
 142.669 643.001 145.061 643.401 146.054 643.515 c 0
 146.923 643.613 149.353 643.769 150.43 643.769 c 0
 168.202 643.769 180.051 638.496 180.051 630.586 c 0
 180.051 630.357 180.001 629.592 179.961 629.363 c 0xe0
EndSplineSet
EndChar
StartChar: afii57665
Encoding: 307 1489 146
Width: 568
Flags: W
Validated: 1
HStem: 0 195<75.2033 454.034> 624.51 20G<96.3112 104.453>
VStem: 21.2832 543.999<31.2363 164.596 37.5536 68.0344> 454.034 62.04<195 201.317 201.317 231.798 216.558 351.912>
Fore
529.5 195 m 2xd0
 550.97 195 565.282 182.838 565.282 164.596 c 0
 565.282 159.655 564.313 154.522 561.54 148.512 c 2
 513.836 32.2363 l 2
 504.415 5.85742 483.158 0 466.5 0 c 2
 57.5 0 l 2
 35.7705 0 21.2832 12.4941 21.2832 31.2363 c 0xe0
 21.2832 35.6064 22.1396 40.5068 24.2383 45.9619 c 2
 72.3623 163.268 l 2
 81.8223 185.341 98.1826 195 119.5 195 c 2
 454.034 195 l 1
 454.137 198.948 454.224 203.307 454.224 207.653 c 0
 454.224 285.529 434.212 364.588 404.273 384.905 c 0
 321.339 441.186 204.731 411.319 134.821 428.051 c 0
 71.2275 444.39 59.9414 479.966 53.4209 506.817 c 0
 50.4746 518.951 49.2148 530.959 49.2148 542.522 c 0
 49.2148 570.949 56.8262 597.271 68.7979 619.381 c 0
 72.1318 625.538 74.1348 628.864 79.1201 633.879 c 0
 84.0459 639.229 91.4785 644.51 101.144 644.51 c 1
 107.763 642.749 113.617 644.033 122.516 634.326 c 0
 124.6 632.221 127.799 628.641 131.197 622.202 c 0
 143.407 599.07 173.473 604.274 212.155 602.508 c 0
 261.285 600.264 387.153 604.915 453.97 539.237 c 0
 507.637 479.219 517.561 372.326 517.561 268.572 c 0
 517.561 244.104 516.96 219.991 516.074 195 c 1
 529.5 195 l 2xd0
EndSplineSet
EndChar
StartChar: afii57666
Encoding: 308 1490 147
Width: 409
Flags: W
Validated: 33
HStem: 0 184.902<85.7117 220.776>
VStem: 263 123.946<129.805 200.548> 271.044 60.938<275.8 402.804>
Fore
230 40 m 6xc0
 214.465 17.9268 208.507 0 173.5 0 c 2
 45.5 0 l 2
 23.7705 0 9.2832 11.8467 9.2832 29.6191 c 0
 9.2832 34.5449 10.4932 39.2812 12.2383 43.582 c 2
 60.3623 154.813 l 2
 69.8223 175.743 86.1826 184.902 107.5 184.902 c 2
 239.188 184.902 l 2
 257.443 184.902 263 189.219 263 200.548 c 0xc0
 263 282.054 264.027 322.925 271.044 397.128 c 0
 271.044 401.931 268.318 402.686 265.038 403.158 c 0
 208.669 408.215 150.054 413.312 118.368 441.768 c 0
 105.185 453.607 93.3096 470.85 86.8047 490.479 c 0
 79.8848 511.361 79.3193 535.338 80.0332 546.417 c 0
 81.7246 572.664 92.3799 600.832 99.8027 611.598 c 0
 104.393 618.254 114.812 634.417 129.136 640.893 c 0
 133.961 643.192 138.464 644.209 142.459 643.999 c 0
 144.321 643.901 151.087 644.309 159.923 638.513 c 0
 169.689 632.442 179.573 621.809 184.704 616.992 c 0
 198.906 603.659 239.814 597.958 255.03 595.741 c 0
 315.72 581.962 338.29 545.869 343.709 518.354 c 0
 344.74 513.116 345.127 507.861 345.127 502.734 c 0
 345.127 474.848 331.858 442.313 331.858 409.78 c 0
 331.858 407.912 331.893 406.156 331.982 404.296 c 0xa0
 335.928 322.915 378.385 220.02 383.891 173.3 c 0
 385.761 157.435 386.946 143.388 386.946 129.805 c 0
 386.946 92.1445 376.921 62.2422 365.813 35.6621 c 0
 363.398 29.8838 358.241 17.1465 349.184 8.61523 c 0
 344.319 3.78027 337.166 -0.512695 328.778 -0.512695 c 1
 322.119 1.4082 315.962 0.0927734 307.283 10.123 c 0
 298.693 20.0508 294.535 35.0361 293.273 42.4238 c 0
 289.726 63.2021 286.199 84.1699 282.833 101.547 c 1
 230 40 l 6xc0
EndSplineSet
EndChar
StartChar: afii57667
Encoding: 309 1491 148
Width: 593
Flags: W
Validated: 1
HStem: -4.68652 21G<447.951 466.171> 416.944 184.744<133.079 181.351 181.351 426.971> 624.51 20G<81.3306 88.9727>
VStem: 31.5986 523.73<500.962 507.226 507.226 583.804> 419.979 112.482<95.6995 165.541>
Fore
193.098 601.819 m 2xf0
 469.5 601.819 l 2
 543.053 601.819 553.729 556.213 554.984 513.016 c 0
 555.098 509.117 555.329 505.412 555.329 501.433 c 0
 555.329 479.639 551.936 428.574 493.343 418.707 c 1
 500.998 368.286 524.687 217.605 530.868 166.011 c 0
 532.069 155.985 532.461 146.031 532.461 140.981 c 0
 532.461 112.824 527.636 71.4443 505.305 29.0859 c 0
 500.804 20.5488 499.835 18.8252 494.636 13.0576 c 0
 485.333 2.15723 472.823 -4.68652 459.518 -4.68652 c 0
 436.384 -4.68652 419.979 13.8242 419.979 38.709 c 0xe8
 419.979 39.0732 419.994 40.0723 420.005 40.4355 c 2
 426.971 416.944 l 1
 125.5 416.944 l 2
 70.7695 416.944 39.8135 472.797 34.3213 500.543 c 0
 32.5508 509.487 31.5986 518.659 31.5986 528.285 c 0
 31.5986 564.731 42.6943 598.905 53.7588 619.027 c 0
 57.6416 626.089 59.2793 629.846 65.1211 635.372 c 0
 69.8994 640.14 77.0176 644.51 85.6436 644.51 c 1
 92.3018 642.733 98.3633 643.996 107.123 634.097 c 0
 109.197 631.878 111.807 628.422 115.277 621.751 c 0
 123.095 606.727 134.703 601.688 169.692 601.688 c 0
 176.336 601.688 184.528 601.819 193.098 601.819 c 2xf0
EndSplineSet
EndChar
StartChar: afii57668
Encoding: 310 1492 149
Width: 631
Flags: W
Validated: 33
HStem: -4.68652 21G<495.451 513.671> 416.893 184.806<125.051 191.616 191.616 460.764> 624.51 20G<89.8111 97.9533>
VStem: 47.2852 121.737<148.824 231.599 231.599 247.343 247.343 255.77> 467.479 112.482<67.5668 197.036>
Fore
47.5605 45.9492 m 0
 55.3447 130.263 49.1885 191.243 58.6709 258.938 c 0
 64.2529 298.78 82.542 332.151 103.008 354.224 c 0
 109.52 361.246 117.671 369.195 129.326 372.413 c 0
 132.717 373.349 135.475 373.634 138.111 373.634 c 1
 141.727 372.721 159.311 374.609 167.748 351.104 c 0
 169.749 345.766 170.697 340.277 170.697 334.74 c 0
 170.697 330.4 170.167 326.478 168.978 322.256 c 0
 166.797 313.531 165.955 304.013 165.955 293.352 c 0
 165.955 279.892 167.58 264.378 168.477 247.343 c 0
 169.027 236.899 169.022 226.21 169.022 215.86 c 0
 169.022 159.293 162.624 102.29 128.652 35.6738 c 0
 118.758 16.2705 107.328 0.310547 88.4082 -4.40918 c 0
 85.3291 -5.17676 82.3691 -5.63965 80.4805 -5.40234 c 0
 76.9619 -4.96094 59.5684 -6.52148 50.7988 16.9619 c 0
 49.2803 21.0283 47.2852 27.9062 47.2852 38.8193 c 0
 47.2852 40.2109 47.4326 44.5635 47.5605 45.9492 c 0
203.549 601.831 m 2
 505 601.831 l 2
 578.553 601.831 589.349 556.003 590.494 512.802 c 0
 590.554 510.548 590.598 508.122 590.598 505.799 c 0
 590.598 467.295 579.62 427.863 528.844 418.885 c 1
 536.851 369.804 572.038 218.887 578.368 166.014 c 0
 579.568 155.987 579.961 146.034 579.961 140.983 c 0
 579.961 112.826 575.136 71.4453 552.805 29.0859 c 0
 548.304 20.5488 547.335 18.8252 542.136 13.0576 c 0
 532.833 2.15723 520.323 -4.68652 507.018 -4.68652 c 0
 483.884 -4.68652 467.479 13.8223 467.479 38.7041 c 0
 467.479 39.0674 467.493 39.7969 467.505 40.1611 c 2
 460.764 416.893 l 1
 135 416.893 l 2
 79.6689 416.893 48.333 472.611 42.8213 500.481 c 0
 41.1201 509.087 40.2197 517.852 40.2197 527.034 c 0
 40.2197 558.914 48.9287 593.684 62.2979 619.038 c 0
 65.624 625.345 67.6348 628.746 72.6201 633.879 c 0
 77.5459 639.229 84.9785 644.51 94.6436 644.51 c 1
 101.263 642.749 107.117 644.033 116.016 634.326 c 0
 118.1 632.174 121.291 628.511 124.697 621.935 c 0
 132.202 607.444 141.971 601.699 179.724 601.699 c 0
 187.191 601.699 195.18 601.831 203.549 601.831 c 2
EndSplineSet
EndChar
StartChar: afii57669
Encoding: 311 1493 150
Width: 301
Flags: W
Validated: 1
HStem: -4.68652 21G<171.951 190.171>
VStem: 38.7754 216.92<485.724 509.901 509.901 522.472 522.472 552.459 552.459 558.154 558.154 566.127> 143.979 112.482<86.0191 158.571>
Fore
258.438 496.839 m 0xc0
 258.438 464.583 248.438 433.901 227.613 407.681 c 0
 226.862 406.735 223.884 402.226 222.387 397.751 c 0
 222.188 397.156 222.291 397.672 221.95 396.236 c 0
 221.853 395.826 221.928 396.646 221.715 394.965 c 0
 221.631 394.302 221.648 395.9 221.648 393.979 c 0
 221.648 393.715 221.703 393.229 221.746 392.963 c 0
 232.811 325.17 248.557 214.273 254.868 159.104 c 0
 256.069 147.723 256.461 136.424 256.461 130.69 c 0
 256.461 102.913 251.636 62.0908 229.305 20.3037 c 0
 224.804 13.1738 223.835 11.7344 218.636 6.91797 c 0
 209.333 -0.210938 196.823 -4.68652 183.518 -4.68652 c 0
 160.384 -4.68652 143.979 7.37305 143.979 23.582 c 0xa0
 143.979 24.0947 143.995 25.7305 144.01 26.2422 c 0
 149.438 172.592 153.831 319.555 155.023 392.765 c 0
 155.026 392.939 155.076 393.948 155.076 394.124 c 0
 155.076 399.393 151.806 404.86 146.805 406.148 c 0
 113.537 409.894 93.6074 413.901 82.4971 417.296 c 0
 65.2734 431.201 46.8975 455.085 38.7754 485.724 c 0
 33.2354 505.464 31.6621 528.553 31.6621 546.727 c 0
 31.6621 550.983 31.8564 554.691 32.0273 558.154 c 0
 33.3086 582.379 43.3691 607.896 50.6982 617.897 c 0
 52.8252 620.603 63.4248 635.133 75.9023 641.507 c 0
 80.2832 642.839 86.1406 644.128 92.959 644.01 c 0
 94.8281 643.979 101.637 644.16 110.46 641.38 c 0
 120.18 636.397 127.048 627.803 130.271 623.924 c 0
 139.588 604.567 164.532 597.083 173.978 593.936 c 0
 232.052 581.78 251.059 543.33 255.695 522.966 c 0
 257.564 514.27 258.438 505.477 258.438 496.839 c 0xc0
EndSplineSet
EndChar
StartChar: afii57670
Encoding: 312 1494 151
Width: 326
Flags: W
Validated: 1
HStem: -7.1709 21G<153.737 158.946>
VStem: 30.6514 262.432<503.019 521.345> 96.5234 94.3236<268.374 345.768> 127.769 63.078<367.906 417.471>
Fore
99.1553 299.153 m 0xa0
 106.334 349.694 116.917 372.597 126.568 410.304 c 0
 126.914 411.653 127.769 414.707 127.769 417.471 c 0x90
 127.769 418.744 127.969 420.987 126.151 421.443 c 0
 105.204 426.7 86.3809 435.365 70.5127 447.616 c 0
 54.126 460.269 42.958 477.388 36.8184 495.836 c 0
 31.7783 510.98 30.6514 527.485 30.6514 541.28 c 0xc0
 30.6514 545.28 30.8525 548.915 31.0273 552.534 c 0
 32.3105 579.096 43.3281 606.944 50.6982 618 c 0
 52.7998 620.367 62.9512 633.173 75.1611 638.869 c 0
 79.5928 641.746 85.6416 644.449 92.624 644.245 c 0
 94.3857 644.193 99.6709 643.48 101.351 643.003 c 0
 108.89 640.967 118.576 635.677 135.033 617.945 c 0
 137.003 615.823 137.204 615.906 137.708 615.553 c 0
 140.346 613.702 137.862 615.395 139.223 614.564 c 0
 148.444 608.926 166.058 603.879 181.582 602.102 c 0
 221.251 597.559 253.891 582.588 275.904 552.369 c 0
 291.566 530.869 293.083 497.888 293.083 484.279 c 0
 293.083 474.526 292.405 464.705 290.809 455.144 c 0
 290.072 450.733 286.988 427.419 277.119 413.612 c 0
 268.239 401.189 256.773 399.742 251.688 399.742 c 0
 247.652 399.742 243.47 400.514 238.514 402.541 c 0
 230.781 405.705 222.02 408.297 210.853 408.297 c 0
 208.59 408.297 205.992 408.17 203.433 407.9 c 2
 202.469 407.798 l 1
 201.5 407.798 l 2
 198.898 407.502 196.612 407.553 193.965 398.471 c 0
 193.663 397.437 193.237 396.359 192.802 393.464 c 0
 191.325 383.646 190.847 375.442 190.847 367.906 c 0x90
 190.847 335.778 201.963 317.521 212.497 276.601 c 0
 219.96 247.61 225.345 223.41 225.345 191.791 c 0
 225.345 173.258 223.635 152.323 219.836 126.228 c 0
 214.745 91.2588 208.526 67.5566 197.08 35.9326 c 0
 194.227 28.0508 186.779 9.7041 173.622 -0.227539 c 0
 169.212 -3.7373 162.615 -7.1709 155.277 -7.1709 c 1
 152.198 -6.4668 137.181 -7.81055 129.105 13.7363 c 0
 126.497 20.3984 124 31.7568 124 49.8945 c 0
 124 85.1035 120.455 116.591 115.263 144.669 c 0
 106.605 191.478 96.5234 220.995 96.5234 262.063 c 0
 96.5234 273.594 97.2686 285.866 99.1553 299.153 c 0xa0
EndSplineSet
EndChar
StartChar: afii57671
Encoding: 313 1495 152
Width: 629
Flags: W
Validated: 1
HStem: -4.68652 21G<493.951 512.171> 440 161.699<184.536 189.369 189.369 459.257> 624.51 20G<88.3111 96.4532>
VStem: 38.7197 550.378<501.128 509.302 509.302 562.084> 54.7852 115.241<87.4207 205.146 172.975 237.316> 56.9199 111.063<180.142 243.596 243.596 281.394 281.394 308.373> 465.979 112.482<68.7757 227.748>
Fore
184.536 440 m 1xe2
 176.441 431.583 166.725 415.82 163.77 397.671 c 0
 161.685 384.866 160.673 368.821 160.673 352.119 c 0
 160.673 306.469 167.157 256.963 167.983 238.271 c 0xe6
 168.883 217.889 170.026 198.635 170.026 179.233 c 0
 170.026 128.987 162.327 86.7822 136.152 35.6738 c 0
 126.224 16.2881 114.828 0.310547 95.9082 -4.40918 c 0
 92.8291 -5.17676 89.8691 -5.63965 87.9805 -5.40234 c 0
 84.4619 -4.96094 67.0684 -6.52148 58.2988 16.9619 c 0
 56.7803 20.8096 54.7852 27.3184 54.7852 37.6455 c 0xe8
 54.7852 38.9629 54.9336 43.082 55.0605 44.3926 c 0
 57.6201 70.8291 58.4443 96.9629 58.4443 122.231 c 0
 58.4443 157.61 56.9199 191.582 56.9199 223.562 c 0xe4
 56.9199 237.271 57.1719 250.645 58.0342 263.595 c 0
 60.7109 303.756 64.5586 361.683 102.684 423.391 c 1
 48.123 441.298 45.0801 481.939 41.3213 500.725 c 0
 39.6035 509.312 38.7197 518.062 38.7197 527.229 c 0xf0
 38.7197 559.05 47.4287 593.757 60.7979 619.065 c 0
 64.124 625.36 66.1348 628.756 71.1201 633.879 c 0
 76.0459 639.229 83.4785 644.51 93.1436 644.51 c 1
 99.7627 642.749 105.617 644.033 114.516 634.326 c 0
 116.6 632.174 119.795 628.513 123.197 621.935 c 0
 132.675 603.609 151.028 601.699 177.594 601.699 c 0
 184.997 601.699 192.908 601.831 201.185 601.831 c 2
 503.5 601.831 l 2
 577.053 601.831 587.849 556.003 588.994 512.802 c 0
 589.054 510.548 589.098 508.122 589.098 505.799 c 0
 589.098 467.295 578.12 427.863 527.344 418.885 c 1
 535.351 369.804 570.538 218.887 576.868 166.014 c 0
 578.068 155.987 578.461 146.034 578.461 140.983 c 0
 578.461 112.826 573.636 71.4453 551.305 29.0859 c 0
 546.804 20.5488 545.835 18.8252 540.636 13.0576 c 0
 531.333 2.15723 518.823 -4.68652 505.518 -4.68652 c 0
 482.384 -4.68652 465.979 14.8369 465.979 41.082 c 0
 465.979 41.4658 465.993 42.2354 466.005 42.6191 c 2
 459.257 440 l 1
 184.536 440 l 1xe2
EndSplineSet
EndChar
StartChar: afii57672
Encoding: 314 1496 153
Width: 646
Flags: W
Validated: 33
HStem: 0.0107422 184.855<169.697 555.41> 414.475 200.931<379.148 448.333>
VStem: 32.6514 594.685<260.189 535.372 556.887 563.877> 73.0156 83.9824<245.463 256.281 256.281 377.202> 559.137 68.199<188.08 322.404>
Fore
114.562 417.816 m 0xd8
 92.6533 423.927 85.4043 428.957 71.4004 441.661 c 0
 57.0449 454.686 45.1045 471.697 38.8184 490.376 c 0
 33.7725 505.369 32.6514 521.714 32.6514 535.372 c 0xe0
 32.6514 539.333 32.8525 542.932 33.0273 546.516 c 0
 34.3105 572.815 45.3164 600.397 52.6982 611.337 c 0
 54.8066 614.461 65.1943 631.267 77.5029 638.743 c 0
 81.8584 641.534 87.7402 644.243 94.5586 643.999 c 0
 96.4189 643.933 103.18 644.297 111.985 638.488 c 0
 121.72 632.4 129.205 621.787 132.322 616.977 c 0
 141.021 603.55 166.781 598.073 176.1 595.727 c 0
 209.183 588.147 236.436 573.356 254.022 551.15 c 0
 271.092 529.598 265 501.123 265 487.5 c 0
 265 477.963 261.829 464.388 260 455 c 0
 256.523 437.158 253.153 418.98 232.5 405 c 4
 227.004 401.28 228.74 389.783 220.404 389.783 c 0
 217.952 389.783 211.396 391.062 209.08 391.759 c 0
 194.11 396.258 194.568 398.415 180.43 399.179 c 0
 180.354 399.183 180.032 399.232 179.898 399.212 c 2
 179.805 399.198 l 2
 179.27 398.985 178.192 397.782 177.541 396.588 c 0
 164.004 369.368 156.57 344.988 156.998 310.653 c 0
 157.559 265.682 160.752 240.236 169.697 190.293 c 1
 169.696 190.292 169.101 184.866 177.585 184.866 c 2
 549.101 184.854 l 1
 549.103 184.848 555.33 186.511 555.849 190.32 c 0
 558.156 207.297 559.137 223.048 559.137 238.221 c 0
 559.137 290.707 545.874 331.844 510.648 368.084 c 0
 483.204 396.319 445.548 414.475 417.149 414.475 c 0
 410.548 414.475 402.721 413.516 395.103 409.803 c 0
 373.407 399.226 350.363 356.958 335.304 283.257 c 0
 333.8 275.896 333.556 274.428 330.727 269.023 c 0
 324.807 257.718 313.96 250.91 300.012 250.91 c 0
 298.547 250.91 294.832 251.281 293.38 251.453 c 0
 286.449 252.276 263.566 257.898 263.566 284.064 c 0
 263.566 285.491 263.987 289.327 264.15 290.748 c 0
 276.508 398.237 306.684 513.241 342.5 600 c 1
 343.068 600.675 348.786 615.406 384.483 615.406 c 0
 385.5 615.406 388.591 615.284 389.604 615.201 c 0
 490.648 606.961 574.042 544.191 613.543 383.453 c 0
 623.379 343.429 627.336 301.664 627.336 260.189 c 0
 627.336 179.055 612.399 99.583 595.612 35.9238 c 1
 595.36 35.4922 589.42 0 547.429 0 c 2
 123.064 0.0107422 l 1
 122.868 0.0947266 85.0879 1.75488 83.0283 34.6045 c 0
 77.2412 126.919 77.0195 165.033 73.0156 252.91 c 0
 72.9541 254.253 72.873 258.309 72.873 259.653 c 0
 72.873 321.466 104.423 393.275 114.917 414.715 c 0
 115.141 415.173 115.798 416.288 116.074 417.333 c 1
 115.796 417.448 115.351 417.597 114.562 417.816 c 0xd8
EndSplineSet
EndChar
StartChar: afii57673
Encoding: 315 1497 154
Width: 301
Flags: W
Validated: 9
HStem: 266.471 378.514<87.5752 174.052 87.5752 87.5752>
VStem: 29.1348 240.371<495.323 530.611> 169.593 99.913<361.386 463.463>
Fore
263.64 397.969 m 0xa0
 254.765 354.97 226.749 314.144 213.576 296.104 c 0
 211.512 293.276 201.199 278.012 189.885 271.163 c 0
 185.773 268.675 180.386 266.471 174.052 266.471 c 0
 170.525 266.471 163.312 266.973 156.624 272.792 c 0
 154.86 274.403 147.532 279.491 144.436 292.616 c 0
 143.73 295.607 143.283 298.782 143.283 302.893 c 0
 143.283 309.933 144.944 322.487 153.202 338.091 c 0
 167.286 364.703 169.593 370.667 169.593 378.811 c 0xa0
 169.593 384.806 167.29 389.779 164.85 393.653 c 0
 155.462 408.558 142.275 403.289 110.301 418.447 c 0
 75.9014 434.755 53.959 457.817 39.3594 494.227 c 0
 30.0078 517.545 29.1348 545.545 29.1348 558.34 c 0xc0
 29.1348 562.271 29.2354 570.217 30.1221 578.019 c 0
 32.3975 598.034 37.0967 622.727 53.1748 642.343 c 0
 58.3633 642.219 64.7148 642.079 74.2197 641.991 c 0
 79.1064 644.197 83.583 645.377 87.5752 644.985 c 0
 91.6768 644.584 97.8428 645.207 107.177 637.846 c 0
 114.563 632.02 119.975 623.052 123.34 617.771 c 0
 133.157 602.359 142.496 596.58 166.114 591.622 c 0
 195.173 585.521 229.343 567.679 248.852 531.898 c 0
 263.816 504.453 269.506 476.726 269.506 450.2 c 0
 269.506 432.055 267.062 414.546 263.64 397.969 c 0xa0
EndSplineSet
EndChar
StartChar: afii57674
Encoding: 316 1498 155
Width: 566
Flags: W
Validated: 1
HStem: 413.885 187.523<133.079 181.55 181.55 398.959> 624.51 20G<81.3306 88.9727>
VStem: 31.5986 496.499<499.079 508.215 508.215 583.294> 390.979 112.054<-180.699 -105.891>
Fore
193.506 601.54 m 2xe0
 442.5 601.54 l 2
 516.053 601.54 526.849 555.318 527.994 511.744 c 0
 528.054 509.471 528.098 507.025 528.098 504.682 c 0
 528.098 465.83 517.111 426.042 466.281 417.008 c 1
 474.081 353.918 495.463 -55.8711 501.895 -105.604 c 0
 502.646 -111.685 503.033 -120.504 503.033 -130.773 c 0
 503.033 -160.25 498.968 -204.813 476.222 -250.186 c 0
 472.072 -258.463 469.483 -262.742 463.127 -269.348 c 0
 454.059 -278.771 442.451 -284.687 430.114 -284.687 c 0
 406.868 -284.687 390.979 -264.888 390.979 -238.957 c 0xd0
 390.979 -238.565 390.993 -237.539 391.004 -237.147 c 2
 398.959 413.885 l 1
 125.5 413.885 l 2
 70.7695 413.885 39.8135 470.521 34.3213 498.654 c 0
 32.5508 507.724 31.5986 517.024 31.5986 526.785 c 0
 31.5986 563.741 42.6943 598.395 53.7588 618.799 c 0
 57.6416 625.959 59.2793 629.769 65.1211 635.372 c 0
 69.8994 640.14 77.0176 644.51 85.6436 644.51 c 1
 92.3018 642.733 98.3633 643.996 107.123 634.097 c 0
 109.197 631.858 111.807 628.373 115.277 621.645 c 0
 123.095 606.49 134.703 601.408 169.692 601.408 c 0
 176.353 601.408 184.736 601.54 193.506 601.54 c 2xe0
EndSplineSet
EndChar
StartChar: afii57675
Encoding: 317 1499 156
Width: 571
Flags: W
Validated: 1
HStem: 0 195<71.84 451.621> 624.51 20G<103.542 111.684>
VStem: 486.266 62.948<195 202.566 202.566 208.496 208.496 231.877 217.222 298.36>
Fore
115.73 195 m 2
 486.266 195 l 1
 486.404 200.102 486.506 205.271 486.506 210.121 c 0
 486.506 261.554 476.908 300.576 460.805 332.835 c 0
 444.749 364.997 413.085 392.176 379.421 405.997 c 0
 356.215 415.524 325.651 422.532 244.917 422.532 c 0
 235.949 422.532 227.065 422.486 218.359 422.486 c 0
 171.044 422.486 155.304 424.596 141.962 428.074 c 0
 78.4365 444.641 67.1709 479.966 60.6514 506.817 c 0
 57.7051 518.951 56.4453 530.959 56.4453 542.522 c 0
 56.4453 570.949 64.0566 597.271 76.0283 619.381 c 0
 79.3623 625.538 81.3652 628.864 86.3506 633.879 c 0
 91.2764 639.229 98.709 644.51 108.374 644.51 c 1
 114.993 642.749 120.848 644.033 129.746 634.326 c 0
 131.83 632.172 135.028 628.509 138.428 621.921 c 0
 149.739 600.001 168.366 604.785 221.295 601.756 c 0
 283.715 598.184 419.342 605.251 487.544 530.948 c 0
 539.784 467.294 550.082 360.263 550.082 255.242 c 0
 550.082 239.851 549.856 224.246 549.47 208.496 c 1
 550.008 208.496 l 1
 549.214 191.191 l 2
 548.058 165.991 539.07 147.192 538.648 146.166 c 2
 479.633 29.0186 l 2
 478.144 26.8818 475.787 23.3252 474.798 22.0488 c 0
 463.138 7.02539 448.382 0 427.375 0 c 2
 53.7305 0 l 2
 32.2607 0 17.9482 12.1621 17.9482 30.4043 c 0
 17.9482 35.3447 18.917 40.4775 21.6904 46.4883 c 2
 69.3945 162.764 l 2
 76.04 181.37 89.8945 195 115.73 195 c 2
EndSplineSet
EndChar
StartChar: afii57676
Encoding: 318 1500 157
Width: 580
Flags: W
Validated: 33
HStem: -5 21G<285.503 322.65> 404.733 197.057<124.458 439.967>
VStem: 32.626 79.202<603.659 626.646 626.646 649.581 608.759 694.962> 39.25 137.803<801.763 858.26> 235.615 117.707<44.0098 111.359> 236.104 137.185<9.23344 30.4903 30.4903 105.601> 460.098 84.902<306.379 353.282 353.282 384.948>
Fore
44.8398 876.353 m 0xd2
 48.6992 887.199 59.085 899.462 77.7959 899.462 c 0
 79.4551 899.462 84.5127 899.055 86.1543 898.798 c 0
 144.728 889.62 177.416 825.629 177.053 794.5 c 0xd2
 177.014 791.179 177.399 787.48 173.893 778.405 c 0
 162.964 749.325 130.084 727.235 119.296 710.155 c 0
 113.262 700.601 111.875 690.447 111.875 664.516 c 0
 111.875 656.042 112 646.126 112 634.5 c 0
 112 628.565 111.751 623.279 111.828 618.863 c 0
 112.092 603.898 111.989 603.351 124.455 602.169 c 0
 124.485 602.166 126.33 601.79 133.5 601.79 c 2
 435.458 601.79 l 2
 517.352 601.79 535.178 560.476 539.755 534.873 c 0
 545.117 504.871 546.633 480.569 546.633 457.734 c 0
 546.633 432.79 545 409.865 545 382.303 c 0
 545 310.298 473.141 257.637 444.244 202.187 c 0
 422.151 188.592 369.31 154.849 353.91 108.872 c 0
 353.571 107.859 353.322 106.832 353.322 106.018 c 0xea
 353.322 97.1826 373.289 83.9297 373.289 61.8418 c 0
 373.289 21.7373 340.8 -5 304.5 -5 c 0
 266.506 -5 239.858 9.03027 236.104 25 c 0xc6
 235.762 28.1807 235.615 30.9756 235.615 34.0869 c 0
 235.615 88.4531 284.316 153.535 302.811 170.05 c 0
 436.877 292.328 460.098 310.807 460.098 351.095 c 0
 460.098 351.984 460.059 354.581 460.003 355.468 c 0
 458.451 380.216 455.876 388.371 450.96 394.009 c 0
 449.989 395.121 448.944 396.067 447.656 396.975 c 0
 442.374 400.695 430.039 404.733 404.654 404.733 c 2
 133.5 404.733 l 2
 63.8096 404.733 33 447.206 33 498.315 c 0
 33 535.646 32.626 567.938 32.626 595.667 c 0xea
 32.626 635.811 32.5811 681.822 41.9443 707.172 c 0
 58.1123 750.906 74.04 756.379 78.0303 765.536 c 1
 76.8418 768.01 49.5498 789.923 44.0762 800.246 c 0
 39.8721 808.176 39.25 818.756 39.25 829.125 c 0
 39.25 839.199 39.9648 849.932 41.1348 858.671 c 0
 41.8516 864.02 42.4395 869.606 44.8398 876.353 c 0xd2
EndSplineSet
EndChar
StartChar: afii57677
Encoding: 319 1501 158
Width: 612
Flags: W
Validated: 1
HStem: 0 195<151.761 499.352> 440 160.823<185.089 195.365 195.365 477.168> 624.51 20G<91.8111 99.9533>
VStem: 53.5 98<195.354 372.489> 500.5 68<195 417.547>
Fore
207.073 600.958 m 2
 423.253 600.958 l 2
 532.346 600.958 568.5 513.986 568.5 428.414 c 2
 568.5 25 l 2
 568.5 15 559 0 521 0 c 2
 96 0 l 2
 84.4541 0.744141 76.3662 1.49414 67.541 8.14551 c 0
 64.8711 10.1572 62.2627 12.6396 59.751 16.3223 c 0
 53.7705 24.623 52.5 34.4248 52.5 42.0811 c 2
 53.5 244.604 l 2
 53.5 326.661 80.832 384.27 106.203 422.09 c 1
 70.6133 434.422 50.9736 468.489 44.7744 500.948 c 0
 43.2393 508.985 42.6211 517.475 42.6211 526.137 c 0
 42.6211 563.27 53.3164 598.393 64.2979 619.064 c 0
 67.6387 625.354 69.6348 628.755 74.6201 633.879 c 0
 79.5459 639.229 86.9785 644.51 96.6436 644.51 c 1
 103.263 642.749 109.117 644.033 118.016 634.326 c 0
 120.1 632.116 123.291 628.355 126.697 621.602 c 0
 134.199 606.722 143.971 600.823 183.698 600.823 c 0
 191.024 600.823 198.861 600.958 207.073 600.958 c 2
413.25 440 m 2
 185.089 440 l 1
 169.544 411.986 151.5 372.906 151.5 314.5 c 2
 151.5 202.5 l 2
 151.5 196.1 152.944 195 160.947 195 c 2
 489.941 195 l 2
 495.813 195 500.5 195.009 500.5 206.5 c 2
 500.5 361.5 l 2
 500.5 402.713 465.6 440 413.25 440 c 2
EndSplineSet
EndChar
StartChar: afii57678
Encoding: 320 1502 159
Width: 686
Flags: W
Validated: 33
HStem: 0.5 195<255.08 567.873>
VStem: 53.9355 108.079<73.7495 157.307 157.307 161.046 161.046 222.154> 605.756 67.033<196.156 298.371>
Fore
276.29 195.5 m 2
 605.756 195.5 l 1
 603.548 246.488 583.333 334.899 499.017 393.526 c 0
 444.037 447.625 390.952 449.5 354.29 449.5 c 0
 298.808 449.5 231.125 408.642 210.373 365.081 c 0
 160.952 326.975 157.949 291.912 157.949 260.643 c 0
 157.949 226.68 162.015 192.249 162.015 155.77 c 0
 162.015 145.191 161.537 134.598 160.737 123.653 c 0
 158.389 91.543 151.812 66.5566 142.466 44.3213 c 0
 138.963 35.9883 130.303 16.4346 116.152 6.5459 c 0
 111.574 3.34668 105.593 0.550781 98.3262 0.550781 c 1
 92.8379 1.50977 82.9102 0.150391 72.7588 16.0771 c 0
 63.5693 29.7119 60.5332 52.1377 59.9463 56.3584 c 0
 56.4688 81.3574 53.9355 104.891 53.9355 131.241 c 0
 53.9355 151.218 55.3271 172.836 58.9492 197.927 c 0
 67.2158 255.197 88.8193 311.269 109.638 350.646 c 0
 110.474 352.229 110.877 353.701 110.877 355.002 c 0
 110.877 356.611 110.275 359.414 106.313 363.051 c 2
 103.748 365.404 l 1
 103.516 365.928 l 1
 76.8105 391.159 45.6758 433.362 41.8867 468.242 c 0
 40.6084 480.015 39.4189 491.112 39.4189 502.585 c 0
 39.4189 524.913 43.8936 548.121 57.457 575.392 c 0
 69.6035 599.812 86.2695 615.781 100.323 626.63 c 0
 108.198 633.058 118.076 637.585 128.344 637.341 c 0
 130.379 637.292 137.872 637.918 147.457 631.619 c 0
 157.314 629.836 163.978 627.04 174.878 623.979 c 0
 177.607 623.214 177.647 623.352 180.49 622.978 c 0
 192.006 621.46 182.779 622.692 183.733 622.587 c 0
 194.879 621.348 215.275 619.577 229.021 618 c 0
 260.799 604.741 283.331 567.053 297.438 511.412 c 1
 315.589 531.362 323.69 572.512 328.899 621.78 c 0
 331.439 645.775 347.496 660.43 368.154 660.43 c 0
 368.85 660.43 370.876 660.348 371.57 660.299 c 0
 462.555 653.919 513.593 612.384 567.472 566.658 c 0
 654.584 479.188 671.066 341.494 672.789 203.402 c 0
 673.023 184.613 664.105 160.527 662.608 155.906 c 2
 611.117 31.5234 l 1
 610.698 30.7441 l 2
 609.37 28.4863 607.478 25.1465 606.595 23.7979 c 0
 588.122 7.92285 563.848 0.5 529.29 0.5 c 2
 213.29 0.5 l 2
 156.82 0.5 177.5 6.75781 177.5 25 c 4
 177.5 29.9404 182.227 46.4893 185 52.5 c 2
 228.954 163.264 l 2
 239.285 189.299 259.632 195.5 276.29 195.5 c 2
EndSplineSet
EndChar
StartChar: afii57679
Encoding: 321 1503 160
Width: 308
Flags: W
Validated: 1
VStem: 31.6719 240.249<500.529 538.536> 111.002 117.893<-131.774 -25.8375> 111.245 77.323<232.308 316.742>
Fore
39.9883 484.294 m 0x20
 33.4199 504.944 31.6719 524.736 31.6719 541.611 c 0x80
 31.6719 545.196 31.8525 548.697 32.0264 552.03 c 0
 32.9512 569.01 42.2422 603.365 52.6982 617.842 c 0
 54.8047 620.533 65.1934 635.001 77.5029 641.438 c 0
 81.8584 642.767 87.7402 644.057 94.5586 643.939 c 0
 96.4189 643.908 103.18 644.082 111.985 641.31 c 0
 121.72 636.429 129.203 627.919 132.322 624.062 c 0
 140.667 605.223 166.452 598.841 175.737 595.852 c 0
 203.527 590.311 225.429 585.525 245.592 568.935 c 0
 264.546 554.232 271.921 534.507 271.921 515.025 c 0
 271.921 488.042 261.777 450.459 236.874 425.556 c 0
 229.088 417.77 221.25 406.53 220.154 404.13 c 0
 203.877 368.462 193.334 348.36 189.881 319.898 c 0
 188.871 311.574 188.568 302.523 188.568 292.782 c 0x20
 188.568 254.204 195.62 206.992 202.755 165.771 c 0
 214.424 96.0654 228.895 -43.1455 228.895 -110.022 c 0
 228.895 -120.945 228.457 -127.646 227.885 -131.979 c 0
 222.546 -173.797 204.994 -214.809 169.975 -264.153 c 0
 168.716 -265.537 165.062 -268.896 163.726 -269.971 c 0
 155.168 -275.939 144.441 -280.024 132.153 -280.024 c 1
 119.16 -278.78 109.645 -278.367 102.411 -270.397 c 0
 99.958 -266.901 98.8779 -263.109 98.8779 -259.177 c 0
 98.8779 -257.978 98.9814 -254.196 99.0625 -253.002 c 0
 104.969 -188.774 109.941 -111.517 111.002 -23.5869 c 0x40
 111.102 -15.3467 111.245 -7.3418 111.245 0.334961 c 0
 111.245 73.1602 104.479 124.084 104.479 197.313 c 0
 104.479 208.477 104.64 220.14 105.008 232.453 c 0
 107.193 305.59 120.463 353.307 149.175 414.084 c 1
 131.323 414.298 113.357 414.604 91.959 415.374 c 0
 72.3613 426.286 49.751 452.081 39.9883 484.294 c 0x20
EndSplineSet
EndChar
StartChar: afii57680
Encoding: 322 1504 161
Width: 382
Flags: W
Validated: 33
HStem: 0 195<60.2033 231.64 231.64 234.121>
VStem: 6.14062 343.712<30.6758 138.131> 234.121 115.732<123.033 190.959 182.977 198.94 198.94 242.052> 238.007 66.974<279.672 364.489 326.877 402.101 402.101 408.018>
Fore
234.5 0 m 2xa0
 41.5 0 l 2
 20.2842 0 6.14062 12.2705 6.14062 30.6758 c 0xc0
 6.14062 35.2158 7.05762 40.293 9.23828 45.9619 c 2
 57.3623 163.268 l 2
 66.8223 185.341 83.1826 195 104.5 195 c 2
 229.5 195 l 2
 233.857 195.415 233.071 194.844 233.604 195.085 c 1
 233.812 195.635 234.121 195.434 234.121 197.999 c 0xa0
 234.121 198.374 234.072 199.508 234.044 199.881 c 0
 231.117 238.546 229.9 266.343 229.9 289.665 c 0
 229.9 330.375 233.618 356.508 238.007 401.73 c 0
 238.007 405.751 236.046 407.891 232.02 408.446 c 0
 192.45 413.904 156.365 418.978 125.522 446.062 c 0
 111.097 458.732 99.1045 475.553 92.8184 493.823 c 0
 87.7725 508.488 86.6514 524.476 86.6514 537.835 c 0
 86.6514 541.709 86.8525 545.229 87.0273 548.734 c 0
 88.3105 574.46 99.2529 601.476 106.698 612.138 c 0
 113.709 622.18 122.993 635.812 138.274 641.521 c 0
 142.1 643.062 146.423 644.427 150.778 643.999 c 0
 159.14 643.179 159.474 643.243 164.486 640.992 c 0
 175.664 636.231 185.122 625.045 190.322 617.102 c 0
 198.804 604.143 228.136 598.504 239.146 595.83 c 0
 284.92 584.714 317.947 556.393 326.596 518.906 c 0
 329.127 507.936 330.233 497.788 330.233 488.424 c 0
 330.233 441.698 305.006 420.347 304.999 403.355 c 0
 304.999 402.877 304.981 401.326 304.981 400.847 c 0x90
 304.981 335.714 342.82 276.998 347.975 184.382 c 0
 348.889 167.956 349.853 152.825 349.853 138.131 c 0
 349.853 107.934 345.878 79.0869 330.188 49.0674 c 0
 304.397 -0.277344 252.357 0 234.5 0 c 2xa0
EndSplineSet
EndChar
StartChar: afii57681
Encoding: 323 1505 162
Width: 582
Flags: W
Validated: 1
HStem: 0 195<143.889 451.821> 440.164 161.62<196.398 212.283 212.283 314.467 314.467 340.541> 624.51 20G<91.8111 99.9533>
VStem: 46.502 86.9<236.244 247.488 247.488 290.318 268.903 345.54> 490.5 66.983<195.654 202.5 202.5 220.851 220.851 229.097 224.974 360.255>
Fore
228.243 440.36 m 0
 216.891 440.36 206.141 440.294 196.398 440.164 c 1
 158.759 391.423 133.402 352.253 133.402 293.373 c 0
 133.402 291.249 133.356 289.461 133.49 287.26 c 0
 135.635 253.288 136.69 242.678 141.352 204.773 c 0
 141.83 201.143 142.755 197.221 143.826 195.809 c 1
 145.12 195.059 149.506 195.077 152 195 c 2
 476.966 195 l 2
 489.959 195 490.5 196.5 490.5 202.5 c 0
 490.5 214.064 490.594 226.459 490.594 239.259 c 0
 490.594 312.797 485.503 368.242 465.988 394.866 c 0
 454.046 411.159 418.319 433.152 378.619 436.058 c 0
 339.025 438.955 277.762 440.36 228.243 440.36 c 0
209.403 601.784 m 2
 210.243 601.768 l 2
 268.913 597.674 430.957 613.966 498.804 538.542 c 0
 551.141 474.884 558.429 367.478 558.429 263.721 c 0
 558.429 240.316 558.421 216.161 557.483 192.199 c 0
 556.778 174.211 552.163 154.548 544.11 137.104 c 2
 498.171 31.0947 l 2
 494.546 24.543 494.761 24.2695 491.621 20.3809 c 0
 475.036 8.37891 446.005 0 412 0 c 2
 106 0 l 2
 79.4863 0 64.0391 15.5088 63.5078 39.916 c 0
 63.0293 61.8975 61.7715 93.5576 59.5605 117.554 c 0
 51.0176 210.288 47.5244 176.926 46.502 246.615 c 0
 46.4971 246.969 46.4873 248.007 46.4873 248.36 c 0
 46.4873 297.553 85.124 381.95 114.98 424.929 c 1
 70.9492 443.759 53.4922 484.545 48.9209 503.863 c 0
 45.9824 516.281 44.7148 528.566 44.7148 540.398 c 0
 44.7148 569.486 52.3262 596.42 64.2979 619.044 c 0
 67.6318 625.345 69.6348 628.748 74.6201 633.879 c 0
 79.5459 639.229 86.9785 644.51 96.6436 644.51 c 1
 103.263 642.749 109.117 644.033 118.016 634.326 c 0
 120.1 632.172 123.298 628.509 126.697 621.921 c 0
 138.212 600.521 158.827 604.03 209.403 601.784 c 2
EndSplineSet
EndChar
StartChar: afii57682
Encoding: 324 1506 163
Width: 622
Flags: W
Validated: 41
VStem: 29.8906 560.193<497.729 553.132 602.233 603.962> 139.046 66.738<316.455 396.714>
Fore
139.046 413.856 m 0x40
 139.046 419.371 138.562 419.637 138.105 419.681 c 0
 114.153 420.491 94.8262 423.342 78.4336 427.371 c 0
 62.3281 440.55 49.2207 459.829 41.2539 482.997 c 0
 32.958 505.667 31.042 528.854 30.0273 545.901 c 0
 29.9512 547.297 29.8906 551.733 29.8906 553.132 c 0x80
 29.8906 558.891 32.0645 589.651 44.1152 608.977 c 0
 57.4961 630.104 60.0781 633.216 65.9346 637.632 c 0
 71.0615 639.82 78.8125 641.822 87.2754 641.736 c 0
 88.8994 641.72 93.7705 641.433 95.333 641.241 c 0
 103.493 639.554 113.92 634.985 131.786 618.754 c 0
 134.235 612.48 134.101 614.123 134.719 613.222 c 0
 140.553 606.995 135.944 611.988 136.376 611.599 c 0
 145.086 605.724 159.488 601.663 175.228 600.992 c 0
 216.287 599.838 255.687 589.329 284.472 563.957 c 0
 305.841 544.637 314.076 510.516 314.076 485.154 c 0
 314.076 480.81 314.044 476.608 313.675 472.367 c 0
 313.198 467.663 311.474 442.509 300.226 427.79 c 0
 290.201 414.24 276.027 412.519 269.977 412.519 c 0
 267.376 412.519 259.704 413.758 257.237 414.476 c 0
 249.825 416.633 241.341 417.944 231.549 417.944 c 0
 226.651 417.944 221.036 417.605 215.608 416.71 c 0
 214.125 416.465 208.882 416.772 206.668 405.998 c 0
 206.463 405.004 206.195 403.931 206.006 401.034 c 0
 205.848 398.601 205.784 396.068 205.784 393.695 c 0
 205.784 346.607 233.47 317.089 251.011 284.258 c 0
 274.347 244.713 290.772 199.62 291.912 149.187 c 1
 360.892 193.268 l 1
 374.298 201.656 377.425 200.546 383.515 213.948 c 0
 399.492 265.928 415.028 296.422 425.519 316.115 c 0
 455.441 377.927 453.131 367.671 465.724 406.959 c 0
 466.017 407.875 466.214 408.639 466.346 409.275 c 1
 463.66 409.938 l 2
 430.822 415.203 408.894 421.176 382.233 435.494 c 0
 365.305 451.001 351.938 471.379 344.093 493.649 c 0
 335.336 517.224 335.257 545.192 335.999 557.811 c 0
 337.23 574.658 346.97 603.43 360.545 617.698 c 0
 366.21 623.276 377.436 637.092 394.207 642.596 c 0
 399.874 643.655 405.147 644.118 409.833 644.022 c 0
 412.011 643.976 419.886 644.18 430.302 641.38 c 0
 441.9 636.473 449.871 627.897 453.155 624.012 c 0
 462.741 604.466 492.619 595.663 498.1 593.879 c 0
 546.427 583.952 577.225 560.994 586.61 525.846 c 0
 588.528 518.295 590.084 508.441 590.084 497.729 c 0
 590.084 470.024 580.935 438.053 547.897 416.244 c 0
 539.98 411.019 532.617 401.101 531.192 396.75 c 0
 505.274 317.622 498.348 295.411 485.692 228.735 c 0
 472.589 160.197 469.776 110.18 463.92 37.7803 c 0
 462.06 20.2031 454.643 9.43457 433.417 -1.93555 c 2
 108.816 -217.575 l 1
 100.929 -220.48 100.706 -221.058 95.0127 -221.78 c 0
 93.9541 -221.862 90.7129 -221.99 89.6377 -221.99 c 0
 73.0547 -221.99 62.0176 -215.975 62.0176 -207.344 c 2
 72.0312 -48.6074 l 2
 72.5713 -40.3506 72.8789 -31.6406 75.8721 -21.2617 c 0
 77.6348 -14.3955 80.3018 -7.58887 83.8174 -1.45312 c 0
 88.2295 5.70703 93.6768 11.7197 100.308 17.5225 c 2
 202.726 89.165 l 2
 205.013 89.9229 209.48 91.2441 212.473 93.0938 c 0
 213.735 93.0576 214.519 93.0244 215.058 92.9834 c 0
 215.462 93.3047 215.716 93.6777 215.716 94.1455 c 0
 215.716 95.2949 215.541 98.8145 215.446 99.959 c 0
 207.991 160.273 172.724 190.056 156.318 229.336 c 0
 138.724 272.066 132.303 310.209 132.303 345.312 c 0
 132.303 366.915 134.732 387.514 138.309 407.266 c 0
 138.538 408.533 139.046 411.287 139.046 413.856 c 0x40
EndSplineSet
EndChar
StartChar: afii57683
Encoding: 325 1507 164
Width: 528
Flags: W
Validated: 1
HStem: 422.5 178.84<167.823 204.078 204.078 398.615> 624.51 20G<105.331 112.973>
VStem: 38.1387 465.172<-152.528 259.886 268.758 278.927> 38.1387 97.9863<242.957 360.632> 390.01 113.301<-237.588 -147.022 -147.022 -111.068>
Fore
95.501 431.737 m 1xe0
 71.125 454.446 62.1709 480.61 58.3213 499.963 c 0
 56.5342 508.943 55.5986 518.157 55.5986 527.825 c 0
 55.5986 564.428 66.6943 598.748 77.7588 618.957 c 0
 81.6416 626.049 83.2793 629.822 89.1211 635.372 c 0
 93.8994 640.14 101.018 644.51 109.644 644.51 c 1
 116.302 642.733 122.364 643.997 131.123 634.097 c 0
 133.197 631.854 135.807 628.361 139.277 621.619 c 0
 147.093 606.431 158.703 601.34 193.692 601.34 c 0
 200.227 601.34 207.202 601.473 214.5 601.473 c 2
 353.5 601.473 l 2
 419.212 601.473 464.462 553.156 467.974 493.787 c 2
 502.972 -141.505 l 2
 503.216 -145.5 503.311 -148.765 503.311 -152.528 c 0
 503.311 -197.819 486.128 -236.976 451.585 -266.034 c 0
 446.231 -270.538 442.753 -272.709 436.506 -275.776 c 0
 430.046 -278.947 424.043 -280.396 418.732 -280.396 c 0
 407.222 -280.396 389.955 -273.101 389.955 -243.922 c 0
 389.955 -243.312 389.988 -241.522 390.01 -240.913 c 2xc8
 409.02 346.788 l 2
 409.169 349.338 409.25 351.974 409.25 354.429 c 0
 409.25 383.001 398.5 422.5 355.5 422.5 c 2
 167.823 422.5 l 1
 153.973 409.174 136.125 375.696 136.125 337.614 c 0
 136.125 331.325 136.594 325.169 137.712 319.162 c 0
 142.737 292.162 166.733 286.264 210.284 286.264 c 0
 216.132 286.264 222.015 286.362 228.036 286.493 c 0
 228.571 286.505 230.08 286.534 230.615 286.534 c 0
 269.115 286.534 300.872 260.623 309.618 218.635 c 0
 311.638 208.939 313.07 198.993 313.07 188.727 c 0
 313.07 159.626 301.671 131.625 271.696 113.111 c 0
 247.378 98.0908 212.296 97.3447 197.446 97.3447 c 0
 172.4 97.3447 147.823 100.42 130.213 103.387 c 1
 122.524 96.6758 111.986 86.1113 100.122 77.0928 c 0
 93.2539 71.873 83.3984 66.7227 72.168 66.7227 c 0
 57.7432 66.7227 49.8203 74.9307 48.126 76.626 c 1
 40.8018 87.8438 40.4629 86.502 39.1641 93.7676 c 0
 38.9541 94.9443 38.6396 98.5479 38.6396 99.7422 c 0
 38.6396 102.745 39.0879 118.018 53.0078 130.197 c 2
 69.0879 143.774 l 1
 44.5117 185.641 38.1387 226.028 38.1387 259.886 c 0
 38.1387 272.657 39.0283 284.518 40.082 295.255 c 0
 45.2637 346.173 66.0938 399.595 95.501 431.737 c 1xe0
EndSplineSet
EndChar
StartChar: afii57684
Encoding: 326 1508 165
Width: 526
Flags: W
Validated: 41
VStem: 16.1406 486.957<28.7607 259.592 -13.7393 28.7149> 437.115 64.873<158.778 179.69 179.69 191.009 207.392 225.315 225.315 360.557>
Fore
130 212 m 1x40
 147.61 209.279 189.4 214.724 214.446 214.724 c 0
 229.296 214.724 264.378 215.408 288.696 229.183 c 0
 318.671 246.161 330.07 271.84 330.07 298.527 c 0
 330.07 307.943 328.638 317.064 326.618 325.956 c 0
 317.872 364.462 286.115 388.225 247.615 388.225 c 0
 247.08 388.225 245.571 388.195 245.036 388.184 c 0
 235.393 387.978 225.847 387.75 216.652 387.75 c 0
 192.878 387.75 177.979 389.63 169.347 392.865 c 0
 162.438 395.455 161.51 397.358 160.97 400.722 c 0
 160.886 401.245 160.896 402.783 160.896 403.313 c 0
 160.896 406.191 161.192 408.516 161.698 410.44 c 0
 162.506 413.513 163.745 415.368 164.877 416.796 c 0
 167.742 420.407 171.642 422.898 174.993 424.748 c 1
 241.907 415.974 355.165 440.314 405.318 372.793 c 0
 424.663 348.291 437.115 292.465 437.115 207.392 c 0x40
 437.115 202.819 438.125 156.292 438 152 c 1
 146 152 l 1
 106 153 l 1
 98.707 148.096 64.2861 157.901 60 148 c 2
 19.2383 43.2471 l 2
 17.1357 37.8438 16.1406 33.0635 16.1406 28.7607 c 0x80
 16.1406 11.3193 30.2842 -0.30957 51.5 -0.30957 c 2
 395.5 -0.30957 l 2
 423.634 -0.30957 436.544 17.2393 442.527 29.5254 c 2
 493.806 146.735 l 2
 500.119 163.188 501.343 173.383 501.988 191.009 c 0
 502.833 214.095 503.098 237.137 503.098 259.592 c 0
 503.098 363.511 494.627 468.486 450.781 527.197 c 0
 396.691 599.625 287.498 598.185 226.474 601.459 c 0
 192.481 603.283 163.407 597.942 151.197 621.611 c 0
 147.799 628.199 144.6 631.862 142.516 634.017 c 0
 133.617 643.724 127.763 642.439 121.144 644.2 c 1
 111.479 644.2 104.046 638.919 99.1201 633.569 c 0
 94.1348 628.438 92.1318 625.035 88.7979 618.734 c 0
 76.8262 596.11 69.2148 569.177 69.2148 540.089 c 0
 69.2148 528.256 70.6406 516.226 73.373 503.766 c 0
 77.4102 485.361 83.9551 460.368 111.846 441.56 c 1
 85.1709 418.224 58.6846 386.501 54.083 341.993 c 0
 53.4199 335.577 53.0537 329.354 53.0537 323.27 c 0
 53.0537 307.562 54.0557 278.714 83.4336 247.049 c 1
 83.4336 247.049 124.419 208.914 130 212 c 1x40
EndSplineSet
EndChar
StartChar: afii57685
Encoding: 327 1509 166
Width: 607
Flags: W
Validated: 37
VStem: 31.6523 542.487<494.312 540.259 494.312 540.259 542.929 567.481> 117.788 80.86<249.895 313.464> 133.772 136.25<-135.377 -66.8474 -68.8658 -64.829>
Fore
456.686 397.114 m 1x40
 243.377 177.856 l 1
 235.376 159.313 232.374 144.982 232.374 138.667 c 0
 232.374 139.276 232.404 140.369 232.472 140.896 c 0
 232.551 140.491 232.619 140.089 232.678 139.688 c 0
 249.495 62.1533 270.022 -68.4385 270.022 -120.429 c 0
 270.022 -121.775 270.063 -124.643 269.807 -127.328 c 0
 266.118 -170.332 247.04 -212.396 210.039 -262.631 c 0
 208.633 -264.101 204.384 -267.7 202.834 -268.845 c 0
 192.914 -275.267 180.083 -280.06 166.71 -279.688 c 0
 162.837 -279.603 142.064 -279.597 135.307 -267.175 c 0
 134.048 -264.209 133.772 -261.094 133.772 -259.487 c 0x20
 133.772 -258.446 133.884 -255.646 133.925 -254.608 c 0
 135.874 -213.182 136.93 -166.166 136.93 -114.142 c 0
 136.93 -85.2773 136.787 -55.0322 135.896 -23.4648 c 0
 133.13 73.7266 119.911 129.727 117.893 231.194 c 0
 117.803 235.701 117.788 240.18 117.788 244.552 c 0x40
 117.788 303.979 125.007 352.468 151.273 414.382 c 1
 134.416 414.309 117.448 414.223 95.8691 413.896 c 0
 69.4883 428.594 49.6094 456.45 42.002 480.222 c 0
 34.583 502.285 31.6523 522.673 31.6523 540.259 c 0x80
 31.6523 543.077 31.8877 545.286 31.9092 547.942 c 0
 32.0674 565.561 38.8438 599.967 48.125 614.384 c 0
 61.0156 633.152 68.1748 639.356 75.0732 643.19 c 0
 79.335 644.498 85.2285 645.864 91.9746 645.661 c 0
 95.7598 645.543 101.18 645.766 110.118 642.707 c 0
 118.897 637.811 125.168 630.022 128.146 626.437 c 0
 136.443 608.068 155.812 604.149 169.71 600.473 c 0
 199.503 595.664 221.679 590.42 248.3 573.492 c 0
 272.944 558.926 281.735 536.971 281.735 516.348 c 0
 281.735 487.302 272.053 447.168 245.345 418.88 c 0
 236.675 415.091 227.785 409.562 226.635 408.451 c 0
 209.356 372.883 202 353.605 198.883 322.384 c 0
 198.506 318.344 198.648 314.564 198.648 310.178 c 0
 198.648 289.576 200.677 265.537 205.779 241.437 c 1
 393.884 428.162 l 1
 360.862 454.384 346.377 487.058 345.028 530.471 c 0
 344.993 531.58 344.947 534.946 344.947 536.058 c 0
 344.947 549.871 343.842 586.599 393.618 628.213 c 0
 399.379 632.757 401.894 635.006 408.625 638.764 c 0
 416.575 642.22 428.166 645.952 439.515 645.757 c 0
 441.743 645.728 450.305 645.999 460.096 642.343 c 0
 467.6 638.391 471.376 632.8 474.463 628.21 c 0
 478.263 617.891 490.464 598.897 505.16 588.44 c 0
 542.508 570.196 571.451 540.818 573.864 503.479 c 0
 574.052 500.414 574.139 497.271 574.139 494.312 c 0
 574.139 457.237 562.68 431.537 539.302 401.889 c 0
 533.691 394.773 520.523 377.324 504.244 372.117 c 0
 500.486 370.915 497.429 370.269 494.396 370.526 c 0
 492.437 370.693 484.948 370.113 476.566 376.777 c 0
 475.58 377.562 472.953 380.136 472.125 381.086 c 0
 465.68 388.477 461.85 392.959 456.686 397.114 c 1x40
EndSplineSet
EndChar
StartChar: afii57686
Encoding: 328 1510 167
Width: 631
Flags: W
Validated: 33
HStem: 0 195<90.2033 426.3>
VStem: 36.1406 556.897
Fore
71.5 0 m 2
 50.2842 0 36.1406 12.2705 36.1406 30.6758 c 0
 36.1406 35.2158 37.0576 40.293 39.2383 45.9619 c 2
 87.3623 163.268 l 2
 96.8223 185.341 113.183 195 134.5 195 c 2
 426.3 195 l 1
 242.586 307.096 l 2
 241.115 308.268 236.054 312.076 234.695 313.325 c 0
 230.126 317.522 222.361 326.19 220.344 340.1 c 0
 216.122 369.218 213.101 387.057 208.601 397.974 c 0
 204.136 408.807 205.308 410.297 193.836 411.021 c 0
 155.647 413.668 107.629 417.762 75.3682 446.088 c 0
 61.7988 458.002 51.0762 475.059 44.8047 493.703 c 0
 39.6016 509.172 37.6621 524.554 37.6621 538.125 c 0
 37.6621 541.817 37.8613 545.234 38.0273 548.574 c 0
 39.3076 574.287 50.3164 601.253 57.6982 611.948 c 0
 59.8066 615.003 70.1934 631.434 82.5029 638.743 c 0
 86.8584 641.534 92.7402 644.243 99.5586 643.999 c 0
 101.419 643.933 108.18 644.297 116.985 638.488 c 0
 126.72 632.066 133.904 621.055 137.155 616.063 c 0
 146.503 601.712 170.792 595.742 180.147 593.364 c 0
 235.328 581.164 267.329 552.617 279.343 512.926 c 0
 282.729 501.736 283.933 490.886 283.933 480.725 c 0
 283.933 458.09 278.077 438.042 275.042 421.271 c 0
 274.848 420.198 274.537 418.716 274.537 417.734 c 0
 274.537 412.842 278.1 407.427 279.598 405.251 c 0
 279.64 405.188 323.578 371.892 375.44 338.396 c 1
 414.265 418.281 l 1
 414.857 419.183 l 1
 414.884 419.226 l 1
 414.2 419.704 l 2
 382.835 441.292 359.366 474.041 359.326 513.264 c 0
 359.325 514.347 359.245 517.359 359.245 518.442 c 0
 359.245 531.376 357.48 575.73 405.76 622.095 c 0
 412.709 628.768 416.327 632.187 424.858 637.157 c 0
 431.932 641.278 441.5 645.543 452.125 645.25 c 0
 454.344 645.183 462.824 645.739 472.65 638.279 c 0
 474.606 636.871 482.299 631.368 487.841 617.879 c 0
 488.703 615.78 498.214 598.723 517.271 588.378 c 0
 554.582 568.124 583.562 535.669 585.975 494.338 c 0
 586.171 490.977 586.25 487.882 586.25 484.702 c 0
 586.25 449.68 575.279 425.201 552.304 396.977 c 0
 546.777 390.188 533.04 373.959 516.776 368.921 c 0
 513.035 367.763 509.919 367.381 506.956 367.381 c 1
 505.004 367.81 497.175 367.048 488.994 373.709 c 0
 488.365 374.221 487.066 375.576 485.949 376.648 c 0
 479.901 382.449 477.917 385.22 476.229 387.409 c 1
 441.343 313.874 l 2
 441.242 313.674 440.702 312.74 440.205 311.809 c 1
 440.768 311.395 441.533 310.856 442.557 310.182 c 2
 549.376 230.566 l 2
 580.167 207.386 593.038 167.262 593.038 132.828 c 0
 593.038 113.648 589.298 93.7119 580.457 75.1914 c 0
 564.623 42.0254 528.045 0 449.5 0 c 2
 71.5 0 l 2
EndSplineSet
EndChar
StartChar: afii57687
Encoding: 329 1511 168
Width: 614
Flags: W
Validated: 33
HStem: 412.273 187.487<211.858 213.456 213.456 344.028> 624.51 20G<93.8111 101.953>
VStem: 34.1748 96.1072<-31.058 220.731> 36.4287 121.578<-171.109 -120.905 -120.905 -91.8286 -91.8286 -37.374 -37.374 -21.1103 -56.4694 155.119> 527.02 67.009<215.124 381.065>
Fore
130.518 231.737 m 4xe8
 130.495 227.004 130.282 221.894 130.282 216.94 c 4
 130.282 122.479 158.037 -6.37402 158.037 -89.6758 c 4
 158.037 -90.5332 158.021 -93.124 158.007 -93.9814 c 4
 156.907 -162.394 155.195 -231.675 102.159 -297.967 c 4
 88.1328 -314.278 81.3936 -319.152 74.8906 -322.702 c 4
 70.915 -323.833 65.6318 -324.905 59.46 -324.905 c 5
 51.1855 -323.618 39.0928 -324.074 35.5703 -315.891 c 4
 34.8281 -312.473 34.748 -309 34.748 -307.219 c 4
 34.748 -302.189 35.0957 -296.873 35.5762 -290.846 c 4
 38.9932 -252.584 39.9824 -222.933 39.9824 -196.131 c 4
 39.9824 -147.075 36.4287 -107.088 36.4287 -45.0811 c 4xd8
 36.4287 -40.0859 36.4492 -34.9424 36.501 -29.6533 c 4
 36.5586 -23.9287 36.5889 -18.2285 36.5889 -12.5703 c 4
 36.5889 40.9639 34.1748 91.4365 34.1748 137.112 c 4
 34.1748 166.634 35.0254 194.274 38.6777 219.489 c 4
 44.4609 259.401 60.2422 316.405 98.8516 359.549 c 4
 106.042 367.583 115.63 377.593 129.086 381.122 c 4
 132.372 381.934 135.119 382.187 137.758 382.187 c 4
 156.881 382.187 167.135 367.813 166.995 353.415 c 6
 166.995 353.415 167.216 347.912 164.855 340.508 c 4
 164.581 339.646 163.643 337.084 163.297 336.243 c 4
 162.213 333.611 160.968 331.05 159.031 327.742 c 4
 132.264 282.007 130.65 259.87 130.518 231.737 c 4xe8
213.456 599.76 m 0
 252.495 596.817 448.504 610.582 531.588 538.009 c 0
 581.257 489.016 594.029 378.438 594.029 300.626 c 0
 594.029 236.55 586.062 184.516 576.541 157.996 c 0
 563.351 123.49 521.708 80.6104 465.228 61.0029 c 0
 394.988 30.7773 278.071 34.7197 254.478 -4.65723 c 0
 249.715 -9.19629 248.41 -10.1484 242.813 -12.7441 c 0
 239.265 -13.9961 231.557 -16.5234 220.282 -16.3496 c 0
 217.74 -16.3105 207.827 -16.4844 197.139 -12.543 c 0
 186.241 -7.24512 180.421 1.01074 180.111 10.0098 c 0
 179.82 25.3447 182.723 42.6631 190.391 61.5576 c 0
 216.178 122.448 277.985 151.358 348.402 174.271 c 0
 417.126 192.449 469.164 185.119 501.708 214.42 c 0
 516.111 227.015 527.02 254.303 527.02 289.44 c 0
 527.02 332.381 515.138 367.222 499.391 383.406 c 0
 448.319 416.543 199.537 401.439 132.321 412.273 c 0
 68.7285 432.623 57.4404 476.912 50.9209 510.345 c 0
 47.9746 524.752 46.7148 539.008 46.7148 552.737 c 0
 46.7148 580.529 54.3262 606.264 66.2979 627.88 c 0
 69.6318 632.825 71.6348 635.497 76.6201 639.524 c 0
 81.5459 642.033 88.9785 644.51 98.6436 644.51 c 1
 105.263 643.73 111.117 644.299 120.016 640.001 c 0
 122.1 638.446 125.299 635.803 128.697 631.05 c 0
 140.543 595.859 164.786 606.644 211.832 600 c 0
 212.383 599.939 212.925 599.859 213.456 599.76 c 0
EndSplineSet
EndChar
StartChar: afii57688
Encoding: 330 1512 169
Width: 572
Flags: W
Validated: 33
HStem: 417.083 184.575<134.402 181.435 181.435 442.094> 624.51 20G<81.3111 89.4532>
VStem: 448.907 92.868<72.5645 141.15>
Fore
462.017 343.241 m 0
 463.953 382.234 430.6 417.083 380.829 417.083 c 2
 125.5 417.083 l 2
 70.7695 417.083 39.8076 472.88 34.3213 500.599 c 0
 32.6191 509.196 31.7197 517.953 31.7197 527.128 c 0
 31.7197 558.979 40.4277 593.719 53.7979 619.051 c 0
 57.123 625.353 59.1348 628.751 64.1201 633.879 c 0
 69.0459 639.229 76.4785 644.51 86.1436 644.51 c 1
 92.7627 642.749 98.6172 644.033 107.516 634.326 c 0
 109.6 632.171 112.795 628.506 116.197 621.919 c 0
 125.672 603.57 144.028 601.658 169.699 601.658 c 0
 176.321 601.658 184.602 601.79 193.266 601.79 c 2
 351.151 601.79 l 2
 423.85 601.79 504.616 571.796 521.877 435.514 c 0
 530.225 369.6 535.051 214.015 539.927 163.978 c 0
 540.715 155.892 541.775 142.514 541.775 126.239 c 0
 541.775 98.9756 539.547 63.2979 525.954 29.8018 c 0
 520.01 15.1533 512.855 4.07715 498.835 -1.80664 c 0
 494.592 -3.68555 489.905 -5.16504 485.233 -4.74121 c 0
 480.142 -4.27832 471.188 -4.66699 461.15 5.91016 c 0
 452.709 14.3369 448.907 25.9014 448.907 38.5811 c 0
 448.907 39.3633 448.973 41.4424 449.019 42.2227 c 0
 449.023 42.3154 455.918 220.449 462.017 343.241 c 0
EndSplineSet
EndChar
StartChar: afii57689
Encoding: 331 1513 170
Width: 786
Flags: W
Validated: 33
HStem: 0 195.016<197.808 207.405 284.97 490.625>
VStem: 110.078 47.328<328.343 404.178>
Fore
395.96 397.645 m 1
 284.97 195 l 1
 394.5 195 l 2
 454.629 195 496.21 216.336 521.529 247.037 c 0
 562.157 331.088 617.603 403.061 621.422 408.397 c 1
 605.611 418.531 549.074 448.254 535.8 495.459 c 0
 532.335 507.783 530.492 519.535 530.492 530.936 c 0
 530.492 546.954 531.854 579.814 575.522 622.736 c 0
 580.722 627.848 583.268 630.381 589.473 634.537 c 0
 598.094 640.772 608.117 645.542 618.75 645.25 c 0
 620.969 645.188 629.393 645.764 639.324 638.399 c 0
 641.317 636.998 649.243 631.495 654.841 617.886 c 0
 655.415 616.489 666.206 598.941 685.368 588.331 c 0
 721.707 568.209 750.563 535.665 752.975 494.343 c 0
 753.187 490.71 753.271 487.462 753.271 484.049 c 0
 753.271 449.177 742.412 424.495 719.188 396.84 c 0
 717.5 394.83 709.066 384.364 700.42 378.685 c 0
 696.173 375.896 690.526 373.385 683.95 373.385 c 0
 683.33 373.385 681.746 373.52 680.43 373.672 c 1
 647.968 329.948 618.547 259.869 585.573 153.664 c 0
 567.261 97.7471 547.351 0 394.5 0 c 2
 131.5 0 l 2
 114.857 0 99 9.59668 99 30.8203 c 0
 99 51.1748 97.666 91.0527 95.082 117.415 c 0
 85.9531 210.531 78.959 200.777 79.0039 270.834 c 0
 79.0303 312.514 95.7939 356.643 107.836 393.396 c 0
 109.508 398.498 110.183 402.061 110.078 404.178 c 0
 110.048 404.78 110.021 405.228 109.987 405.58 c 1
 89.1309 413.575 72.999 425.019 61.5752 436.886 c 0
 49.0234 449.928 40.1562 467.344 36.3213 486.649 c 0
 34.252 497.068 33.25 506.897 33.25 516.354 c 0
 33.25 525.809 34.0908 534.564 35.1504 542.23 c 0
 38.917 569.485 49.9971 597.098 57.6152 608.527 c 0
 62.708 616.17 74.2021 635.456 90.5107 642.072 c 0
 95.1133 644.041 99.2549 644.896 102.998 644.698 c 0
 104.855 644.601 111.587 645.055 120.46 639.352 c 0
 130.291 633.494 137.595 622.816 140.601 618.022 c 0
 146.226 609.053 158.614 598.707 179.69 593.992 c 0
 194.783 590.617 241.172 578.35 266.875 529.471 c 0
 272.021 519.684 278.526 502.244 278.526 475.021 c 0
 278.526 461.689 277.029 447.888 273.583 434.819 c 0
 272.529 430.825 267.647 409.875 257.254 397.113 c 0
 247.751 385.444 236.067 384.005 230.77 384.005 c 0
 224.011 384.005 218.271 386.013 213.87 388.271 c 0
 197.084 396.884 184.593 396.262 181.355 396.155 c 0
 180.09 396.114 178.328 395.774 174.661 387.524 c 0
 174.349 386.824 173.546 384.901 172.424 381.76 c 0
 159.393 345.241 157.406 339.01 157.406 328.343 c 0
 157.406 322.311 158.566 315.093 160.967 304.172 c 0
 168.751 268.771 191.869 239.609 197.808 195.016 c 1
 203.5 195 l 2
 205.5 195 205.905 195 207.478 198.277 c 2
 332.872 436.802 l 1
 333.693 438.822 l 1
 302.5 459.451 289.373 486.88 288.132 521.963 c 0
 288.1 522.894 288.057 525.717 288.057 526.648 c 0
 288.057 541.069 287.041 579.412 332.838 622.855 c 0
 338.144 627.889 340.461 630.38 346.666 634.537 c 0
 355.287 640.772 365.31 645.542 376.739 645.25 c 0
 379.144 645.188 388.275 645.764 399.04 638.399 c 0
 401.201 637.029 409.725 631.75 415.812 618.451 c 2
 416.255 617.483 l 1
 416.55 616.475 l 2
 417.163 615.033 417.002 615.788 417.002 615.788 c 1
 417.002 615.788 417.357 615.219 417.682 614.744 c 0
 425.953 602.665 440.573 592.973 447.76 589.501 c 0
 488.522 569.812 518.416 537.833 521.132 497.774 c 0
 521.435 493.317 521.74 489.194 521.74 484.985 c 0
 521.74 451.897 509.262 429.074 484.769 402.509 c 0
 478.687 395.913 464.415 379.741 446.769 374.915 c 0
 442.694 373.802 439.38 373.202 436.092 373.441 c 0
 433.969 373.596 425.852 373.059 416.766 379.234 c 0
 415.697 379.962 412.849 382.348 411.952 383.229 c 0
 405.002 390.043 401.424 393.922 395.96 397.645 c 1
EndSplineSet
EndChar
StartChar: afii57690
Encoding: 332 1514 171
Width: 606
Flags: W
Validated: 33
HStem: 0 21G<33.4351 162.146> 440 161.658<195.072 232.52 232.52 477.184> 624.51 20G<132.98 141.123>
VStem: 8.3877 567.057<28.8135 126.239 39.4255 284.089> 77.9111 91.9289<278.089 379.037> 482.577 92.868<72.5645 148.688>
Fore
59.834 154.247 m 2xf0
 68.9541 178.447 89.166 184.422 105.561 184.779 c 1
 98.9727 202.438 77.9111 236.575 77.9111 288.52 c 0
 77.9111 294.208 78.1982 300.039 78.7344 306.098 c 0
 82.9844 354.134 102.24 405.917 123.147 436.749 c 1
 103.109 452.483 90.2119 476.792 85.9219 500.885 c 0
 84.4863 508.95 83.791 517.314 83.791 525.987 c 0
 83.791 563.172 94.4863 598.343 105.468 619.044 c 0
 108.809 625.342 110.805 628.748 115.79 633.879 c 0
 120.716 639.229 128.148 644.51 137.813 644.51 c 1
 144.433 642.749 150.287 644.033 159.186 634.326 c 0
 161.27 632.171 164.461 628.504 167.867 621.919 c 0
 175.393 607.37 185.236 601.658 221.908 601.658 c 0
 228.563 601.658 235.692 601.79 243.17 601.79 c 2
 392.17 601.79 l 2
 457.52 601.79 538.285 571.795 555.547 435.514 c 0
 563.895 369.6 568.721 214.015 573.597 163.978 c 0
 574.385 155.891 575.445 142.514 575.445 126.239 c 0
 575.445 98.9756 573.217 63.2979 559.624 29.8018 c 0
 553.68 15.1533 546.525 4.07812 532.505 -1.80664 c 0
 528.262 -3.68555 523.575 -5.16504 518.903 -4.74121 c 0
 513.812 -4.27832 504.858 -4.66699 494.82 5.91016 c 0
 486.379 14.8066 482.577 27.0156 482.577 40.4023 c 0
 482.577 41.2275 482.647 43.4229 482.688 44.2461 c 0
 482.693 44.3447 489.588 232.406 495.687 362.042 c 0
 497.623 403.209 464.27 440 417.17 440 c 2
 195.072 440 l 1
 188.632 429.218 184.048 420.539 179.601 408.479 c 0
 173.278 391.337 169.84 373.803 169.84 356.042 c 0xec
 169.84 327.093 178.411 296.977 196.287 266.315 c 0
 216.769 231.186 239.088 185.261 239.088 131.791 c 0
 239.088 118.09 237.938 103.524 234.131 89.2012 c 0
 216.689 23.585 180.123 0 144.17 0 c 2
 44.1699 0 l 2
 22.7002 0 8.3877 11.5254 8.3877 28.8135 c 0
 8.3877 33.4951 9.35645 38.3594 12.1299 44.0557 c 2
 59.834 154.247 l 2xf0
EndSplineSet
EndChar
StartChar: afii57716
Encoding: 333 1520 172
Width: 602
Flags: W
Validated: 33
HStem: -4.68652 21G<171.951 190.171 472.951 491.171>
VStem: 31.6621 527.776<496.839 546.727 496.839 546.727 522.472 552.459> 143.979 112.482<86.0191 158.571> 444.979 112.482<86.0191 158.571>
Fore
559.438 496.839 m 0x90
 559.438 464.583 549.438 433.901 528.613 407.681 c 0
 527.862 406.735 524.884 402.226 523.387 397.751 c 0
 523.188 397.156 523.291 397.672 522.95 396.236 c 0
 522.853 395.826 522.928 396.646 522.715 394.965 c 0
 522.631 394.302 522.648 395.9 522.648 393.979 c 0
 522.648 393.715 522.703 393.229 522.746 392.963 c 0
 533.811 325.17 549.557 214.273 555.868 159.104 c 0
 557.069 147.723 557.461 136.424 557.461 130.69 c 0
 557.461 102.913 552.636 62.0908 530.305 20.3037 c 0
 525.804 13.1738 524.835 11.7344 519.636 6.91797 c 0
 510.333 -0.210938 497.823 -4.68652 484.518 -4.68652 c 0
 461.384 -4.68652 444.979 7.37207 444.979 23.582 c 0
 444.979 24.0947 444.995 25.7305 445.01 26.2422 c 0
 450.438 172.592 454.831 319.555 456.023 392.765 c 0
 456.026 392.939 456.076 393.948 456.076 394.124 c 0
 456.076 399.393 452.806 404.86 447.805 406.148 c 0
 407.597 409.894 383.123 413.901 369.48 417.296 c 0
 348.33 431.201 325.764 455.085 315.79 485.724 c 0
 308.987 505.464 307.055 528.553 307.055 546.727 c 0
 307.055 550.983 307.294 554.691 307.504 558.154 c 0
 309.077 582.379 321.431 607.896 330.431 617.897 c 0
 333.043 620.603 346.06 635.133 361.382 641.507 c 0
 366.761 642.839 373.954 644.128 382.327 644.01 c 0
 384.622 643.979 392.983 644.16 403.818 641.38 c 0
 415.754 636.397 424.188 627.803 428.145 623.924 c 0
 439.587 604.567 465.532 597.083 474.978 593.936 c 0
 533.052 581.78 552.059 543.33 556.695 522.966 c 0
 558.564 514.27 559.438 505.477 559.438 496.839 c 0x90
258.888 496.839 m 0
 258.888 464.583 248.438 433.901 227.613 407.681 c 0
 226.862 406.735 223.884 402.226 222.387 397.751 c 0
 222.188 397.156 222.291 397.672 221.95 396.236 c 0
 221.853 395.826 221.928 396.646 221.715 394.965 c 0
 221.631 394.302 221.648 395.9 221.648 393.979 c 0
 221.648 393.715 221.703 393.229 221.746 392.963 c 0
 232.811 325.17 248.557 214.273 254.868 159.104 c 0
 256.069 147.723 256.461 136.424 256.461 130.69 c 0
 256.461 102.913 251.636 62.0908 229.305 20.3037 c 0
 224.804 13.1738 223.835 11.7344 218.636 6.91797 c 0
 209.333 -0.210938 196.823 -4.68652 183.518 -4.68652 c 0
 160.384 -4.68652 143.979 7.37305 143.979 23.582 c 0xa0
 143.979 24.0947 143.995 25.7305 144.01 26.2422 c 0
 149.438 172.592 153.831 319.555 155.023 392.765 c 0
 155.026 392.939 155.076 393.948 155.076 394.124 c 0
 155.076 399.393 151.806 404.86 146.805 406.148 c 0
 113.537 409.894 93.6074 413.901 82.4971 417.296 c 0
 65.2734 431.201 46.8975 455.085 38.7754 485.724 c 0
 33.2354 505.464 31.6621 528.553 31.6621 546.727 c 0xc0
 31.6621 550.983 31.8564 554.691 32.0273 558.154 c 0
 33.3086 582.379 43.3691 607.896 50.6982 617.897 c 0
 52.8252 620.603 63.4248 635.133 75.9023 641.507 c 0
 80.2832 642.839 86.1406 644.128 92.959 644.01 c 0
 94.8281 643.979 101.637 644.16 110.46 641.38 c 0
 120.18 636.397 127.048 627.803 130.271 623.924 c 0
 139.588 604.567 164.532 597.083 173.978 593.936 c 0
 232.052 581.78 251.059 543.33 255.695 522.966 c 0
 257.816 514.27 258.888 505.477 258.888 496.839 c 0
EndSplineSet
EndChar
StartChar: afii57717
Encoding: 334 1521 173
Width: 602
Flags: W
Validated: 1
HStem: -4.68652 21G<472.951 491.171>
VStem: 29.1348 530.303<496.839 562.317 556.633 590.99> 444.979 112.482<86.0191 158.571>
Fore
220.404 313.604 m 0xc0
 217.991 310.776 205.937 295.512 192.713 288.663 c 0
 187.907 286.175 181.61 283.971 174.207 283.971 c 0
 170.525 283.971 163.312 284.473 156.624 290.292 c 0
 154.86 291.827 147.532 296.674 144.436 309.178 c 0
 143.73 312.027 143.283 315.052 143.283 318.967 c 0
 143.283 325.674 144.944 337.634 153.202 352.499 c 0
 167.286 377.851 169.593 383.532 169.593 391.29 c 0
 169.593 397.001 167.29 401.739 164.85 405.43 c 0
 155.462 410.041 142.275 408.411 110.301 413.101 c 0
 75.9014 430.607 53.959 455.365 39.3594 494.45 c 0
 30.0078 519.135 29.1348 548.773 29.1348 562.317 c 0
 29.1348 565.648 29.2354 572.381 30.1221 578.991 c 0
 32.3975 595.153 37.0967 615.09 53.1748 630.93 c 0
 58.3633 635.365 64.7148 640.386 74.2197 643.541 c 0
 79.1064 644.666 83.583 645.269 87.5752 645.068 c 0
 91.6768 644.874 97.8428 645.176 107.177 641.604 c 0
 114.563 637.037 119.975 630.007 123.34 625.866 c 0
 133.157 605.903 142.496 598.418 166.114 591.995 c 0
 198.894 586.788 238.833 571.56 261.635 541.021 c 0
 279.127 516.39 285.777 491.506 285.777 467.7 c 0
 285.777 449.555 282.92 432.046 278.92 415.469 c 0
 268.547 372.47 235.801 331.644 220.404 313.604 c 0xc0
559.438 496.839 m 0
 559.438 464.583 549.438 433.901 528.613 407.681 c 0
 527.862 406.735 524.884 402.226 523.387 397.751 c 0
 523.188 397.156 523.291 397.672 522.95 396.236 c 0
 522.853 395.826 522.928 396.646 522.715 394.965 c 0
 522.631 394.302 522.648 395.9 522.648 393.979 c 0
 522.648 393.715 522.703 393.229 522.746 392.963 c 0
 533.811 325.17 549.557 214.273 555.868 159.104 c 0
 557.069 147.723 557.461 136.424 557.461 130.69 c 0
 557.461 102.913 552.636 62.0908 530.305 20.3037 c 0
 525.804 13.1738 524.835 11.7344 519.636 6.91797 c 0
 510.333 -0.210938 497.823 -4.68652 484.518 -4.68652 c 0
 461.384 -4.68652 444.979 7.37207 444.979 23.582 c 0xa0
 444.979 24.0947 444.995 25.7305 445.01 26.2422 c 0
 450.438 172.592 454.831 319.555 456.023 392.765 c 0
 456.026 392.939 456.076 393.948 456.076 394.124 c 0
 456.076 399.393 452.806 404.86 447.805 406.148 c 0
 414.385 409.894 391.091 413.901 378.104 417.296 c 0
 357.973 431.201 336.494 455.085 327.001 485.724 c 0
 320.526 505.464 318.687 528.553 318.687 546.727 c 0
 318.687 550.983 318.914 554.691 319.114 558.154 c 0
 320.611 582.379 332.37 607.896 340.937 617.897 c 0
 343.423 620.603 355.812 635.133 370.396 641.507 c 0
 375.517 642.839 382.363 644.128 390.333 644.01 c 0
 392.517 643.979 400.475 644.16 410.788 641.38 c 0
 421.18 636.397 428.048 627.803 431.271 623.924 c 0
 440.588 604.567 465.532 597.083 474.978 593.936 c 0
 533.052 581.78 552.059 543.33 556.695 522.966 c 0
 558.564 514.27 559.438 505.477 559.438 496.839 c 0
EndSplineSet
EndChar
